<svg width="875" height="871" viewBox="0 0 875 871" fill="none" xmlns="http://www.w3.org/2000/svg">
<path d="M778.419 563.184C780.921 561.9 783.627 561.826 786.556 562.851C792.565 564.953 799.266 571.609 805.749 581.218C818.642 600.326 829.894 629.924 832.695 653.097L832.695 653.098C835.732 678.055 832.934 700.002 827.709 718.225L827.708 718.228C825.438 726.208 822.617 733.642 819.027 739.53C815.433 745.427 811.157 749.628 806.032 751.401L806.019 751.406C801.015 753.189 794.678 752.192 788.154 748.173C781.647 744.163 775.086 737.213 769.8 727.41C757.691 704.941 754.735 672.353 756.492 642.039C758.249 611.725 764.692 584.098 771.043 571.651C773.35 567.146 775.872 564.49 778.419 563.184Z" fill="#EFC196" stroke="#F9F2E8" stroke-width="3"/>
<path d="M637.567 653.175C648.942 647.096 661.246 646.571 673.076 653.743V653.744C688.082 662.859 699.215 679.554 706.311 699.658C713.399 719.741 716.4 743.068 715.267 765.205C714.132 787.358 708.863 808.187 699.536 823.339C690.233 838.452 676.98 847.815 659.738 847.481H659.737C639.111 847.101 618.785 828.569 605.29 800.004H605.291C586.83 760.863 591.909 716.832 607.71 686.309C615.611 671.046 626.127 659.288 637.567 653.175Z" fill="#FBC3B1" stroke="#F9F2E8" stroke-width="3"/>
<path d="M600.876 504.02C620.47 468.868 656.29 457.546 684.49 448.682L684.49 448.683C697.767 444.518 710.735 441.754 722.457 441.202C734.189 440.65 744.564 442.319 752.753 446.904C768.879 455.935 776.008 478.69 764.781 508.039L764.78 508.041C757.621 526.838 743.876 545.759 727.476 561.938C711.078 578.114 692.116 591.461 674.622 599.164L674.623 599.163C639.118 614.777 608.582 610.419 595.731 589.358L594.666 587.613L594.601 587.688C590.251 579.531 587.576 566.929 587.914 552.546C588.277 537.107 592.109 519.791 600.877 504.019L600.876 504.02Z" fill="#E7DBB2" stroke="#F9F2E8" stroke-width="3"/>
<path d="M391.269 707.942C471.615 696.782 513.586 752.179 508.005 794.046V794.047C505.352 814.07 495.75 834.378 475.039 849.387C454.277 864.432 420.612 873.328 390.316 867.874H390.315C354.608 861.472 332.772 837.817 325.177 814.697H325.178C319.639 797.648 319.793 773.164 329.543 751.841C339.254 730.602 358.49 712.475 391.269 707.943V707.942Z" fill="#92BEBD" stroke="#F9F2E8" stroke-width="3"/>
<path d="M429.271 521.949C509.604 510.723 551.589 566.445 546.005 608.583V608.584C543.352 628.733 533.748 649.165 513.036 664.265C492.274 679.401 458.611 688.349 428.317 682.862H428.316C392.611 676.422 370.773 652.624 363.177 629.357H363.176C357.637 612.202 357.794 587.567 367.545 566.114C377.258 544.743 396.495 526.507 429.27 521.949H429.271Z" fill="#E6D07F" stroke="#F9F2E8" stroke-width="3"/>
<path d="M108.462 489.489C151.055 478.94 222.421 483.896 272.723 516.181C297.825 532.292 317.628 555.172 326.067 586.295C334.511 617.434 331.631 657.021 310.982 706.63C292.024 752.092 260.611 783.213 227.369 803.52L227.363 803.523C186.497 828.727 140.806 839.154 98.4727 822.217C56.1201 805.272 17.8265 757.515 5.53223 694.109H5.53125C-0.432364 662.96 0.114957 628.565 7.87695 598.265V598.264C23.3916 537.43 65.9223 499.98 108.461 489.489H108.462Z" fill="#E6977F" stroke="#F9F2E8" stroke-width="3"/>
<path d="M64.1111 261.721C79.8464 194.302 151.675 131.756 295.835 108.072L295.836 108.072C417.039 88.1255 552.236 89.2747 646.193 120.972C693.174 136.821 729.634 160.237 749.001 192.253C768.32 224.187 770.81 264.979 749.23 316.048C729.202 363.328 682.773 408.642 623.511 443.301C564.277 477.943 492.397 501.838 421.7 506.407L421.701 506.407C323.352 512.675 238.006 485.002 170.76 447.541L169.748 446.976L169.342 447.4C88.1852 401.763 48.4413 328.86 64.1111 261.721Z" fill="#D2E1F2" stroke="#F9F2E8" stroke-width="3"/>
<path d="M134.636 651.69C134.636 650.757 134.869 649.707 135.336 648.54C135.802 647.34 136.252 646.39 136.686 645.69C137.119 644.957 137.369 644.59 137.436 644.59C139.369 645.757 141.402 646.34 143.536 646.34C144.869 646.34 145.936 646.074 146.736 645.54C147.569 645.007 147.986 644.274 147.986 643.34C147.986 642.374 147.602 641.757 146.836 641.49C146.102 641.224 144.919 641.04 143.286 640.94H141.486C141.086 640.94 140.702 640.457 140.336 639.49C140.002 638.49 139.836 637.524 139.836 636.59C139.836 635.024 140.302 634.224 141.236 634.19L142.686 634.14C143.586 634.14 144.519 633.89 145.486 633.39C146.486 632.857 146.986 632.19 146.986 631.39C146.986 629.99 145.736 629.29 143.236 629.29C141.369 629.29 139.569 629.657 137.836 630.39C136.336 627.69 135.586 625.59 135.586 624.09C135.586 622.557 136.636 621.407 138.736 620.64C140.869 619.874 143.536 619.49 146.736 619.49C149.936 619.49 152.436 620.157 154.236 621.49C156.036 622.824 156.936 624.64 156.936 626.94C156.936 630.974 155.202 634.074 151.736 636.24C155.936 637.94 158.036 640.824 158.036 644.89C158.036 648.057 156.919 650.624 154.686 652.59C152.452 654.524 149.252 655.49 145.086 655.49C142.452 655.49 140.052 655.124 137.886 654.39C135.719 653.624 134.636 652.724 134.636 651.69ZM177.852 654.14C177.852 654.707 176.152 654.99 172.752 654.99C169.385 654.99 167.702 654.707 167.702 654.14V629.49L162.302 629.54C161.302 629.54 160.802 627.94 160.802 624.74C160.802 623.64 160.902 622.574 161.102 621.54C161.335 620.507 161.718 619.99 162.252 619.99H175.952C176.518 619.99 176.968 620.124 177.302 620.39C177.668 620.624 177.852 620.924 177.852 621.29V654.14Z" fill="#576273"/>
<path d="M796.24 622.99C796.873 622.99 797.19 624.374 797.19 627.14C797.19 628.007 797.106 629.04 796.94 630.24C796.806 631.407 796.54 631.99 796.14 631.99H786.39L786.34 635.64H787.99C791.556 635.64 794.206 636.674 795.94 638.74C797.706 640.807 798.59 643.54 798.59 646.94C798.59 650.34 797.39 653.124 794.99 655.29C792.59 657.424 789.506 658.49 785.74 658.49C781.973 658.49 779.223 657.957 777.49 656.89C777.223 656.457 777.09 655.79 777.09 654.89C777.09 653.957 777.223 652.657 777.49 650.99C777.756 649.29 778.123 648.44 778.59 648.44C778.623 648.44 778.723 648.507 778.89 648.64C781.256 649.607 783.056 650.09 784.29 650.09C785.556 650.09 786.59 649.757 787.39 649.09C788.223 648.39 788.64 647.507 788.64 646.44C788.64 643.774 787.206 642.44 784.34 642.44L780.04 642.49C779.706 642.557 779.373 642.424 779.04 642.09C778.706 641.724 778.54 641.257 778.54 640.69V625.04C778.54 623.674 779.04 622.99 780.04 622.99H796.24Z" fill="#576273"/>
<path d="M659.15 744.34C658.983 744.874 657.217 745.14 653.85 745.14C650.483 745.14 648.6 744.99 648.2 744.69C648.067 744.59 648 744.474 648 744.34L656.35 719.84H646.2C645.2 719.84 644.7 718.224 644.7 714.99C644.7 713.89 644.8 712.824 645 711.79C645.233 710.757 645.617 710.24 646.15 710.24L663.65 710.19C664.983 710.19 666.067 710.924 666.9 712.39C667.3 713.124 667.583 713.857 667.75 714.59L659.15 744.34Z" fill="#576273"/>
<path d="M703.642 500.45C703.642 503.717 702.459 506.383 700.092 508.45C697.759 510.517 694.626 511.55 690.692 511.55C686.792 511.55 683.709 510.567 681.442 508.6C679.209 506.6 678.092 504 678.092 500.8C678.092 497.567 679.709 494.7 682.942 492.2C680.676 490.233 679.542 487.867 679.542 485.1C679.542 482.333 680.626 480.05 682.792 478.25C684.959 476.45 687.726 475.55 691.092 475.55C694.459 475.55 697.142 476.4 699.142 478.1C701.176 479.767 702.176 481.883 702.142 484.45C702.142 486.983 701.076 489.283 698.942 491.35C700.309 492.35 701.426 493.65 702.292 495.25C703.192 496.817 703.642 498.55 703.642 500.45ZM687.992 500C687.992 500.967 688.276 501.75 688.842 502.35C689.442 502.917 690.176 503.2 691.042 503.2C691.909 503.2 692.609 502.917 693.142 502.35C693.709 501.75 693.992 500.967 693.992 500C693.992 498.2 692.842 496.717 690.542 495.55C688.842 496.583 687.992 498.067 687.992 500ZM693.392 485.85C693.392 485.117 693.126 484.5 692.592 484C692.092 483.5 691.526 483.25 690.892 483.25C689.192 483.25 688.309 484.067 688.242 485.7C688.242 487.2 689.392 488.617 691.692 489.95C692.826 488.683 693.392 487.317 693.392 485.85Z" fill="#576273"/>
<path d="M447.964 592.29C450.464 592.79 452.348 593.04 453.614 593.04C454.881 593.04 456.014 592.64 457.014 591.84C458.048 591.04 458.648 589.79 458.814 588.09C457.148 588.557 455.814 588.79 454.814 588.79C451.314 588.79 448.614 587.824 446.714 585.89C444.814 583.924 443.864 581.157 443.864 577.59C443.864 573.99 444.948 571.074 447.114 568.84C449.314 566.607 452.314 565.49 456.114 565.49C459.914 565.49 462.898 566.824 465.064 569.49C467.264 572.157 468.364 576.09 468.364 581.29C468.364 587.79 467.198 592.79 464.864 596.29C462.564 599.757 459.131 601.49 454.564 601.49C448.898 601.49 446.064 600.54 446.064 598.64C446.064 597.64 446.264 596.34 446.664 594.74C447.064 593.107 447.498 592.29 447.964 592.29ZM456.014 574.49C454.948 574.49 454.114 574.84 453.514 575.54C452.948 576.207 452.664 577.074 452.664 578.14C452.664 579.207 452.998 580.074 453.664 580.74C454.364 581.374 455.248 581.69 456.314 581.69C457.381 581.69 458.248 581.457 458.914 580.99C458.914 578.69 458.698 577.04 458.264 576.04C457.831 575.007 457.081 574.49 456.014 574.49Z" fill="#576273"/>
<path d="M406.964 770.29C409.464 770.79 411.348 771.04 412.614 771.04C413.881 771.04 415.014 770.64 416.014 769.84C417.048 769.04 417.648 767.79 417.814 766.09C416.148 766.557 414.814 766.79 413.814 766.79C410.314 766.79 407.614 765.824 405.714 763.89C403.814 761.924 402.864 759.157 402.864 755.59C402.864 751.99 403.948 749.074 406.114 746.84C408.314 744.607 411.314 743.49 415.114 743.49C418.914 743.49 421.898 744.824 424.064 747.49C426.264 750.157 427.364 754.09 427.364 759.29C427.364 765.79 426.198 770.79 423.864 774.29C421.564 777.757 418.131 779.49 413.564 779.49C407.898 779.49 405.064 778.54 405.064 776.64C405.064 775.64 405.264 774.34 405.664 772.74C406.064 771.107 406.498 770.29 406.964 770.29ZM415.014 752.49C413.948 752.49 413.114 752.84 412.514 753.54C411.948 754.207 411.664 755.074 411.664 756.14C411.664 757.207 411.998 758.074 412.664 758.74C413.364 759.374 414.248 759.69 415.314 759.69C416.381 759.69 417.248 759.457 417.914 758.99C417.914 756.69 417.698 755.04 417.264 754.04C416.831 753.007 416.081 752.49 415.014 752.49Z" fill="#576273"/>
<path d="M406.701 272.45C406.701 275.717 405.517 278.383 403.151 280.45C400.817 282.517 397.684 283.55 393.751 283.55C389.851 283.55 386.767 282.567 384.501 280.6C382.267 278.6 381.151 276 381.151 272.8C381.151 269.567 382.767 266.7 386.001 264.2C383.734 262.233 382.601 259.867 382.601 257.1C382.601 254.333 383.684 252.05 385.851 250.25C388.017 248.45 390.784 247.55 394.151 247.55C397.517 247.55 400.201 248.4 402.201 250.1C404.234 251.767 405.234 253.883 405.201 256.45C405.201 258.983 404.134 261.283 402.001 263.35C403.367 264.35 404.484 265.65 405.351 267.25C406.251 268.817 406.701 270.55 406.701 272.45ZM391.051 272C391.051 272.967 391.334 273.75 391.901 274.35C392.501 274.917 393.234 275.2 394.101 275.2C394.967 275.2 395.667 274.917 396.201 274.35C396.767 273.75 397.051 272.967 397.051 272C397.051 270.2 395.901 268.717 393.601 267.55C391.901 268.583 391.051 270.067 391.051 272ZM396.451 257.85C396.451 257.117 396.184 256.5 395.651 256C395.151 255.5 394.584 255.25 393.951 255.25C392.251 255.25 391.367 256.067 391.301 257.7C391.301 259.2 392.451 260.617 394.751 261.95C395.884 260.683 396.451 259.317 396.451 257.85ZM435.666 268.05C436 268.05 436.166 269.317 436.166 271.85C436.166 274.35 436 275.6 435.666 275.6L432.366 275.65V281.95C432.366 282.317 431.683 282.583 430.316 282.75C428.95 282.917 427.766 283 426.766 283L424.716 282.9C423.016 282.767 422.166 282.467 422.166 282V275.8H412.216C411.35 274.933 410.566 273.817 409.866 272.45C409.166 271.05 408.816 270.05 408.816 269.45C408.816 268.817 408.916 268.317 409.116 267.95L420.066 248.55C420.2 248.283 421.216 248.083 423.116 247.95C425.05 247.817 427.066 247.75 429.166 247.75C431.266 247.75 432.316 247.833 432.316 248L432.366 268.05H435.666ZM423.616 268.1V257.65L417.766 268.1H423.616Z" fill="#576273"/>
<path d="M124.358 669.279C124.358 668.961 124.489 668.705 124.749 668.51C125.009 668.314 125.262 668.217 125.506 668.217C125.848 668.225 126.149 668.335 126.409 668.546C126.67 668.758 126.8 669.043 126.8 669.401L126.812 676.261L135.943 676.249L135.955 669.401C135.931 669.075 136.041 668.799 136.285 668.571C136.537 668.335 136.83 668.217 137.164 668.217C137.497 668.217 137.786 668.331 138.03 668.559C138.274 668.786 138.396 669.067 138.396 669.401L138.384 684.916C138.384 685.242 138.262 685.522 138.018 685.758C137.782 685.986 137.497 686.1 137.164 686.1C136.83 686.1 136.541 685.99 136.297 685.771C136.061 685.543 135.943 685.266 135.943 684.94V678.715L126.824 678.727L126.836 684.953C126.836 685.286 126.718 685.567 126.482 685.795C126.246 686.023 125.958 686.137 125.616 686.137C125.282 686.137 124.993 686.023 124.749 685.795C124.513 685.559 124.395 685.278 124.395 684.953C124.387 682.365 124.379 679.777 124.371 677.189C124.371 674.593 124.367 672.001 124.358 669.413V669.279ZM149.944 665.275C150.319 665.275 150.616 665.405 150.835 665.666C151.055 665.926 151.165 666.211 151.165 666.52C151.165 666.837 151.051 667.114 150.823 667.35L146.868 671.012C146.543 671.362 146.233 671.537 145.94 671.537C145.737 671.537 145.546 671.448 145.367 671.269C145.188 671.09 145.098 670.902 145.098 670.707C145.098 670.422 145.261 670.117 145.586 669.792L149.053 665.666C149.289 665.405 149.586 665.275 149.944 665.275ZM146.417 672.66C147.499 672.66 148.492 672.929 149.395 673.466C150.298 674.003 151.023 674.727 151.568 675.639C152.121 676.542 152.398 677.547 152.398 678.654C152.398 678.882 152.386 679.114 152.361 679.35C152.329 679.651 152.19 679.907 151.946 680.119C151.71 680.322 151.442 680.424 151.141 680.424L142.608 680.436C142.746 681.022 143.007 681.571 143.389 682.084C143.772 682.597 144.236 683.012 144.781 683.329C145.334 683.646 145.936 683.805 146.587 683.805C147.287 683.805 147.914 683.634 148.467 683.292C149.021 682.951 149.452 682.556 149.761 682.108C149.859 681.954 150.005 681.824 150.201 681.718C150.404 681.612 150.595 681.559 150.774 681.559C151.108 681.559 151.393 681.681 151.629 681.925C151.873 682.169 151.995 682.458 151.995 682.792C151.995 683.052 151.922 683.284 151.775 683.488C151.271 684.228 150.575 684.871 149.688 685.417C148.809 685.954 147.788 686.222 146.624 686.222C145.688 686.222 144.817 686.039 144.012 685.673C143.214 685.307 142.518 684.806 141.924 684.171C141.33 683.537 140.866 682.808 140.533 681.986C140.207 681.156 140.044 680.281 140.044 679.362C140.044 678.475 140.207 677.632 140.533 676.835C140.858 676.029 141.31 675.313 141.888 674.687C142.474 674.06 143.153 673.568 143.926 673.209C144.699 672.843 145.529 672.66 146.417 672.66ZM149.883 677.982C149.729 677.185 149.33 676.505 148.687 675.944C148.044 675.382 147.287 675.102 146.417 675.102C145.529 675.102 144.744 675.39 144.061 675.968C143.385 676.546 142.929 677.222 142.693 677.995L149.883 677.982ZM162.444 674.162C162.444 674.813 162.131 675.175 161.504 675.248C161.277 675.272 160.988 675.199 160.638 675.028C160.288 674.849 159.934 674.76 159.576 674.76C158.868 674.76 158.306 674.943 157.891 675.309C157.476 675.667 157.179 676.151 157 676.762C156.821 677.372 156.731 678.056 156.731 678.812V685.111C156.731 685.469 156.622 685.754 156.402 685.966C156.19 686.177 155.893 686.283 155.511 686.283C155.136 686.283 154.839 686.177 154.62 685.966C154.4 685.754 154.29 685.465 154.29 685.099V673.856C154.29 673.49 154.38 673.189 154.559 672.953C154.746 672.717 154.998 672.599 155.315 672.599C155.503 672.599 155.718 672.681 155.962 672.843C156.215 672.998 156.39 673.266 156.487 673.649L156.609 674.528C156.715 674.3 156.919 674.035 157.22 673.734C157.521 673.433 157.879 673.173 158.294 672.953C158.709 672.725 159.14 672.611 159.588 672.611C160.418 672.611 161.102 672.709 161.639 672.904C162.176 673.091 162.444 673.511 162.444 674.162ZM169.439 672.624C170.375 672.624 171.246 672.803 172.051 673.161C172.865 673.519 173.577 674.015 174.188 674.65C174.798 675.285 175.274 676.013 175.616 676.835C175.966 677.657 176.141 678.532 176.141 679.459C176.141 680.371 175.966 681.238 175.616 682.06C175.266 682.873 174.782 683.594 174.163 684.22C173.553 684.839 172.841 685.327 172.027 685.685C171.221 686.043 170.359 686.222 169.439 686.222C168.528 686.222 167.665 686.047 166.851 685.697C166.045 685.347 165.333 684.863 164.715 684.245C164.104 683.626 163.624 682.91 163.274 682.096C162.924 681.274 162.75 680.395 162.75 679.459C162.75 678.532 162.924 677.657 163.274 676.835C163.624 676.013 164.104 675.289 164.715 674.662C165.333 674.027 166.045 673.531 166.851 673.173C167.657 672.807 168.519 672.624 169.439 672.624ZM165.215 679.484C165.215 680.273 165.407 680.993 165.789 681.645C166.18 682.287 166.696 682.8 167.339 683.183C167.982 683.565 168.686 683.756 169.451 683.756C170.232 683.756 170.94 683.561 171.575 683.17C172.218 682.772 172.727 682.247 173.101 681.596C173.484 680.945 173.675 680.233 173.675 679.459C173.675 678.67 173.488 677.946 173.113 677.287C172.739 676.619 172.23 676.086 171.587 675.688C170.953 675.289 170.236 675.089 169.439 675.089C168.633 675.089 167.913 675.293 167.278 675.7C166.644 676.098 166.139 676.632 165.765 677.299C165.398 677.958 165.215 678.686 165.215 679.484ZM183.843 672.66C184.926 672.66 185.918 672.929 186.822 673.466C187.725 674.003 188.449 674.727 188.995 675.639C189.548 676.542 189.825 677.547 189.825 678.654C189.825 678.882 189.812 679.114 189.788 679.35C189.756 679.651 189.617 679.907 189.373 680.119C189.137 680.322 188.868 680.424 188.567 680.424L180.035 680.436C180.173 681.022 180.433 681.571 180.816 682.084C181.198 682.597 181.662 683.012 182.208 683.329C182.761 683.646 183.363 683.805 184.014 683.805C184.714 683.805 185.341 683.634 185.894 683.292C186.447 682.951 186.879 682.556 187.188 682.108C187.286 681.954 187.432 681.824 187.627 681.718C187.831 681.612 188.022 681.559 188.201 681.559C188.535 681.559 188.82 681.681 189.056 681.925C189.3 682.169 189.422 682.458 189.422 682.792C189.422 683.052 189.349 683.284 189.202 683.488C188.698 684.228 188.002 684.871 187.115 685.417C186.236 685.954 185.215 686.222 184.051 686.222C183.115 686.222 182.244 686.039 181.438 685.673C180.641 685.307 179.945 684.806 179.351 684.171C178.757 683.537 178.293 682.808 177.959 681.986C177.634 681.156 177.471 680.281 177.471 679.362C177.471 678.475 177.634 677.632 177.959 676.835C178.285 676.029 178.737 675.313 179.314 674.687C179.9 674.06 180.58 673.568 181.353 673.209C182.126 672.843 182.956 672.66 183.843 672.66ZM187.31 677.982C187.155 677.185 186.757 676.505 186.114 675.944C185.471 675.382 184.714 675.102 183.843 675.102C182.956 675.102 182.171 675.39 181.487 675.968C180.812 676.546 180.356 677.222 180.12 677.995L187.31 677.982Z" fill="#576273"/>
<path d="M761.171 673.633C761.171 673.348 761.289 673.088 761.525 672.852C761.77 672.616 762.038 672.498 762.331 672.498C762.917 672.498 763.312 672.742 763.515 673.23L769.411 686.633L774.721 673.096C774.917 672.583 775.315 672.327 775.917 672.327C776.219 672.327 776.487 672.445 776.723 672.681C776.959 672.909 777.077 673.169 777.077 673.462C777.077 673.69 777.049 673.877 776.992 674.023L770.62 690.186C770.538 690.389 770.392 690.568 770.18 690.723C769.977 690.885 769.745 690.967 769.484 690.967C768.972 690.967 768.601 690.723 768.374 690.234L761.281 674.231C761.208 674.084 761.171 673.885 761.171 673.633ZM779.873 675.366C779.498 675.366 779.193 675.252 778.957 675.024C778.721 674.788 778.599 674.5 778.591 674.158L778.566 673.23C778.566 672.921 778.705 672.673 778.981 672.485C779.258 672.29 779.523 672.192 779.775 672.192C780.117 672.192 780.402 672.31 780.629 672.546C780.865 672.782 780.987 673.067 780.996 673.401L781.008 674.133C781.008 674.451 780.902 674.736 780.69 674.988C780.479 675.24 780.206 675.366 779.873 675.366ZM778.554 677.673C778.554 677.364 778.684 677.112 778.945 676.917C779.205 676.721 779.458 676.624 779.702 676.624C780.06 676.624 780.365 676.729 780.617 676.941C780.869 677.153 780.996 677.433 780.996 677.783V677.795L781.02 689.099C781.02 689.425 780.898 689.701 780.654 689.929C780.418 690.157 780.133 690.271 779.799 690.271C779.458 690.271 779.169 690.157 778.933 689.929C778.697 689.693 778.579 689.412 778.579 689.087L778.554 677.673ZM784.499 672.18C784.89 672.18 785.203 672.31 785.439 672.571C785.675 672.823 785.789 673.1 785.781 673.401V689.124C785.781 689.449 785.651 689.714 785.39 689.917C785.138 690.112 784.886 690.21 784.633 690.21C784.283 690.21 783.978 690.096 783.718 689.868C783.465 689.64 783.339 689.347 783.339 688.989V673.401C783.339 673.092 783.449 672.811 783.669 672.559C783.897 672.306 784.174 672.18 784.499 672.18ZM789.26 672.18C789.65 672.18 789.964 672.31 790.2 672.571C790.436 672.823 790.55 673.1 790.542 673.401V689.124C790.542 689.449 790.411 689.714 790.151 689.917C789.899 690.112 789.646 690.21 789.394 690.21C789.044 690.21 788.739 690.096 788.479 689.868C788.226 689.64 788.1 689.347 788.1 688.989V673.401C788.1 673.092 788.21 672.811 788.43 672.559C788.658 672.306 788.934 672.18 789.26 672.18ZM799.306 676.562C799.908 676.562 800.494 676.685 801.064 676.929C801.642 677.165 802.154 677.466 802.602 677.832C803.058 678.19 803.396 678.56 803.615 678.943L803.75 677.771C803.75 677.437 803.847 677.153 804.042 676.917C804.238 676.672 804.502 676.55 804.836 676.55C805.17 676.55 805.454 676.672 805.69 676.917C805.935 677.153 806.057 677.437 806.057 677.771V677.795L806.032 689.099C806.032 689.433 805.91 689.722 805.666 689.966C805.43 690.202 805.145 690.32 804.812 690.32C804.478 690.32 804.213 690.202 804.018 689.966C803.823 689.722 803.725 689.433 803.725 689.099L803.591 688.123C803.168 688.847 802.549 689.388 801.735 689.746C800.922 690.096 800.104 690.271 799.282 690.271C798.362 690.271 797.5 690.092 796.694 689.734C795.888 689.368 795.18 688.867 794.57 688.232C793.959 687.598 793.479 686.869 793.129 686.047C792.788 685.225 792.617 684.359 792.617 683.447C792.617 682.544 792.784 681.681 793.117 680.859C793.459 680.029 793.931 679.293 794.533 678.65C795.144 677.999 795.852 677.49 796.657 677.124C797.471 676.75 798.354 676.562 799.306 676.562ZM803.518 683.423C803.518 682.625 803.33 681.893 802.956 681.226C802.59 680.558 802.089 680.021 801.455 679.614C800.82 679.207 800.096 679.004 799.282 679.004C798.484 679.004 797.764 679.207 797.121 679.614C796.478 680.021 795.97 680.562 795.595 681.238C795.221 681.905 795.034 682.629 795.034 683.411C795.034 684.2 795.225 684.932 795.607 685.608C795.99 686.275 796.503 686.812 797.146 687.219C797.797 687.626 798.513 687.83 799.294 687.83C800.075 687.83 800.783 687.626 801.418 687.219C802.061 686.812 802.569 686.275 802.944 685.608C803.326 684.932 803.518 684.204 803.518 683.423ZM810.878 678.552C811.318 678.121 811.843 677.694 812.453 677.271C813.072 676.847 813.788 676.636 814.602 676.636C815.668 676.636 816.555 676.921 817.263 677.49C817.971 678.052 818.492 678.707 818.825 679.456C819.086 680.05 819.24 680.64 819.289 681.226C819.346 681.803 819.375 682.349 819.375 682.861V689.026C819.375 689.36 819.252 689.648 819.008 689.893C818.772 690.129 818.487 690.247 818.154 690.247C817.82 690.247 817.531 690.129 817.287 689.893C817.051 689.648 816.933 689.36 816.933 689.026V682.861C816.933 682.381 816.909 681.938 816.86 681.531C816.819 681.124 816.73 680.766 816.591 680.457C816.437 680.098 816.197 679.781 815.871 679.504C815.546 679.22 815.131 679.077 814.626 679.077C813.422 679.077 812.494 679.537 811.843 680.457C811.2 681.376 810.882 682.617 810.891 684.18L810.903 689.05C810.903 689.384 810.781 689.673 810.537 689.917C810.301 690.153 810.016 690.271 809.682 690.271C809.34 690.271 809.051 690.153 808.815 689.917C808.579 689.673 808.461 689.38 808.461 689.038L808.437 677.82C808.437 677.486 808.527 677.201 808.706 676.965C808.893 676.721 809.153 676.599 809.487 676.599C809.82 676.599 810.077 676.721 810.256 676.965C810.435 677.201 810.573 677.486 810.671 677.82L810.878 678.552ZM827.834 676.624C828.77 676.624 829.641 676.803 830.446 677.161C831.26 677.519 831.972 678.015 832.583 678.65C833.193 679.285 833.669 680.013 834.011 680.835C834.361 681.657 834.536 682.532 834.536 683.459C834.536 684.371 834.361 685.238 834.011 686.06C833.661 686.873 833.177 687.594 832.558 688.22C831.948 688.839 831.236 689.327 830.422 689.685C829.616 690.043 828.754 690.222 827.834 690.222C826.923 690.222 826.06 690.047 825.246 689.697C824.44 689.347 823.728 688.863 823.11 688.245C822.5 687.626 822.019 686.91 821.669 686.096C821.319 685.274 821.145 684.395 821.145 683.459C821.145 682.532 821.319 681.657 821.669 680.835C822.019 680.013 822.5 679.289 823.11 678.662C823.728 678.027 824.44 677.531 825.246 677.173C826.052 676.807 826.914 676.624 827.834 676.624ZM823.61 683.484C823.61 684.273 823.802 684.993 824.184 685.645C824.575 686.287 825.091 686.8 825.734 687.183C826.377 687.565 827.081 687.756 827.846 687.756C828.627 687.756 829.335 687.561 829.97 687.17C830.613 686.772 831.122 686.247 831.496 685.596C831.879 684.945 832.07 684.233 832.07 683.459C832.07 682.67 831.883 681.946 831.508 681.287C831.134 680.619 830.625 680.086 829.982 679.688C829.348 679.289 828.632 679.089 827.834 679.089C827.028 679.089 826.308 679.293 825.673 679.7C825.039 680.098 824.534 680.632 824.16 681.299C823.793 681.958 823.61 682.686 823.61 683.484Z" fill="#576273"/>
<path d="M618.354 780.99C618.02 780.99 617.731 780.872 617.487 780.636C617.251 780.392 617.133 780.103 617.133 779.77L617.096 764.621C617.088 764.547 617.084 764.474 617.084 764.401C617.084 764.287 617.108 764.177 617.157 764.071C617.214 763.965 617.279 763.856 617.353 763.742C617.548 763.424 617.829 763.266 618.195 763.266C618.781 763.266 619.184 763.493 619.403 763.949L625.934 774.606L631.977 763.937C632.221 763.53 632.55 763.327 632.965 763.327C633.315 763.327 633.62 763.441 633.881 763.668C634.141 763.896 634.271 764.189 634.271 764.547V779.818C634.271 780.152 634.149 780.441 633.905 780.685C633.669 780.921 633.384 781.039 633.051 781.039C632.717 781.039 632.428 780.921 632.184 780.685C631.948 780.441 631.83 780.152 631.83 779.818V768.905L627.033 777.621C626.943 777.768 626.805 777.91 626.618 778.048C626.431 778.179 626.227 778.244 626.007 778.244C625.535 778.244 625.173 778.048 624.921 777.658L619.538 768.856L619.574 779.757V779.77C619.574 780.103 619.452 780.392 619.208 780.636C618.972 780.872 618.687 780.99 618.354 780.99ZM642.292 767.66C643.374 767.66 644.367 767.929 645.27 768.466C646.173 769.003 646.898 769.727 647.443 770.639C647.996 771.542 648.273 772.547 648.273 773.654C648.273 773.882 648.261 774.114 648.236 774.35C648.204 774.651 648.065 774.907 647.821 775.119C647.585 775.322 647.317 775.424 647.016 775.424L638.483 775.436C638.621 776.022 638.882 776.571 639.264 777.084C639.647 777.597 640.111 778.012 640.656 778.329C641.209 778.646 641.811 778.805 642.462 778.805C643.162 778.805 643.789 778.634 644.342 778.292C644.896 777.951 645.327 777.556 645.636 777.108C645.734 776.954 645.88 776.824 646.076 776.718C646.279 776.612 646.47 776.559 646.649 776.559C646.983 776.559 647.268 776.681 647.504 776.925C647.748 777.169 647.87 777.458 647.87 777.792C647.87 778.052 647.797 778.284 647.65 778.488C647.146 779.228 646.45 779.871 645.563 780.417C644.684 780.954 643.663 781.222 642.499 781.222C641.563 781.222 640.692 781.039 639.887 780.673C639.089 780.307 638.393 779.806 637.799 779.171C637.205 778.537 636.741 777.808 636.408 776.986C636.082 776.156 635.919 775.281 635.919 774.362C635.919 773.475 636.082 772.632 636.408 771.835C636.733 771.029 637.185 770.313 637.763 769.687C638.349 769.06 639.028 768.568 639.801 768.209C640.574 767.843 641.404 767.66 642.292 767.66ZM645.758 772.982C645.604 772.185 645.205 771.505 644.562 770.944C643.919 770.382 643.162 770.102 642.292 770.102C641.404 770.102 640.619 770.39 639.936 770.968C639.26 771.546 638.804 772.222 638.568 772.995L645.758 772.982ZM652.606 769.552C653.046 769.121 653.571 768.694 654.181 768.271C654.8 767.847 655.516 767.636 656.33 767.636C657.396 767.636 658.283 767.921 658.991 768.49C659.699 769.052 660.22 769.707 660.553 770.456C660.814 771.05 660.968 771.64 661.017 772.226C661.074 772.803 661.103 773.349 661.103 773.861V780.026C661.103 780.36 660.98 780.648 660.736 780.893C660.5 781.129 660.215 781.247 659.882 781.247C659.548 781.247 659.259 781.129 659.015 780.893C658.779 780.648 658.661 780.36 658.661 780.026V773.861C658.661 773.381 658.637 772.938 658.588 772.531C658.547 772.124 658.458 771.766 658.319 771.457C658.165 771.098 657.925 770.781 657.599 770.504C657.274 770.22 656.859 770.077 656.354 770.077C655.15 770.077 654.222 770.537 653.571 771.457C652.928 772.376 652.611 773.617 652.619 775.18L652.631 780.05C652.631 780.384 652.509 780.673 652.265 780.917C652.029 781.153 651.744 781.271 651.41 781.271C651.068 781.271 650.779 781.153 650.543 780.917C650.307 780.673 650.189 780.38 650.189 780.038L650.165 768.82C650.165 768.486 650.255 768.201 650.434 767.965C650.621 767.721 650.881 767.599 651.215 767.599C651.549 767.599 651.805 767.721 651.984 767.965C652.163 768.201 652.301 768.486 652.399 768.82L652.606 769.552ZM665.314 765.438C665.314 765.105 665.432 764.82 665.668 764.584C665.904 764.34 666.193 764.218 666.535 764.218C666.868 764.218 667.153 764.34 667.389 764.584C667.633 764.82 667.755 765.105 667.755 765.438V767.868H669.391C669.708 767.868 669.981 767.982 670.209 768.209C670.437 768.437 670.551 768.71 670.551 769.027C670.551 769.345 670.437 769.617 670.209 769.845C669.981 770.073 669.708 770.187 669.391 770.187H667.743L667.731 777.743V777.768C667.731 778.166 667.776 778.443 667.865 778.598C667.955 778.744 668.138 778.817 668.415 778.817C668.764 778.817 669.074 778.724 669.342 778.537C669.44 778.472 669.558 778.415 669.696 778.366C669.835 778.309 669.969 778.28 670.099 778.28C670.433 778.28 670.718 778.398 670.954 778.634C671.198 778.87 671.32 779.155 671.32 779.489C671.32 779.888 671.157 780.209 670.832 780.453C670.522 780.689 670.168 780.884 669.77 781.039C669.371 781.194 668.944 781.271 668.488 781.271C667.462 781.271 666.673 780.958 666.12 780.331C665.566 779.696 665.29 778.907 665.29 777.963V777.853L665.302 770.199H663.727C663.41 770.199 663.137 770.085 662.909 769.857C662.681 769.63 662.567 769.357 662.567 769.04C662.567 768.722 662.681 768.45 662.909 768.222C663.137 767.994 663.41 767.88 663.727 767.88H665.314V765.438ZM678.913 767.624C679.848 767.624 680.719 767.803 681.525 768.161C682.339 768.519 683.051 769.015 683.661 769.65C684.271 770.285 684.748 771.013 685.089 771.835C685.439 772.657 685.614 773.532 685.614 774.459C685.614 775.371 685.439 776.238 685.089 777.06C684.739 777.873 684.255 778.594 683.637 779.22C683.026 779.839 682.314 780.327 681.5 780.685C680.695 781.043 679.832 781.222 678.913 781.222C678.001 781.222 677.139 781.047 676.325 780.697C675.519 780.347 674.807 779.863 674.188 779.245C673.578 778.626 673.098 777.91 672.748 777.096C672.398 776.274 672.223 775.395 672.223 774.459C672.223 773.532 672.398 772.657 672.748 771.835C673.098 771.013 673.578 770.289 674.188 769.662C674.807 769.027 675.519 768.531 676.325 768.173C677.13 767.807 677.993 767.624 678.913 767.624ZM674.689 774.484C674.689 775.273 674.88 775.993 675.263 776.645C675.653 777.287 676.17 777.8 676.813 778.183C677.456 778.565 678.16 778.756 678.925 778.756C679.706 778.756 680.414 778.561 681.049 778.17C681.692 777.772 682.2 777.247 682.575 776.596C682.957 775.945 683.148 775.233 683.148 774.459C683.148 773.67 682.961 772.946 682.587 772.287C682.213 771.619 681.704 771.086 681.061 770.688C680.426 770.289 679.71 770.089 678.913 770.089C678.107 770.089 677.387 770.293 676.752 770.7C676.117 771.098 675.613 771.632 675.238 772.299C674.872 772.958 674.689 773.686 674.689 774.484ZM695.526 769.162C695.526 769.813 695.213 770.175 694.586 770.248C694.359 770.272 694.07 770.199 693.72 770.028C693.37 769.849 693.016 769.76 692.658 769.76C691.95 769.76 691.388 769.943 690.973 770.309C690.558 770.667 690.261 771.151 690.082 771.762C689.903 772.372 689.813 773.056 689.813 773.812V780.111C689.813 780.469 689.704 780.754 689.484 780.966C689.272 781.177 688.975 781.283 688.593 781.283C688.218 781.283 687.921 781.177 687.702 780.966C687.482 780.754 687.372 780.465 687.372 780.099V768.856C687.372 768.49 687.462 768.189 687.641 767.953C687.828 767.717 688.08 767.599 688.397 767.599C688.585 767.599 688.8 767.681 689.044 767.843C689.297 767.998 689.472 768.266 689.569 768.649L689.691 769.528C689.797 769.3 690.001 769.035 690.302 768.734C690.603 768.433 690.961 768.173 691.376 767.953C691.791 767.725 692.222 767.611 692.67 767.611C693.5 767.611 694.184 767.709 694.721 767.904C695.258 768.091 695.526 768.511 695.526 769.162Z" fill="#576273"/>
<path d="M596.149 526.682C596.149 526.356 596.267 526.079 596.503 525.852C596.748 525.616 597.036 525.498 597.37 525.498L607.832 525.51H607.844C608.177 525.51 608.462 525.632 608.698 525.876C608.942 526.112 609.064 526.397 609.064 526.73C609.064 527.064 608.942 527.353 608.698 527.597C608.462 527.833 608.177 527.951 607.844 527.951H607.832L598.591 527.939L598.603 532.944L606.831 533.005C607.181 533.005 607.469 533.127 607.697 533.371C607.933 533.615 608.051 533.929 608.051 534.311C608.051 534.637 607.925 534.913 607.673 535.141C607.421 535.361 607.14 535.471 606.831 535.471H606.818L598.615 535.41L598.627 540.573L607.832 540.561H607.844C608.177 540.561 608.462 540.683 608.698 540.927C608.942 541.163 609.064 541.448 609.064 541.782C609.064 542.115 608.942 542.404 608.698 542.648C608.462 542.884 608.177 543.002 607.844 543.002H607.832L597.407 543.015C597.073 543.015 596.784 542.897 596.54 542.661C596.304 542.417 596.186 542.132 596.186 541.806L596.149 526.682ZM615.986 529.611C616.775 529.611 617.467 529.803 618.061 530.185C618.663 530.568 619.156 531.031 619.538 531.577C619.994 531.048 620.543 530.588 621.186 530.197C621.829 529.799 622.545 529.599 623.334 529.599C624.376 529.599 625.239 529.88 625.922 530.441C626.614 530.995 627.127 531.723 627.46 532.626C627.794 533.53 627.961 534.506 627.961 535.556L627.973 542.062C627.973 542.388 627.855 542.669 627.619 542.905C627.383 543.141 627.094 543.259 626.752 543.259C626.411 543.259 626.122 543.141 625.886 542.905C625.65 542.669 625.532 542.388 625.532 542.062L625.52 535.581C625.52 534.962 625.463 534.384 625.349 533.847C625.235 533.302 625.027 532.862 624.726 532.529C624.425 532.195 623.99 532.028 623.42 532.028C622.818 532.028 622.301 532.195 621.87 532.529C621.446 532.862 621.121 533.302 620.893 533.847C620.673 534.384 620.563 534.966 620.563 535.593L620.576 542.099C620.576 542.425 620.454 542.705 620.209 542.941C619.973 543.169 619.689 543.283 619.355 543.283C619.013 543.283 618.724 543.165 618.488 542.929C618.252 542.693 618.134 542.412 618.134 542.087V535.605C618.134 534.84 618.004 534.193 617.744 533.664C617.491 533.135 617.162 532.736 616.755 532.468C616.356 532.191 615.945 532.053 615.522 532.053C614.92 532.053 614.379 532.333 613.898 532.895C613.418 533.457 613.178 534.331 613.178 535.52V542.099C613.178 542.425 613.056 542.705 612.812 542.941C612.576 543.169 612.291 543.283 611.958 543.283C611.624 543.283 611.335 543.165 611.091 542.929C610.855 542.693 610.737 542.412 610.737 542.087V530.795C610.737 530.462 610.798 530.181 610.92 529.953C611.05 529.717 611.286 529.599 611.628 529.599C611.896 529.599 612.145 529.685 612.373 529.855C612.6 530.026 612.784 530.311 612.922 530.71L613.154 531.381C613.414 530.844 613.813 530.417 614.35 530.1C614.895 529.774 615.441 529.611 615.986 529.611ZM643.317 536.411C643.317 537.314 643.159 538.173 642.841 538.986C642.524 539.8 642.076 540.524 641.499 541.159C640.921 541.786 640.241 542.282 639.46 542.648C638.687 543.015 637.84 543.198 636.921 543.198C636.164 543.198 635.403 543.007 634.638 542.624C633.881 542.242 633.271 541.717 632.807 541.049L632.661 542.038C632.612 542.372 632.502 542.661 632.331 542.905C632.168 543.141 631.92 543.259 631.586 543.259C631.253 543.259 630.964 543.141 630.72 542.905C630.484 542.661 630.366 542.372 630.366 542.038V526.45C630.366 526.116 630.484 525.831 630.72 525.595C630.964 525.351 631.253 525.229 631.586 525.229C631.92 525.229 632.205 525.351 632.441 525.595C632.685 525.831 632.807 526.116 632.807 526.45V531.589C633.336 530.979 633.926 530.494 634.577 530.136C635.236 529.778 635.989 529.599 636.835 529.599C637.666 529.599 638.467 529.758 639.24 530.075C640.013 530.393 640.697 530.84 641.291 531.418C641.966 532.085 642.471 532.854 642.805 533.725C643.146 534.596 643.317 535.491 643.317 536.411ZM636.945 540.756C637.702 540.756 638.378 540.553 638.972 540.146C639.566 539.739 640.034 539.206 640.375 538.547C640.717 537.88 640.888 537.167 640.888 536.411C640.888 535.654 640.713 534.942 640.363 534.274C640.021 533.599 639.549 533.054 638.947 532.639C638.345 532.215 637.657 532.004 636.884 532.004C636.111 532.004 635.424 532.203 634.821 532.602C634.219 533.001 633.747 533.53 633.405 534.189C633.063 534.848 632.893 535.568 632.893 536.35C632.893 536.919 632.99 537.477 633.186 538.022C633.389 538.567 633.674 539.043 634.04 539.45C634.406 539.849 634.85 540.166 635.371 540.402C635.891 540.638 636.416 540.756 636.945 540.756ZM651.545 529.562C652.147 529.562 652.733 529.685 653.303 529.929C653.881 530.165 654.393 530.466 654.841 530.832C655.297 531.19 655.634 531.56 655.854 531.943L655.988 530.771C655.988 530.437 656.086 530.153 656.281 529.917C656.477 529.672 656.741 529.55 657.075 529.55C657.408 529.55 657.693 529.672 657.929 529.917C658.173 530.153 658.295 530.437 658.295 530.771V530.795L658.271 542.099C658.271 542.433 658.149 542.722 657.905 542.966C657.669 543.202 657.384 543.32 657.05 543.32C656.717 543.32 656.452 543.202 656.257 542.966C656.062 542.722 655.964 542.433 655.964 542.099L655.83 541.123C655.406 541.847 654.788 542.388 653.974 542.746C653.16 543.096 652.342 543.271 651.521 543.271C650.601 543.271 649.738 543.092 648.933 542.734C648.127 542.368 647.419 541.867 646.809 541.232C646.198 540.598 645.718 539.869 645.368 539.047C645.026 538.225 644.855 537.359 644.855 536.447C644.855 535.544 645.022 534.681 645.356 533.859C645.698 533.029 646.17 532.293 646.772 531.65C647.382 530.999 648.09 530.49 648.896 530.124C649.71 529.75 650.593 529.562 651.545 529.562ZM655.756 536.423C655.756 535.625 655.569 534.893 655.195 534.226C654.829 533.558 654.328 533.021 653.693 532.614C653.059 532.207 652.334 532.004 651.521 532.004C650.723 532.004 650.003 532.207 649.36 532.614C648.717 533.021 648.208 533.562 647.834 534.238C647.46 534.905 647.272 535.629 647.272 536.411C647.272 537.2 647.464 537.932 647.846 538.608C648.229 539.275 648.741 539.812 649.384 540.219C650.035 540.626 650.751 540.83 651.533 540.83C652.314 540.83 653.022 540.626 653.657 540.219C654.3 539.812 654.808 539.275 655.183 538.608C655.565 537.932 655.756 537.204 655.756 536.423ZM669.184 541.342C668.745 541.765 668.22 542.193 667.609 542.624C666.999 543.047 666.283 543.259 665.461 543.259C664.395 543.259 663.508 542.978 662.8 542.417C662.092 541.847 661.571 541.188 661.237 540.439C660.977 539.845 660.818 539.259 660.761 538.681C660.712 538.095 660.688 537.546 660.688 537.033V530.869C660.688 530.535 660.806 530.25 661.042 530.014C661.286 529.77 661.575 529.648 661.909 529.648C662.242 529.648 662.527 529.77 662.763 530.014C663.007 530.25 663.129 530.535 663.129 530.869V537.033C663.129 537.505 663.15 537.949 663.19 538.364C663.239 538.771 663.333 539.129 663.471 539.438C663.634 539.796 663.878 540.118 664.204 540.402C664.529 540.679 664.94 540.817 665.437 540.817C666.641 540.817 667.565 540.358 668.208 539.438C668.859 538.518 669.18 537.277 669.172 535.715L669.16 530.844C669.16 530.511 669.278 530.226 669.514 529.99C669.758 529.746 670.047 529.624 670.38 529.624C670.722 529.624 671.011 529.746 671.247 529.99C671.483 530.226 671.601 530.515 671.601 530.856L671.625 542.075C671.625 542.408 671.532 542.697 671.345 542.941C671.166 543.177 670.909 543.295 670.576 543.295C670.242 543.295 669.986 543.177 669.807 542.941C669.628 542.697 669.489 542.408 669.392 542.075L669.184 541.342ZM673.505 536.411C673.505 535.507 673.664 534.649 673.981 533.835C674.299 533.021 674.746 532.297 675.324 531.662C675.902 531.027 676.573 530.527 677.338 530.161C678.111 529.794 678.95 529.611 679.853 529.611C680.748 529.611 681.558 529.786 682.282 530.136C683.015 530.478 683.641 530.934 684.162 531.503C684.691 532.065 685.086 532.679 685.346 533.347C685.403 533.485 685.432 533.64 685.432 533.811C685.432 534.144 685.31 534.433 685.065 534.677C684.829 534.913 684.545 535.031 684.211 535.031C683.983 535.031 683.759 534.954 683.54 534.799C683.32 534.645 683.165 534.458 683.076 534.238C682.848 533.652 682.449 533.143 681.879 532.712C681.318 532.272 680.642 532.053 679.853 532.053C679.112 532.053 678.445 532.26 677.851 532.675C677.265 533.082 676.801 533.615 676.459 534.274C676.118 534.934 675.947 535.646 675.947 536.411C675.947 537.184 676.122 537.912 676.472 538.596C676.822 539.271 677.302 539.82 677.912 540.244C678.522 540.659 679.21 540.866 679.975 540.866C680.724 540.866 681.371 540.679 681.916 540.305C682.461 539.922 682.872 539.479 683.149 538.974C683.247 538.795 683.401 538.645 683.613 538.522C683.824 538.392 684.032 538.327 684.235 538.327C684.569 538.327 684.854 538.449 685.09 538.693C685.334 538.929 685.456 539.214 685.456 539.548C685.456 539.751 685.403 539.951 685.297 540.146C684.833 541 684.142 541.741 683.222 542.368C682.303 542.994 681.22 543.308 679.975 543.308C679.047 543.308 678.189 543.125 677.399 542.758C676.618 542.384 675.935 541.875 675.349 541.232C674.771 540.59 674.319 539.857 673.994 539.035C673.668 538.205 673.505 537.33 673.505 536.411ZM693.781 529.562C694.383 529.562 694.969 529.685 695.539 529.929C696.117 530.165 696.63 530.466 697.077 530.832C697.533 531.19 697.871 531.56 698.09 531.943L698.225 530.771C698.225 530.437 698.322 530.153 698.518 529.917C698.713 529.672 698.977 529.55 699.311 529.55C699.645 529.55 699.93 529.672 700.166 529.917C700.41 530.153 700.532 530.437 700.532 530.771V530.795L700.507 542.099C700.507 542.433 700.385 542.722 700.141 542.966C699.905 543.202 699.62 543.32 699.287 543.32C698.953 543.32 698.688 543.202 698.493 542.966C698.298 542.722 698.2 542.433 698.2 542.099L698.066 541.123C697.643 541.847 697.024 542.388 696.21 542.746C695.397 543.096 694.579 543.271 693.757 543.271C692.837 543.271 691.975 543.092 691.169 542.734C690.363 542.368 689.655 541.867 689.045 541.232C688.435 540.598 687.954 539.869 687.604 539.047C687.263 538.225 687.092 537.359 687.092 536.447C687.092 535.544 687.259 534.681 687.592 533.859C687.934 533.029 688.406 532.293 689.008 531.65C689.619 530.999 690.327 530.49 691.132 530.124C691.946 529.75 692.829 529.562 693.781 529.562ZM697.993 536.423C697.993 535.625 697.806 534.893 697.431 534.226C697.065 533.558 696.564 533.021 695.93 532.614C695.295 532.207 694.571 532.004 693.757 532.004C692.959 532.004 692.239 532.207 691.596 532.614C690.953 533.021 690.445 533.562 690.07 534.238C689.696 534.905 689.509 535.629 689.509 536.411C689.509 537.2 689.7 537.932 690.083 538.608C690.465 539.275 690.978 539.812 691.621 540.219C692.272 540.626 692.988 540.83 693.769 540.83C694.55 540.83 695.258 540.626 695.893 540.219C696.536 539.812 697.045 539.275 697.419 538.608C697.801 537.932 697.993 537.204 697.993 536.423ZM702.363 536.423C702.363 535.503 702.534 534.608 702.875 533.737C703.217 532.867 703.722 532.097 704.389 531.43C704.983 530.852 705.667 530.405 706.44 530.087C707.213 529.77 708.015 529.611 708.845 529.611C709.691 529.611 710.444 529.79 711.103 530.148C711.762 530.507 712.352 530.991 712.873 531.601V526.462C712.873 526.128 712.991 525.843 713.227 525.607C713.471 525.363 713.76 525.241 714.094 525.241C714.427 525.241 714.712 525.363 714.948 525.607C715.192 525.843 715.314 526.128 715.314 526.462V542.05C715.314 542.384 715.192 542.673 714.948 542.917C714.712 543.153 714.427 543.271 714.094 543.271C713.76 543.271 713.508 543.153 713.337 542.917C713.174 542.673 713.068 542.384 713.02 542.05L712.873 541.062C712.409 541.729 711.795 542.254 711.03 542.636C710.273 543.019 709.516 543.21 708.759 543.21C707.84 543.21 706.989 543.027 706.208 542.661C705.435 542.294 704.759 541.798 704.182 541.171C703.604 540.537 703.156 539.812 702.839 538.999C702.521 538.185 702.363 537.326 702.363 536.423ZM708.735 540.769C709.264 540.769 709.789 540.651 710.31 540.415C710.83 540.179 711.274 539.861 711.64 539.462C712.006 539.056 712.287 538.579 712.482 538.034C712.686 537.489 712.788 536.931 712.788 536.362C712.788 535.581 712.617 534.86 712.275 534.201C711.933 533.542 711.461 533.013 710.859 532.614C710.265 532.215 709.577 532.016 708.796 532.016C708.031 532.016 707.343 532.228 706.733 532.651C706.131 533.066 705.655 533.611 705.305 534.287C704.963 534.954 704.792 535.666 704.792 536.423C704.792 537.18 704.963 537.892 705.305 538.559C705.646 539.218 706.114 539.751 706.708 540.158C707.311 540.565 707.986 540.769 708.735 540.769ZM723.847 529.624C724.783 529.624 725.654 529.803 726.459 530.161C727.273 530.519 727.985 531.015 728.596 531.65C729.206 532.285 729.682 533.013 730.024 533.835C730.374 534.657 730.549 535.532 730.549 536.459C730.549 537.371 730.374 538.238 730.024 539.06C729.674 539.873 729.19 540.594 728.571 541.22C727.961 541.839 727.249 542.327 726.435 542.685C725.629 543.043 724.767 543.222 723.847 543.222C722.936 543.222 722.073 543.047 721.259 542.697C720.454 542.347 719.742 541.863 719.123 541.245C718.513 540.626 718.033 539.91 717.683 539.096C717.333 538.274 717.158 537.395 717.158 536.459C717.158 535.532 717.333 534.657 717.683 533.835C718.033 533.013 718.513 532.289 719.123 531.662C719.742 531.027 720.454 530.531 721.259 530.173C722.065 529.807 722.928 529.624 723.847 529.624ZM719.624 536.484C719.624 537.273 719.815 537.993 720.197 538.645C720.588 539.287 721.105 539.8 721.748 540.183C722.39 540.565 723.094 540.756 723.859 540.756C724.641 540.756 725.349 540.561 725.983 540.17C726.626 539.772 727.135 539.247 727.509 538.596C727.892 537.945 728.083 537.233 728.083 536.459C728.083 535.67 727.896 534.946 727.521 534.287C727.147 533.619 726.639 533.086 725.996 532.688C725.361 532.289 724.645 532.089 723.847 532.089C723.042 532.089 722.321 532.293 721.687 532.7C721.052 533.098 720.547 533.632 720.173 534.299C719.807 534.958 719.624 535.686 719.624 536.484ZM740.461 531.162C740.461 531.813 740.148 532.175 739.521 532.248C739.293 532.272 739.004 532.199 738.654 532.028C738.304 531.849 737.95 531.76 737.592 531.76C736.884 531.76 736.323 531.943 735.908 532.309C735.493 532.667 735.196 533.151 735.017 533.762C734.838 534.372 734.748 535.056 734.748 535.812V542.111C734.748 542.469 734.638 542.754 734.418 542.966C734.207 543.177 733.91 543.283 733.527 543.283C733.153 543.283 732.856 543.177 732.636 542.966C732.417 542.754 732.307 542.465 732.307 542.099V530.856C732.307 530.49 732.396 530.189 732.575 529.953C732.762 529.717 733.015 529.599 733.332 529.599C733.519 529.599 733.735 529.681 733.979 529.843C734.231 529.998 734.406 530.266 734.504 530.649L734.626 531.528C734.732 531.3 734.935 531.035 735.236 530.734C735.537 530.433 735.896 530.173 736.311 529.953C736.726 529.725 737.157 529.611 737.604 529.611C738.435 529.611 739.118 529.709 739.655 529.904C740.192 530.091 740.461 530.511 740.461 531.162Z" fill="#576273"/>
<path d="M405.011 623.458C405.011 622.261 405.223 621.11 405.646 620.003C406.077 618.896 406.684 617.911 407.465 617.049C408.254 616.178 409.19 615.49 410.272 614.986C411.363 614.481 412.567 614.229 413.886 614.229C415.098 614.229 416.197 614.396 417.182 614.729C418.174 615.063 419.102 615.535 419.965 616.146C420.315 616.382 420.49 616.707 420.49 617.122C420.49 617.448 420.368 617.732 420.124 617.977C419.888 618.213 419.603 618.331 419.269 618.331C419.009 618.331 418.769 618.253 418.549 618.099C417.914 617.667 417.198 617.326 416.4 617.073C415.603 616.813 414.785 616.683 413.947 616.683C412.995 616.683 412.12 616.866 411.322 617.232C410.533 617.59 409.845 618.086 409.259 618.721C408.681 619.348 408.23 620.064 407.904 620.87C407.587 621.675 407.428 622.522 407.428 623.409C407.428 624.621 407.693 625.7 408.222 626.644C408.759 627.588 409.503 628.328 410.456 628.865C411.416 629.402 412.531 629.671 413.8 629.671C414.5 629.671 415.192 629.602 415.875 629.463C416.567 629.325 417.198 629.166 417.768 628.987L417.731 624.825H414.008C413.674 624.825 413.385 624.707 413.141 624.471C412.905 624.227 412.787 623.938 412.787 623.604C412.787 623.27 412.905 622.986 413.141 622.75C413.385 622.505 413.674 622.383 414.008 622.383H418.952C419.285 622.383 419.57 622.501 419.806 622.737C420.05 622.973 420.172 623.258 420.172 623.592L420.221 629.83V629.842C420.221 630.07 420.148 630.289 420.001 630.501C419.855 630.713 419.672 630.859 419.452 630.94C418.671 631.25 417.808 631.526 416.864 631.771C415.92 632.007 414.927 632.125 413.886 632.125C412.177 632.125 410.651 631.754 409.308 631.014C407.973 630.273 406.924 629.252 406.159 627.95C405.394 626.648 405.011 625.15 405.011 623.458ZM431.073 630.342C430.634 630.765 430.109 631.193 429.499 631.624C428.888 632.047 428.172 632.259 427.35 632.259C426.284 632.259 425.397 631.978 424.689 631.417C423.981 630.847 423.46 630.188 423.126 629.439C422.866 628.845 422.707 628.259 422.65 627.681C422.602 627.095 422.577 626.546 422.577 626.033V619.869C422.577 619.535 422.695 619.25 422.931 619.014C423.175 618.77 423.464 618.648 423.798 618.648C424.132 618.648 424.416 618.77 424.652 619.014C424.896 619.25 425.019 619.535 425.019 619.869V626.033C425.019 626.505 425.039 626.949 425.08 627.364C425.128 627.771 425.222 628.129 425.36 628.438C425.523 628.796 425.767 629.118 426.093 629.402C426.418 629.679 426.829 629.817 427.326 629.817C428.53 629.817 429.454 629.358 430.097 628.438C430.748 627.518 431.069 626.277 431.061 624.715L431.049 619.844C431.049 619.511 431.167 619.226 431.403 618.99C431.647 618.746 431.936 618.624 432.27 618.624C432.611 618.624 432.9 618.746 433.136 618.99C433.372 619.226 433.49 619.515 433.49 619.856L433.515 631.075C433.515 631.408 433.421 631.697 433.234 631.941C433.055 632.177 432.799 632.295 432.465 632.295C432.131 632.295 431.875 632.177 431.696 631.941C431.517 631.697 431.378 631.408 431.281 631.075L431.073 630.342ZM442.267 618.562C442.869 618.562 443.455 618.685 444.025 618.929C444.603 619.165 445.115 619.466 445.563 619.832C446.019 620.19 446.356 620.56 446.576 620.943L446.71 619.771C446.71 619.437 446.808 619.153 447.003 618.917C447.199 618.672 447.463 618.55 447.797 618.55C448.131 618.55 448.415 618.672 448.651 618.917C448.896 619.153 449.018 619.437 449.018 619.771V619.795L448.993 631.099C448.993 631.433 448.871 631.722 448.627 631.966C448.391 632.202 448.106 632.32 447.772 632.32C447.439 632.32 447.174 632.202 446.979 631.966C446.784 631.722 446.686 631.433 446.686 631.099L446.552 630.123C446.129 630.847 445.51 631.388 444.696 631.746C443.882 632.096 443.065 632.271 442.243 632.271C441.323 632.271 440.46 632.092 439.655 631.734C438.849 631.368 438.141 630.867 437.531 630.232C436.92 629.598 436.44 628.869 436.09 628.047C435.749 627.225 435.578 626.359 435.578 625.447C435.578 624.544 435.744 623.681 436.078 622.859C436.42 622.029 436.892 621.293 437.494 620.65C438.104 619.999 438.812 619.49 439.618 619.124C440.432 618.75 441.315 618.562 442.267 618.562ZM446.479 625.423C446.479 624.625 446.291 623.893 445.917 623.226C445.551 622.558 445.05 622.021 444.416 621.614C443.781 621.207 443.056 621.004 442.243 621.004C441.445 621.004 440.725 621.207 440.082 621.614C439.439 622.021 438.931 622.562 438.556 623.238C438.182 623.905 437.995 624.629 437.995 625.411C437.995 626.2 438.186 626.932 438.568 627.608C438.951 628.275 439.464 628.812 440.106 629.219C440.757 629.626 441.474 629.83 442.255 629.83C443.036 629.83 443.744 629.626 444.379 629.219C445.022 628.812 445.53 628.275 445.905 627.608C446.287 626.932 446.479 626.204 446.479 625.423ZM459.552 620.162C459.552 620.813 459.239 621.175 458.612 621.248C458.384 621.272 458.096 621.199 457.746 621.028C457.396 620.849 457.042 620.76 456.684 620.76C455.976 620.76 455.414 620.943 454.999 621.309C454.584 621.667 454.287 622.151 454.108 622.762C453.929 623.372 453.839 624.056 453.839 624.812V631.111C453.839 631.469 453.729 631.754 453.51 631.966C453.298 632.177 453.001 632.283 452.619 632.283C452.244 632.283 451.947 632.177 451.728 631.966C451.508 631.754 451.398 631.465 451.398 631.099V619.856C451.398 619.49 451.487 619.189 451.667 618.953C451.854 618.717 452.106 618.599 452.423 618.599C452.611 618.599 452.826 618.681 453.07 618.843C453.323 618.998 453.498 619.266 453.595 619.649L453.717 620.528C453.823 620.3 454.027 620.035 454.328 619.734C454.629 619.433 454.987 619.173 455.402 618.953C455.817 618.725 456.248 618.611 456.696 618.611C457.526 618.611 458.209 618.709 458.747 618.904C459.284 619.091 459.552 619.511 459.552 620.162ZM459.857 625.423C459.857 624.503 460.028 623.608 460.37 622.737C460.712 621.867 461.216 621.097 461.884 620.43C462.478 619.852 463.161 619.405 463.935 619.087C464.708 618.77 465.509 618.611 466.339 618.611C467.186 618.611 467.938 618.79 468.598 619.148C469.257 619.507 469.847 619.991 470.368 620.601V615.462C470.368 615.128 470.486 614.843 470.722 614.607C470.966 614.363 471.255 614.241 471.588 614.241C471.922 614.241 472.207 614.363 472.443 614.607C472.687 614.843 472.809 615.128 472.809 615.462V631.05C472.809 631.384 472.687 631.673 472.443 631.917C472.207 632.153 471.922 632.271 471.588 632.271C471.255 632.271 471.002 632.153 470.832 631.917C470.669 631.673 470.563 631.384 470.514 631.05L470.368 630.062C469.904 630.729 469.289 631.254 468.524 631.636C467.768 632.019 467.011 632.21 466.254 632.21C465.334 632.21 464.484 632.027 463.703 631.661C462.93 631.294 462.254 630.798 461.676 630.171C461.098 629.537 460.651 628.812 460.333 627.999C460.016 627.185 459.857 626.326 459.857 625.423ZM466.229 629.769C466.758 629.769 467.283 629.651 467.804 629.415C468.325 629.179 468.769 628.861 469.135 628.462C469.501 628.056 469.782 627.579 469.977 627.034C470.181 626.489 470.282 625.931 470.282 625.362C470.282 624.581 470.111 623.86 469.77 623.201C469.428 622.542 468.956 622.013 468.354 621.614C467.759 621.215 467.072 621.016 466.291 621.016C465.526 621.016 464.838 621.228 464.228 621.651C463.625 622.066 463.149 622.611 462.799 623.287C462.458 623.954 462.287 624.666 462.287 625.423C462.287 626.18 462.458 626.892 462.799 627.559C463.141 628.218 463.609 628.751 464.203 629.158C464.805 629.565 465.481 629.769 466.229 629.769ZM476.52 617.366C476.146 617.366 475.84 617.252 475.604 617.024C475.368 616.788 475.246 616.5 475.238 616.158L475.214 615.23C475.214 614.921 475.352 614.673 475.629 614.485C475.906 614.29 476.17 614.192 476.422 614.192C476.764 614.192 477.049 614.31 477.277 614.546C477.513 614.782 477.635 615.067 477.643 615.401L477.655 616.133C477.655 616.451 477.549 616.736 477.338 616.988C477.126 617.24 476.854 617.366 476.52 617.366ZM475.202 619.673C475.202 619.364 475.332 619.112 475.592 618.917C475.853 618.721 476.105 618.624 476.349 618.624C476.707 618.624 477.012 618.729 477.265 618.941C477.517 619.153 477.643 619.433 477.643 619.783V619.795L477.667 631.099C477.667 631.425 477.545 631.701 477.301 631.929C477.065 632.157 476.78 632.271 476.447 632.271C476.105 632.271 475.816 632.157 475.58 631.929C475.344 631.693 475.226 631.412 475.226 631.087L475.202 619.673ZM490.265 611.36C490.639 611.36 490.937 611.491 491.156 611.751C491.376 612.011 491.486 612.296 491.486 612.605C491.486 612.923 491.372 613.2 491.144 613.436L487.189 617.098C486.863 617.448 486.554 617.623 486.261 617.623C486.058 617.623 485.867 617.533 485.688 617.354C485.508 617.175 485.419 616.988 485.419 616.792C485.419 616.508 485.582 616.202 485.907 615.877L489.374 611.751C489.61 611.491 489.907 611.36 490.265 611.36ZM486.432 618.562C487.034 618.562 487.62 618.685 488.19 618.929C488.768 619.165 489.28 619.466 489.728 619.832C490.184 620.19 490.521 620.56 490.741 620.943L490.875 619.771C490.875 619.437 490.973 619.153 491.168 618.917C491.364 618.672 491.628 618.55 491.962 618.55C492.296 618.55 492.58 618.672 492.816 618.917C493.061 619.153 493.183 619.437 493.183 619.771V619.795L493.158 631.099C493.158 631.433 493.036 631.722 492.792 631.966C492.556 632.202 492.271 632.32 491.938 632.32C491.604 632.32 491.339 632.202 491.144 631.966C490.949 631.722 490.851 631.433 490.851 631.099L490.717 630.123C490.294 630.847 489.675 631.388 488.861 631.746C488.048 632.096 487.23 632.271 486.408 632.271C485.488 632.271 484.625 632.092 483.82 631.734C483.014 631.368 482.306 630.867 481.696 630.232C481.085 629.598 480.605 628.869 480.255 628.047C479.914 627.225 479.743 626.359 479.743 625.447C479.743 624.544 479.91 623.681 480.243 622.859C480.585 622.029 481.057 621.293 481.659 620.65C482.27 619.999 482.978 619.49 483.783 619.124C484.597 618.75 485.48 618.562 486.432 618.562ZM490.644 625.423C490.644 624.625 490.456 623.893 490.082 623.226C489.716 622.558 489.215 622.021 488.581 621.614C487.946 621.207 487.222 621.004 486.408 621.004C485.61 621.004 484.89 621.207 484.247 621.614C483.604 622.021 483.096 622.562 482.721 623.238C482.347 623.905 482.16 624.629 482.16 625.411C482.16 626.2 482.351 626.932 482.733 627.608C483.116 628.275 483.629 628.812 484.271 629.219C484.923 629.626 485.639 629.83 486.42 629.83C487.201 629.83 487.909 629.626 488.544 629.219C489.187 628.812 489.695 628.275 490.07 627.608C490.452 626.932 490.644 626.204 490.644 625.423ZM498.004 620.552C498.444 620.121 498.969 619.694 499.579 619.271C500.198 618.847 500.914 618.636 501.728 618.636C502.794 618.636 503.681 618.921 504.389 619.49C505.097 620.052 505.618 620.707 505.951 621.456C506.212 622.05 506.366 622.64 506.415 623.226C506.472 623.803 506.5 624.349 506.5 624.861V631.026C506.5 631.36 506.378 631.648 506.134 631.893C505.898 632.129 505.613 632.247 505.28 632.247C504.946 632.247 504.657 632.129 504.413 631.893C504.177 631.648 504.059 631.36 504.059 631.026V624.861C504.059 624.381 504.035 623.938 503.986 623.531C503.945 623.124 503.856 622.766 503.717 622.457C503.563 622.098 503.323 621.781 502.997 621.504C502.672 621.22 502.257 621.077 501.752 621.077C500.548 621.077 499.62 621.537 498.969 622.457C498.326 623.376 498.008 624.617 498.017 626.18L498.029 631.05C498.029 631.384 497.907 631.673 497.663 631.917C497.427 632.153 497.142 632.271 496.808 632.271C496.466 632.271 496.177 632.153 495.941 631.917C495.705 631.673 495.587 631.38 495.587 631.038L495.563 619.82C495.563 619.486 495.653 619.201 495.832 618.965C496.019 618.721 496.279 618.599 496.613 618.599C496.946 618.599 497.203 618.721 497.382 618.965C497.561 619.201 497.699 619.486 497.797 619.82L498.004 620.552Z" fill="#576273"/>
<path d="M382.883 800.957V800.798L382.871 793.755C382.871 793.421 382.989 793.136 383.225 792.9C383.461 792.664 383.742 792.542 384.067 792.534L387.278 792.473C387.457 792.465 387.632 792.461 387.803 792.461C387.974 792.461 388.14 792.461 388.303 792.461C389.198 792.461 390.069 792.559 390.916 792.754C391.762 792.949 392.519 793.25 393.186 793.657C393.861 794.064 394.395 794.593 394.785 795.244C395.184 795.887 395.383 796.66 395.383 797.563C395.383 798.735 394.98 799.744 394.175 800.591C394.744 801.006 395.208 801.555 395.566 802.239C395.924 802.914 396.104 803.7 396.104 804.595C396.104 805.75 395.855 806.727 395.359 807.524C394.862 808.314 394.179 808.916 393.308 809.331C392.437 809.746 391.436 809.966 390.305 809.99L384.141 810.002H384.116C383.783 810.002 383.494 809.884 383.25 809.648C383.014 809.404 382.896 809.115 382.896 808.782L382.883 800.957ZM392.942 797.637C392.942 796.896 392.69 796.331 392.185 795.94C391.689 795.541 391.062 795.269 390.305 795.122C389.556 794.976 388.8 794.902 388.035 794.902C387.921 794.902 387.803 794.906 387.681 794.915C387.559 794.915 387.441 794.915 387.327 794.915L385.312 794.951L385.325 799.651L390.024 799.578C390.521 799.569 390.989 799.513 391.428 799.407C391.876 799.293 392.238 799.097 392.515 798.821C392.799 798.536 392.942 798.141 392.942 797.637ZM390.256 807.549C391.347 807.533 392.185 807.301 392.771 806.853C393.365 806.397 393.662 805.624 393.662 804.534C393.662 803.565 393.341 802.906 392.698 802.556C392.055 802.198 391.233 802.019 390.232 802.019H390.073L385.325 802.092L385.337 807.537L390.256 807.549ZM406.992 808.342C406.553 808.765 406.028 809.193 405.417 809.624C404.807 810.047 404.091 810.259 403.269 810.259C402.203 810.259 401.316 809.978 400.608 809.417C399.9 808.847 399.379 808.188 399.045 807.439C398.785 806.845 398.626 806.259 398.569 805.681C398.521 805.095 398.496 804.546 398.496 804.033V797.869C398.496 797.535 398.614 797.25 398.85 797.014C399.094 796.77 399.383 796.648 399.717 796.648C400.05 796.648 400.335 796.77 400.571 797.014C400.815 797.25 400.938 797.535 400.938 797.869V804.033C400.938 804.505 400.958 804.949 400.999 805.364C401.047 805.771 401.141 806.129 401.279 806.438C401.442 806.796 401.686 807.118 402.012 807.402C402.337 807.679 402.748 807.817 403.245 807.817C404.449 807.817 405.373 807.358 406.016 806.438C406.667 805.518 406.988 804.277 406.98 802.715L406.968 797.844C406.968 797.511 407.086 797.226 407.322 796.99C407.566 796.746 407.855 796.624 408.188 796.624C408.53 796.624 408.819 796.746 409.055 796.99C409.291 797.226 409.409 797.515 409.409 797.856L409.434 809.075C409.434 809.408 409.34 809.697 409.153 809.941C408.974 810.177 408.717 810.295 408.384 810.295C408.05 810.295 407.794 810.177 407.615 809.941C407.436 809.697 407.297 809.408 407.2 809.075L406.992 808.342ZM411.008 798.003C411.008 797.767 411.102 797.539 411.289 797.319C411.484 797.091 411.72 796.978 411.997 796.978L413.804 796.965V796.807C413.828 795.431 414.137 794.353 414.731 793.572C415.326 792.791 416.29 792.412 417.625 792.437L418.967 792.461C419.301 792.461 419.586 792.583 419.822 792.827C420.058 793.063 420.176 793.348 420.176 793.682C420.176 794.015 420.058 794.296 419.822 794.524C419.586 794.752 419.297 794.866 418.955 794.866L417.588 794.67C417.165 794.67 416.855 794.736 416.66 794.866C416.473 794.988 416.351 795.208 416.294 795.525C416.245 795.842 416.225 796.294 416.233 796.88L416.245 796.99L418.711 797.002C419.036 797.002 419.309 797.112 419.529 797.332C419.757 797.551 419.871 797.816 419.871 798.125C419.871 798.385 419.765 798.638 419.553 798.882C419.342 799.118 419.102 799.236 418.833 799.236L416.245 799.26L416.27 809.099V809.111C416.27 809.437 416.147 809.714 415.903 809.941C415.667 810.161 415.382 810.271 415.049 810.271C414.715 810.271 414.426 810.161 414.182 809.941C413.946 809.714 413.828 809.437 413.828 809.111V809.099L413.804 799.236L412.168 799.224C411.842 799.224 411.566 799.11 411.338 798.882C411.118 798.654 411.008 798.361 411.008 798.003ZM431.565 789.373C431.939 789.373 432.236 789.503 432.456 789.763C432.676 790.024 432.786 790.308 432.786 790.618C432.786 790.935 432.672 791.212 432.444 791.448L428.489 795.11C428.163 795.46 427.854 795.635 427.561 795.635C427.358 795.635 427.166 795.545 426.987 795.366C426.808 795.187 426.719 795 426.719 794.805C426.719 794.52 426.882 794.215 427.207 793.889L430.674 789.763C430.91 789.503 431.207 789.373 431.565 789.373ZM427.793 796.624C428.729 796.624 429.6 796.803 430.405 797.161C431.219 797.519 431.931 798.015 432.542 798.65C433.152 799.285 433.628 800.013 433.97 800.835C434.32 801.657 434.495 802.532 434.495 803.459C434.495 804.371 434.32 805.238 433.97 806.06C433.62 806.873 433.136 807.594 432.517 808.22C431.907 808.839 431.195 809.327 430.381 809.685C429.575 810.043 428.713 810.222 427.793 810.222C426.882 810.222 426.019 810.047 425.205 809.697C424.399 809.347 423.687 808.863 423.069 808.245C422.458 807.626 421.978 806.91 421.628 806.096C421.278 805.274 421.104 804.395 421.104 803.459C421.104 802.532 421.278 801.657 421.628 800.835C421.978 800.013 422.458 799.289 423.069 798.662C423.687 798.027 424.399 797.531 425.205 797.173C426.011 796.807 426.873 796.624 427.793 796.624ZM423.569 803.484C423.569 804.273 423.761 804.993 424.143 805.645C424.534 806.287 425.05 806.8 425.693 807.183C426.336 807.565 427.04 807.756 427.805 807.756C428.586 807.756 429.294 807.561 429.929 807.17C430.572 806.772 431.081 806.247 431.455 805.596C431.838 804.945 432.029 804.233 432.029 803.459C432.029 802.67 431.842 801.946 431.467 801.287C431.093 800.619 430.584 800.086 429.941 799.688C429.307 799.289 428.59 799.089 427.793 799.089C426.987 799.089 426.267 799.293 425.632 799.7C424.998 800.098 424.493 800.632 424.119 801.299C423.752 801.958 423.569 802.686 423.569 803.484ZM438.694 798.552C439.133 798.121 439.658 797.694 440.269 797.271C440.887 796.847 441.603 796.636 442.417 796.636C443.483 796.636 444.37 796.921 445.078 797.49C445.786 798.052 446.307 798.707 446.641 799.456C446.901 800.05 447.056 800.64 447.104 801.226C447.161 801.803 447.19 802.349 447.19 802.861V809.026C447.19 809.36 447.068 809.648 446.824 809.893C446.588 810.129 446.303 810.247 445.969 810.247C445.636 810.247 445.347 810.129 445.103 809.893C444.867 809.648 444.749 809.36 444.749 809.026V802.861C444.749 802.381 444.724 801.938 444.675 801.531C444.635 801.124 444.545 800.766 444.407 800.457C444.252 800.098 444.012 799.781 443.687 799.504C443.361 799.22 442.946 799.077 442.441 799.077C441.237 799.077 440.309 799.537 439.658 800.457C439.015 801.376 438.698 802.617 438.706 804.18L438.718 809.05C438.718 809.384 438.596 809.673 438.352 809.917C438.116 810.153 437.831 810.271 437.498 810.271C437.156 810.271 436.867 810.153 436.631 809.917C436.395 809.673 436.277 809.38 436.277 809.038L436.252 797.82C436.252 797.486 436.342 797.201 436.521 796.965C436.708 796.721 436.969 796.599 437.302 796.599C437.636 796.599 437.892 796.721 438.071 796.965C438.25 797.201 438.389 797.486 438.486 797.82L438.694 798.552Z" fill="#576273"/>
<path d="M382.619 304.971C382.708 304.768 382.859 304.597 383.07 304.458C383.29 304.312 383.514 304.239 383.742 304.239C383.961 304.239 384.181 304.312 384.401 304.458C384.629 304.597 384.783 304.768 384.865 304.971L391.579 320.547C391.652 320.71 391.688 320.877 391.688 321.048C391.688 321.382 391.566 321.67 391.322 321.915C391.086 322.151 390.801 322.269 390.468 322.269C390.24 322.269 390.016 322.195 389.796 322.049C389.577 321.902 389.422 321.727 389.333 321.524L387.245 316.678L380.287 316.58L378.151 321.536C378.069 321.74 377.919 321.915 377.699 322.061C377.479 322.216 377.256 322.293 377.028 322.293C376.694 322.293 376.405 322.175 376.161 321.939C375.925 321.695 375.807 321.406 375.807 321.072C375.807 320.901 375.844 320.735 375.917 320.572L382.619 304.971ZM383.742 308.548L381.337 314.151L386.183 314.212L383.742 308.548ZM394.606 304.19C394.997 304.19 395.31 304.32 395.546 304.581C395.782 304.833 395.896 305.11 395.888 305.411V321.133C395.888 321.459 395.757 321.723 395.497 321.927C395.245 322.122 394.993 322.22 394.74 322.22C394.39 322.22 394.085 322.106 393.825 321.878C393.572 321.65 393.446 321.357 393.446 320.999V305.411C393.446 305.101 393.556 304.821 393.776 304.568C394.004 304.316 394.28 304.19 394.606 304.19ZM399.525 307.376C399.151 307.376 398.846 307.262 398.61 307.034C398.374 306.798 398.252 306.509 398.244 306.167L398.219 305.24C398.219 304.931 398.358 304.682 398.634 304.495C398.911 304.3 399.175 304.202 399.428 304.202C399.77 304.202 400.054 304.32 400.282 304.556C400.518 304.792 400.64 305.077 400.648 305.411L400.661 306.143C400.661 306.46 400.555 306.745 400.343 306.998C400.132 307.25 399.859 307.376 399.525 307.376ZM398.207 309.683C398.207 309.374 398.337 309.122 398.598 308.926C398.858 308.731 399.11 308.633 399.354 308.633C399.713 308.633 400.018 308.739 400.27 308.951C400.522 309.162 400.648 309.443 400.648 309.793V309.805L400.673 321.109C400.673 321.434 400.551 321.711 400.307 321.939C400.071 322.167 399.786 322.281 399.452 322.281C399.11 322.281 398.821 322.167 398.585 321.939C398.349 321.703 398.231 321.422 398.231 321.097L398.207 309.683ZM409.438 308.572C410.04 308.572 410.626 308.694 411.195 308.938C411.773 309.174 412.286 309.476 412.733 309.842C413.189 310.2 413.527 310.57 413.747 310.953L413.881 309.781C413.881 309.447 413.979 309.162 414.174 308.926C414.369 308.682 414.634 308.56 414.967 308.56C415.301 308.56 415.586 308.682 415.822 308.926C416.066 309.162 416.188 309.447 416.188 309.781V309.805L416.164 321.109C416.164 321.443 416.042 321.731 415.797 321.976C415.561 322.212 415.277 322.33 414.943 322.33C414.609 322.33 414.345 322.212 414.149 321.976C413.954 321.731 413.856 321.443 413.856 321.109L413.722 320.132C413.299 320.857 412.681 321.398 411.867 321.756C411.053 322.106 410.235 322.281 409.413 322.281C408.493 322.281 407.631 322.102 406.825 321.744C406.02 321.377 405.312 320.877 404.701 320.242C404.091 319.607 403.611 318.879 403.261 318.057C402.919 317.235 402.748 316.368 402.748 315.457C402.748 314.554 402.915 313.691 403.249 312.869C403.59 312.039 404.062 311.303 404.665 310.66C405.275 310.009 405.983 309.5 406.789 309.134C407.602 308.759 408.485 308.572 409.438 308.572ZM413.649 315.433C413.649 314.635 413.462 313.903 413.087 313.235C412.721 312.568 412.221 312.031 411.586 311.624C410.951 311.217 410.227 311.014 409.413 311.014C408.616 311.014 407.895 311.217 407.252 311.624C406.61 312.031 406.101 312.572 405.727 313.248C405.352 313.915 405.165 314.639 405.165 315.42C405.165 316.21 405.356 316.942 405.739 317.618C406.121 318.285 406.634 318.822 407.277 319.229C407.928 319.636 408.644 319.839 409.425 319.839C410.207 319.839 410.915 319.636 411.549 319.229C412.192 318.822 412.701 318.285 413.075 317.618C413.458 316.942 413.649 316.214 413.649 315.433ZM418.019 315.433C418.019 314.513 418.19 313.618 418.532 312.747C418.874 311.876 419.378 311.107 420.045 310.44C420.639 309.862 421.323 309.415 422.096 309.097C422.869 308.78 423.671 308.621 424.501 308.621C425.347 308.621 426.1 308.8 426.759 309.158C427.418 309.516 428.008 310 428.529 310.611V305.472C428.529 305.138 428.647 304.853 428.883 304.617C429.127 304.373 429.416 304.251 429.75 304.251C430.084 304.251 430.368 304.373 430.604 304.617C430.849 304.853 430.971 305.138 430.971 305.472V321.06C430.971 321.394 430.849 321.683 430.604 321.927C430.368 322.163 430.084 322.281 429.75 322.281C429.416 322.281 429.164 322.163 428.993 321.927C428.83 321.683 428.725 321.394 428.676 321.06L428.529 320.071C428.065 320.739 427.451 321.264 426.686 321.646C425.929 322.028 425.172 322.22 424.416 322.22C423.496 322.22 422.646 322.037 421.864 321.67C421.091 321.304 420.416 320.808 419.838 320.181C419.26 319.546 418.812 318.822 418.495 318.008C418.178 317.194 418.019 316.336 418.019 315.433ZM424.391 319.778C424.92 319.778 425.445 319.66 425.966 319.424C426.487 319.188 426.93 318.871 427.296 318.472C427.663 318.065 427.943 317.589 428.139 317.044C428.342 316.499 428.444 315.941 428.444 315.372C428.444 314.59 428.273 313.87 427.931 313.211C427.589 312.552 427.117 312.023 426.515 311.624C425.921 311.225 425.233 311.026 424.452 311.026C423.687 311.026 423 311.237 422.389 311.661C421.787 312.076 421.311 312.621 420.961 313.296C420.619 313.964 420.448 314.676 420.448 315.433C420.448 316.189 420.619 316.902 420.961 317.569C421.303 318.228 421.771 318.761 422.365 319.168C422.967 319.575 423.642 319.778 424.391 319.778ZM439.503 308.633C440.439 308.633 441.31 308.812 442.116 309.17C442.93 309.528 443.642 310.025 444.252 310.66C444.862 311.294 445.338 312.023 445.68 312.845C446.03 313.667 446.205 314.542 446.205 315.469C446.205 316.381 446.03 317.247 445.68 318.069C445.33 318.883 444.846 319.603 444.228 320.23C443.617 320.848 442.905 321.337 442.091 321.695C441.286 322.053 440.423 322.232 439.503 322.232C438.592 322.232 437.729 322.057 436.916 321.707C436.11 321.357 435.398 320.873 434.779 320.254C434.169 319.636 433.689 318.92 433.339 318.106C432.989 317.284 432.814 316.405 432.814 315.469C432.814 314.542 432.989 313.667 433.339 312.845C433.689 312.023 434.169 311.299 434.779 310.672C435.398 310.037 436.11 309.541 436.916 309.183C437.721 308.816 438.584 308.633 439.503 308.633ZM435.28 315.494C435.28 316.283 435.471 317.003 435.854 317.654C436.244 318.297 436.761 318.81 437.404 319.192C438.047 319.575 438.751 319.766 439.516 319.766C440.297 319.766 441.005 319.571 441.64 319.18C442.283 318.781 442.791 318.257 443.166 317.605C443.548 316.954 443.739 316.242 443.739 315.469C443.739 314.68 443.552 313.956 443.178 313.296C442.803 312.629 442.295 312.096 441.652 311.697C441.017 311.299 440.301 311.099 439.503 311.099C438.698 311.099 437.978 311.303 437.343 311.709C436.708 312.108 436.203 312.641 435.829 313.309C435.463 313.968 435.28 314.696 435.28 315.494Z" fill="#576273"/>
</svg>
