<svg width="43" height="37" viewBox="0 0 43 37" fill="none" xmlns="http://www.w3.org/2000/svg">
<path d="M34.1757 36.0961C31.317 36.0961 29.0343 35.0081 27.3277 32.8321C25.621 30.6134 24.7677 27.9468 24.7677 24.8321C24.7677 19.6268 25.941 14.9761 28.2877 10.8801C30.677 6.74143 34.1117 3.11476 38.5917 9.15527e-05L41.1517 3.77609C38.7623 5.61076 36.821 7.55209 35.3277 9.6001C33.877 11.6481 33.1517 13.4401 33.1517 14.9761C33.1517 16.4268 33.6423 17.5361 34.6237 18.3041C35.605 19.0721 36.7357 19.7761 38.0157 20.4161C39.3383 21.0561 40.4904 21.8881 41.4717 22.9121C42.453 23.9361 42.9437 25.4294 42.9437 27.3921C42.9437 29.8668 42.1117 31.9361 40.4477 33.6001C38.7837 35.2641 36.693 36.0961 34.1757 36.0961ZM9.34368 36.0961C6.52768 36.0961 4.26635 35.0081 2.55968 32.8321C0.853013 30.6134 -0.000319958 27.9468 -0.000319958 24.8321C-0.000319958 19.6268 1.17301 14.9761 3.51968 10.8801C5.86635 6.74143 9.27968 3.11476 13.7597 9.15527e-05L16.3197 3.77609C13.9303 5.61076 11.989 7.55209 10.4957 9.6001C9.00235 11.6481 8.25568 13.4401 8.25568 14.9761C8.25568 16.4268 8.74635 17.5361 9.72768 18.3041C10.7517 19.0721 11.9037 19.7761 13.1837 20.4161C14.4637 21.0561 15.5943 21.8881 16.5757 22.9121C17.5997 23.9361 18.1117 25.4294 18.1117 27.3921C18.1117 29.8668 17.2797 31.9361 15.6157 33.6001C13.9517 35.2641 11.861 36.0961 9.34368 36.0961Z" fill="white"/>
</svg>
