<?xml version="1.0" encoding="UTF-8"?>
<svg id="Capa_3" xmlns="http://www.w3.org/2000/svg" version="1.1" xmlns:xlink="http://www.w3.org/1999/xlink" viewBox="0 0 1258 603">
  <!-- Generator: Adobe Illustrator 29.8.5, SVG Export Plug-In . SVG Version: 2.1.1 Build 2)  -->
  <defs>
    <style>
      .st0 {
        fill: #fff;
      }

      .st1 {
        fill: #f9f2e8;
        stroke: #ce9130;
      }

      .st1, .st2, .st3 {
        stroke-width: 2px;
      }

      .st4, .st2, .st3 {
        fill: none;
      }

      .st2 {
        stroke: #fdfbf7;
        stroke-dasharray: 4 4;
      }

      .st3 {
        stroke: #fff;
      }

      .st5 {
        clip-path: url(#clippath);
      }
    </style>
    <clipPath id="clippath">
      <rect class="st4" x="1053.86" y="445.08" width="38.05" height="97.12" transform="translate(-71.18 200.58) rotate(-10.34)"/>
    </clipPath>
  </defs>
  <path class="st3" d="M18.56,30.76c5.47-2.65,11.4-2.05,17.31.26,5.92,2.32,11.71,6.31,16.81,10.26h0c36.51,28.27,73.01,56.55,109.52,84.83,36.51,28.28,73.01,56.56,109.52,84.83h0c3.83,2.96,7.81,6.34,10.68,10.14,2.77,3.67,4.45,7.65,4.06,11.96l-.04.42c-.75,6.19-5.17,10.23-11.27,12.79-6.11,2.57-13.73,3.56-20.44,3.72h0l-124.52,2.93h0c-7.14.17-15.65,1.03-24.75,1.96-9.11.93-18.83,1.94-28.44,2.43-19.3.99-37.91-.14-50.27-7.93-10.22-6.44-16.68-18.43-20.57-33.68-3.88-15.23-5.16-33.55-5.14-52.42.02-18.86,1.34-38.22,2.62-55.52,1.28-17.27,2.52-32.54,2.37-43.14v-.23s-.05-.09-.05-.09c-.06-6.44.3-13.47,2.07-19.57,1.79-6.16,4.98-11.26,10.54-13.93h0Z"/>
  <path class="st2" d="M170.14,177.72c1.09.85,2.19,1.7,3.28,2.56h0s-.62.79-.62.79c1.09.85,2.19,1.7,3.28,2.56l.62-.79h0c1.09.85,2.19,1.7,3.28,2.56h0s-.62.79-.62.79c1.09.85,2.19,1.7,3.28,2.56l.62-.79h0c1.09.85,2.18,1.7,3.28,2.55h0s-.61.79-.61.79c1.09.85,2.19,1.71,3.28,2.56l.61-.79h0c1.09.85,2.19,1.7,3.28,2.56h0s-.62.79-.62.79c.55.43,1.09.85,1.64,1.28h0c.49.38.99.79,1.45,1.21l.68-.74c1,.93,1.89,1.98,2.32,3.15l-.94.34c.18.48.24.97.18,1.48-.09.73-.4,1.32-.89,1.8l.7.71c-1.16,1.16-3.02,1.78-4.92,2.09l-.16-.99c-.65.1-1.3.17-1.94.2l-.63.02-2.1.05.02,1-4.19.1-.02-1-4.19.1.02,1-4.19.1-.02-1-4.2.1.02,1-4.19.1-.02-1-4.19.1.02,1-4.19.1-.02-1-2.1.05c-.58.01-1.19.04-1.82.09l.07,1h0c-1.11.07-2.3.18-3.54.31l-.1-.99c-1.15.12-2.32.24-3.54.36l.1.99c-1.16.11-2.35.23-3.54.32l-.07-1c-1.18.09-2.35.15-3.51.18l.02,1c-1.21.03-2.4.02-3.56-.04l.05-1c-1.19-.06-2.33-.19-3.4-.39l-.18.98c-1.22-.23-2.37-.55-3.41-1l.39-.92c-.51-.22-.99-.47-1.43-.75h0c-.47-.3-.9-.64-1.31-1.03l-.69.72c-.87-.83-1.61-1.83-2.24-2.97l.88-.48c-.53-.97-.99-2.06-1.38-3.26l-.95.31c-.37-1.13-.67-2.35-.92-3.62l.98-.19c-.22-1.15-.4-2.36-.54-3.61l-.99.11c-.13-1.21-.23-2.46-.3-3.73l1-.05c-.06-1.21-.1-2.45-.11-3.7h-1c-.01-1.23,0-2.48.03-3.73l1,.02c.03-1.24.07-2.48.12-3.71l-1-.04c.05-1.13.11-2.25.18-3.36l.02-.37,1,.06c.08-1.26.16-2.51.25-3.72l-1-.07c.09-1.28.18-2.53.27-3.73h0l1,.07c.1-1.31.19-2.56.26-3.74l-1-.06h0c.09-1.36.15-2.61.18-3.74h0s1,.03,1,.03c.02-.67.03-1.31.02-1.9v-.23s-.01-.02-.01-.02c0-.76.01-1.55.08-2.33l-1-.08c.15-1.84.56-3.66,1.49-5.03l.82.56c.41-.6.92-1.07,1.58-1.39h0c.65-.32,1.33-.43,2.04-.39l.06-1c1.63.09,3.29.87,4.82,1.85l-.54.84c.71.46,1.4.96,2.05,1.47.55.43,1.09.85,1.64,1.28l.61-.79c1.09.85,2.19,1.71,3.28,2.56l-.62.79c1.09.85,2.19,1.71,3.28,2.56l.61-.79c1.09.85,2.19,1.7,3.28,2.56l-.61.79c1.09.85,2.19,1.71,3.28,2.56l.61-.79c1.09.85,2.19,1.7,3.28,2.56l-.61.79c1.09.85,2.19,1.7,3.28,2.56l.61-.79c1.09.85,2.19,1.71,3.28,2.56l-.61.79c1.09.85,2.19,1.7,3.28,2.56l.61-.79h0c1.09.85,2.18,1.7,3.28,2.56h0l-.61.79c1.09.85,2.19,1.7,3.28,2.56l.61-.79ZM122.69,157.41h0s.01-.02.01-.02h.03l-.04.02Z"/>
  <path class="st1" d="M133.2,393.45c1.22-.6,2.59-.49,4.08.09,1.49.59,2.99,1.62,4.35,2.68,9.84,7.67,19.67,15.34,29.51,23.01,9.84,7.67,19.68,15.34,29.51,23.01h0c1.02.8,2.03,1.67,2.74,2.61.71.94,1.06,1.87.94,2.83-.16,1.32-1.08,2.24-2.6,2.89-1.53.64-3.48.91-5.24.95l-33.56.79c-1.96.05-4.28.28-6.73.54-2.46.25-5.06.52-7.63.66-5.2.27-10-.06-13.12-2.04h0c-2.52-1.6-4.2-4.64-5.23-8.7-1.03-4.05-1.37-8.95-1.36-14.04,0-5.09.36-10.32.71-15.01.34-4.67.68-8.85.64-11.77v-.23s-.01-.02-.01-.02c0-1.68.1-3.43.53-4.94.45-1.56,1.21-2.72,2.46-3.32h0Z"/>
  <path class="st0" d="M51.73,188.64c-.13.43-1.55.64-4.24.64s-4.2-.12-4.52-.36c-.11-.08-.16-.17-.16-.28l6.68-19.6h-8.12c-.8,0-1.2-1.29-1.2-3.88,0-.88.08-1.73.24-2.56.19-.83.49-1.24.92-1.24l14-.04c1.07,0,1.93.59,2.6,1.76.32.59.55,1.17.68,1.76l-6.88,23.8ZM60.01,186.52c0-.75.19-1.59.56-2.52.37-.96.73-1.72,1.08-2.28.35-.59.55-.88.6-.88,1.55.93,3.17,1.4,4.88,1.4,1.07,0,1.92-.21,2.56-.64.67-.43,1-1.01,1-1.76s-.31-1.27-.92-1.48c-.59-.21-1.53-.36-2.84-.44h-1.44c-.32,0-.63-.39-.92-1.16-.27-.8-.4-1.57-.4-2.32,0-1.25.37-1.89,1.12-1.92l1.16-.04c.72,0,1.47-.2,2.24-.6.8-.43,1.2-.96,1.2-1.6,0-1.12-1-1.68-3-1.68-1.49,0-2.93.29-4.32.88-1.2-2.16-1.8-3.84-1.8-5.04s.84-2.15,2.52-2.76c1.71-.61,3.84-.92,6.4-.92s4.56.53,6,1.6c1.44,1.07,2.16,2.52,2.16,4.36,0,3.23-1.39,5.71-4.16,7.44,3.36,1.36,5.04,3.67,5.04,6.92,0,2.53-.89,4.59-2.68,6.16-1.79,1.55-4.35,2.32-7.68,2.32-2.11,0-4.03-.29-5.76-.88-1.73-.61-2.6-1.33-2.6-2.16Z"/>
  <path class="st0" d="M40.01,224.48c0-.29.1-.54.31-.74.21-.21.47-.31.76-.31h8.75s.01-.01.01-.01c.29,0,.54.11.75.32.21.21.32.46.32.75s-.11.55-.32.76c-.21.21-.46.31-.75.31h-7.69s.01,3.92.01,3.92l5.6-.05h.12c.29,0,.52.11.7.34.18.23.27.45.27.67,0,.31-.1.58-.3.8-.2.22-.46.33-.77.33l-5.6.05v6.25s.01.02.01.02c0,.29-.11.53-.32.74-.21.21-.46.31-.75.31s-.55-.1-.76-.31c-.21-.21-.31-.46-.31-.74h0s-.03-13.43-.03-13.43ZM53.89,238.94c-.29,0-.55-.1-.76-.31-.21-.21-.31-.47-.31-.76v-13.44c-.01-.27.09-.52.29-.74.2-.22.44-.33.72-.33.33,0,.6.1.81.31.21.2.32.46.32.76v13.44c.01.29-.1.55-.31.76-.21.21-.46.31-.75.31ZM69.87,233.13c.26,0,.49.1.7.31.21.2.32.43.32.68,0,.2-.04.37-.11.52-.36.79-.87,1.52-1.53,2.2-.65.67-1.43,1.21-2.33,1.62-.9.41-1.92.61-3.04.61s-2.11-.21-3.01-.63c-.9-.42-1.66-1-2.3-1.73-.63-.74-1.12-1.58-1.46-2.54-.34-.96-.5-1.97-.5-3.04s.17-2.06.52-3.01c.34-.95.83-1.79,1.47-2.52.64-.74,1.4-1.32,2.29-1.74.89-.42,1.88-.63,2.96-.63s2.1.2,3,.59c.9.39,1.68.91,2.34,1.56.67.64,1.19,1.35,1.56,2.13.08.15.12.31.12.47,0,.26-.1.51-.29.73-.19.21-.4.32-.66.32s-.47-.05-.67-.15c-.19-.11-.34-.26-.44-.47-.4-.83-1.03-1.54-1.89-2.14-.85-.6-1.88-.89-3.07-.89-1.04,0-1.94.26-2.71.79-.76.53-1.35,1.24-1.76,2.12-.42.87-.62,1.83-.62,2.87s.2,2,.61,2.88c.42.87,1,1.57,1.76,2.1.77.52,1.68.78,2.73.78.79,0,1.51-.14,2.16-.43.66-.29,1.23-.68,1.71-1.16.48-.48.85-.99,1.1-1.55.19-.43.54-.65,1.04-.65ZM85.23,233.13c.26,0,.49.1.7.31.21.2.32.43.32.68,0,.2-.04.37-.11.52-.36.79-.87,1.52-1.53,2.2-.65.67-1.43,1.21-2.33,1.62-.9.41-1.92.61-3.04.61s-2.11-.21-3.01-.63c-.9-.42-1.66-1-2.3-1.73-.63-.74-1.12-1.58-1.46-2.54-.34-.96-.5-1.97-.5-3.04s.17-2.06.52-3.01c.34-.95.83-1.79,1.47-2.52.64-.74,1.4-1.32,2.29-1.74.89-.42,1.88-.63,2.96-.63s2.1.2,3,.59c.9.39,1.68.91,2.34,1.56.67.64,1.19,1.35,1.56,2.13.08.15.12.31.12.47,0,.26-.1.51-.29.73-.19.21-.4.32-.66.32s-.47-.05-.67-.15c-.19-.11-.34-.26-.44-.47-.4-.83-1.03-1.54-1.89-2.14-.85-.6-1.88-.89-3.07-.89-1.04,0-1.94.26-2.71.79-.76.53-1.35,1.24-1.76,2.12-.42.87-.62,1.83-.62,2.87s.2,2,.61,2.88c.42.87,1,1.57,1.76,2.1.77.52,1.68.78,2.73.78.79,0,1.51-.14,2.16-.43.66-.29,1.23-.68,1.71-1.16.48-.48.84-.99,1.1-1.55.19-.43.54-.65,1.04-.65ZM88.93,238.94c-.29,0-.55-.1-.76-.31-.21-.21-.31-.47-.31-.76v-13.44c-.01-.27.09-.52.29-.74.2-.22.44-.33.72-.33.33,0,.6.1.81.31.21.2.32.46.32.76v13.44c.01.29-.1.55-.31.76-.21.21-.46.31-.75.31ZM96.93,229.78c0-.18.06-.35.18-.51.13-.16.29-.23.48-.23.15,0,.28.04.4.11l1.96,1.19-.03-1.49v-.12c0-.17.08-.31.23-.42.16-.11.32-.17.46-.17.19,0,.35.07.49.21.14.14.2.3.2.48l.03,1.49,1.86-1.19c.13-.08.26-.12.41-.12.16,0,.31.06.45.19.15.12.22.27.22.44,0,.3-.11.52-.33.66l-1.98,1.27,1.97,1.19c.22.14.34.32.34.56,0,.18-.06.35-.18.51-.12.15-.28.23-.48.23-.14,0-.27-.04-.4-.11l-1.85-1.12.04,1.97v.12c0,.17-.08.31-.24.42-.16.11-.31.17-.45.17-.19,0-.35-.07-.49-.21-.14-.14-.21-.31-.21-.49l-.04-1.98-1.98,1.27c-.11.07-.25.11-.41.11-.2,0-.36-.08-.48-.23-.12-.16-.18-.32-.18-.51,0-.23.11-.41.33-.55l2.1-1.35-2.08-1.27c-.23-.14-.34-.33-.34-.56ZM41.36,283.86c-.29,0-.55-.1-.76-.31-.21-.21-.31-.47-.31-.76,0-.36.11-.74.33-1.13.22-.39.5-.77.83-1.14.33-.37.66-.71,1-1.02.34-.31.62-.56.85-.76.45-.39.94-.76,1.46-1.1.52-.34,1.02-.7,1.48-1.08.47-.38.86-.81,1.15-1.29.3-.49.45-1.06.45-1.73,0-.52-.12-.99-.35-1.41-.24-.42-.56-.74-.96-.99-.4-.25-.85-.38-1.35-.38-.62,0-1.16.2-1.61.59-.44.39-.72.84-.83,1.34-.05.23-.18.43-.39.6-.2.17-.43.26-.68.26-.29,0-.55-.1-.76-.31-.21-.21-.31-.46-.31-.74,0-.53.13-1.03.4-1.49.26-.47.62-.89,1.05-1.25.44-.36.94-.64,1.48-.84.54-.21,1.1-.31,1.67-.31.93,0,1.75.22,2.47.65.72.43,1.29,1.01,1.7,1.75.42.74.62,1.56.62,2.47s-.18,1.76-.55,2.44c-.37.68-.83,1.27-1.39,1.78-.56.5-1.14.96-1.73,1.36-.59.41-1.12.81-1.59,1.21-.52.46-.97.93-1.36,1.41h6.28c.29,0,.54.11.75.32.21.21.32.46.32.75s-.11.55-.32.76c-.21.21-.46.31-.75.31h-8.29ZM58.58,284.1c-1,0-1.87-.21-2.59-.63-.72-.43-1.31-1.01-1.77-1.73-.46-.73-.8-1.54-1.02-2.44-.21-.9-.32-1.83-.32-2.77s.11-1.92.33-2.83c.23-.91.58-1.72,1.05-2.43.48-.72,1.09-1.28,1.84-1.7.74-.42,1.64-.62,2.67-.62.98.02,1.82.25,2.52.68.71.42,1.29.99,1.74,1.7.45.71.78,1.5,1,2.38.21.88.32,1.79.32,2.73,0,.99-.11,1.94-.33,2.86-.22.91-.57,1.73-1.03,2.45-.47.72-1.06,1.3-1.79,1.72-.73.42-1.6.63-2.62.63ZM58.62,281.95c.85,0,1.54-.26,2.06-.77.53-.52.92-1.21,1.16-2.05.24-.85.37-1.78.37-2.77,0-.93-.13-1.79-.38-2.59-.24-.8-.63-1.45-1.15-1.93s-1.2-.73-2.03-.73-1.54.25-2.07.75c-.54.49-.93,1.15-1.18,1.96-.25.82-.38,1.71-.38,2.69s.12,1.88.37,2.71c.25.82.64,1.49,1.17,1.99.53.5,1.22.75,2.06.75ZM67.59,283.86c-.29,0-.55-.1-.76-.31-.21-.21-.31-.47-.31-.76,0-.36.11-.74.33-1.13.22-.39.5-.77.83-1.14.33-.37.66-.71,1-1.02.34-.31.62-.56.85-.76.45-.39.94-.76,1.46-1.1.52-.34,1.02-.7,1.48-1.08.47-.38.86-.81,1.15-1.29.3-.49.45-1.06.45-1.73,0-.52-.12-.99-.35-1.41-.24-.42-.56-.74-.96-.99-.4-.25-.85-.38-1.35-.38-.62,0-1.16.2-1.61.59-.44.39-.72.84-.83,1.34-.05.23-.18.43-.39.6-.2.17-.43.26-.68.26-.29,0-.55-.1-.76-.31-.21-.21-.31-.46-.31-.74,0-.53.13-1.03.4-1.49.26-.47.62-.89,1.05-1.25.44-.36.94-.64,1.48-.84.54-.21,1.1-.31,1.67-.31.93,0,1.75.22,2.47.65.72.43,1.29,1.01,1.7,1.75.42.74.62,1.56.62,2.47s-.18,1.76-.55,2.44c-.37.68-.83,1.27-1.39,1.78-.56.5-1.14.96-1.73,1.36-.59.41-1.12.81-1.59,1.21-.52.46-.97.93-1.36,1.41h6.28c.29,0,.54.11.75.32.21.21.32.46.32.75s-.11.55-.32.76c-.21.21-.46.31-.75.31h-8.29ZM80.18,283.86c-.29,0-.55-.1-.76-.31-.21-.21-.31-.47-.31-.76,0-.36.11-.74.33-1.13.22-.39.5-.77.83-1.14.33-.37.66-.71,1-1.02.34-.31.62-.56.85-.76.45-.39.94-.76,1.46-1.1.52-.34,1.02-.7,1.48-1.08.47-.38.86-.81,1.15-1.29.3-.49.45-1.06.45-1.73,0-.52-.12-.99-.35-1.41-.24-.42-.56-.74-.96-.99-.4-.25-.85-.38-1.35-.38-.62,0-1.16.2-1.61.59-.44.39-.72.84-.83,1.34-.05.23-.18.43-.39.6-.2.17-.43.26-.68.26-.29,0-.55-.1-.76-.31-.21-.21-.31-.46-.31-.74,0-.53.13-1.03.4-1.49.26-.47.62-.89,1.05-1.25.44-.36.94-.64,1.48-.84.54-.21,1.1-.31,1.67-.31.93,0,1.75.22,2.47.65.72.43,1.29,1.01,1.7,1.75.42.74.62,1.56.62,2.47s-.18,1.76-.55,2.44c-.37.68-.83,1.27-1.39,1.78-.56.5-1.14.96-1.73,1.36-.59.41-1.12.81-1.59,1.21-.52.46-.97.93-1.36,1.41h6.28c.29,0,.54.11.75.32.21.21.32.46.32.75s-.11.55-.32.76c-.21.21-.46.31-.75.31h-8.29Z"/>
  <path class="st0" d="M153.64,467.85c-.29,0-.55-.13-.77-.38-.23-.26-.34-.53-.34-.8s.07-.54.22-.81c.15-.28.39-.45.7-.51.32-.07.65-.25.99-.56.35-.31.68-.77,1-1.36.25-.47.61-.71,1.05-.71.36,0,.68.11.95.33.28.21.42.5.42.88v14.04s1.5,0,1.5,0c.3,0,.54.14.74.42.19.27.29.53.29.79,0,.33-.12.61-.36.85s-.52.36-.85.36h-5.48c-.33,0-.61-.12-.85-.36s-.36-.52-.36-.85c0-.25.1-.52.29-.79.19-.28.44-.42.74-.42h1.79v-10.65c-.24.13-.48.26-.74.37-.25.11-.56.17-.93.17ZM169.67,480.65c-1.18,0-2.21-.25-3.06-.75-.86-.51-1.55-1.19-2.09-2.04-.54-.86-.94-1.82-1.21-2.88-.25-1.07-.38-2.16-.38-3.28s.13-2.27.39-3.34c.27-1.08.69-2.03,1.24-2.87.57-.85,1.29-1.51,2.17-2.01.88-.49,1.93-.74,3.16-.74,1.16.03,2.15.29,2.98.8.84.5,1.52,1.17,2.06,2.01.53.84.93,1.78,1.18,2.82.25,1.04.38,2.12.38,3.23,0,1.17-.13,2.29-.39,3.38-.26,1.07-.67,2.04-1.22,2.89-.55.86-1.26,1.53-2.12,2.03-.86.5-1.9.75-3.1.75ZM169.72,478.11c1.01,0,1.82-.3,2.44-.91.63-.62,1.08-1.43,1.37-2.42.29-1.01.43-2.1.43-3.28,0-1.1-.15-2.12-.45-3.06-.29-.95-.74-1.71-1.36-2.28-.62-.58-1.42-.86-2.4-.86s-1.82.3-2.45.89c-.63.58-1.1,1.36-1.4,2.32-.3.96-.44,2.02-.44,3.17s.14,2.22.43,3.2c.3.97.76,1.76,1.38,2.35.63.59,1.44.89,2.44.89Z"/>
  <path d="M161.71,386.23c.39.39,1.02.39,1.41,0l6.36-6.36c.39-.39.39-1.02,0-1.41-.39-.39-1.02-.39-1.41,0l-5.66,5.66-5.66-5.66c-.39-.39-1.02-.39-1.41,0-.39.39-.39,1.02,0,1.41l6.36,6.36ZM162.42,219.37h-1v1.98h2v-1.98h-1ZM162.42,225.3h-1v3.96h2v-3.96h-1ZM162.42,233.21h-1v3.96h2v-3.96h-1ZM162.42,241.12h-1v3.96h2v-3.96h-1ZM162.42,249.04h-1v3.96h2v-3.96h-1ZM162.42,256.95h-1v3.96h2v-3.96h-1ZM162.42,264.86h-1v3.96h2v-3.96h-1ZM162.42,272.77h-1v3.96h2v-3.96h-1ZM162.42,280.69h-1v3.96h2v-3.96h-1ZM162.42,288.6h-1v3.96h2v-3.96h-1ZM162.42,296.51h-1v3.96h2v-3.96h-1ZM162.42,304.42h-1v3.96h2v-3.96h-1ZM162.42,312.33h-1v3.96h2v-3.96h-1ZM162.42,320.25h-1v3.96h2v-3.96h-1ZM162.42,328.16h-1v3.96h2v-3.96h-1ZM162.42,336.07h-1v3.96h2v-3.96h-1ZM162.42,343.98h-1v3.96h2v-3.96h-1ZM162.42,351.89h-1v3.96h2v-3.96h-1ZM162.42,359.81h-1v3.96h2v-3.96h-1ZM162.42,367.72h-1v3.96h2v-3.96h-1ZM162.42,375.63h-1v3.96h2v-3.96h-1ZM162.42,383.54h-1v1.98h2v-1.98h-1Z"/>
  <path class="st3" d="M525.75,114.88c2.88-1.41,6.03-1.11,9.24.16,2.82,1.11,5.6,2.93,8.14,4.85l1.07.82c20.25,15.81,40.49,31.62,60.74,47.43,20.25,15.81,40.49,31.62,60.74,47.43h0c2.12,1.65,4.28,3.51,5.84,5.59,1.45,1.94,2.31,3.98,2.18,6.17l-.04.44c-.39,3.24-2.68,5.4-5.98,6.8-3.32,1.4-7.48,1.96-11.17,2.04l-69.06,1.64c-3.98.1-8.72.58-13.76,1.1-5.06.52-10.43,1.08-15.75,1.36-10.7.55-20.9-.09-27.62-4.36-5.53-3.51-9.07-10.09-11.22-18.57-2.14-8.47-2.85-18.67-2.84-29.21.01-10.53.74-21.34,1.45-31.01.71-9.65,1.4-18.21,1.32-24.16v-.23s-.02-.05-.02-.05c-.03-3.56.17-7.4,1.13-10.72.97-3.38,2.69-6.1,5.61-7.51h0Z"/>
  <path class="st0" d="M532.18,188.03c0-.75.19-1.59.56-2.52.37-.96.73-1.72,1.08-2.28.35-.59.55-.88.6-.88,1.55.93,3.17,1.4,4.88,1.4,1.07,0,1.92-.21,2.56-.64.67-.43,1-1.01,1-1.76s-.31-1.27-.92-1.48c-.59-.21-1.53-.36-2.84-.44h-1.44c-.32,0-.63-.39-.92-1.16-.27-.8-.4-1.57-.4-2.32,0-1.25.37-1.89,1.12-1.92l1.16-.04c.72,0,1.47-.2,2.24-.6.8-.43,1.2-.96,1.2-1.6,0-1.12-1-1.68-3-1.68-1.49,0-2.93.29-4.32.88-1.2-2.16-1.8-3.84-1.8-5.04s.84-2.15,2.52-2.76c1.71-.61,3.84-.92,6.4-.92s4.56.53,6,1.6c1.44,1.07,2.16,2.52,2.16,4.36,0,3.23-1.39,5.71-4.16,7.44,3.36,1.36,5.04,3.67,5.04,6.92,0,2.53-.89,4.59-2.68,6.16-1.79,1.55-4.35,2.32-7.68,2.32-2.11,0-4.03-.29-5.76-.88-1.73-.61-2.6-1.33-2.6-2.16ZM553.31,188.03c0-.75.19-1.59.56-2.52.37-.96.73-1.72,1.08-2.28.35-.59.55-.88.6-.88,1.55.93,3.17,1.4,4.88,1.4,1.07,0,1.92-.21,2.56-.64.67-.43,1-1.01,1-1.76s-.31-1.27-.92-1.48c-.59-.21-1.53-.36-2.84-.44h-1.44c-.32,0-.63-.39-.92-1.16-.27-.8-.4-1.57-.4-2.32,0-1.25.37-1.89,1.12-1.92l1.16-.04c.72,0,1.47-.2,2.24-.6.8-.43,1.2-.96,1.2-1.6,0-1.12-1-1.68-3-1.68-1.49,0-2.93.29-4.32.88-1.2-2.16-1.8-3.84-1.8-5.04s.84-2.15,2.52-2.76c1.71-.61,3.84-.92,6.4-.92s4.56.53,6,1.6c1.44,1.07,2.16,2.52,2.16,4.36,0,3.23-1.39,5.71-4.16,7.44,3.36,1.36,5.04,3.67,5.04,6.92,0,2.53-.89,4.59-2.68,6.16-1.79,1.55-4.35,2.32-7.68,2.32-2.11,0-4.03-.29-5.76-.88-1.73-.61-2.6-1.33-2.6-2.16Z"/>
  <path class="st0" d="M529.84,229.71c-.28,0-.52-.1-.73-.3-.2-.2-.3-.45-.3-.73l-.03-12.72c0-.06-.01-.12-.01-.18,0-.1.02-.19.06-.28.05-.09.1-.18.16-.28.16-.27.4-.4.71-.4.49,0,.83.19,1.01.57l5.49,8.95,5.08-8.96c.21-.34.48-.51.83-.51.29,0,.55.1.77.29.22.19.33.44.33.74v12.83c0,.28-.1.52-.31.73-.2.2-.44.3-.72.3s-.52-.1-.73-.3c-.2-.2-.3-.45-.3-.73v-9.17l-4.03,7.32c-.07.12-.19.24-.35.36-.16.11-.33.16-.51.16-.4,0-.7-.16-.91-.49l-4.52-7.39.03,9.16h0c0,.29-.1.53-.31.74-.2.2-.44.3-.72.3ZM546.06,217.42c-.31,0-.57-.1-.77-.29-.2-.2-.3-.44-.31-.73l-.02-.78c0-.26.12-.47.35-.63.23-.16.45-.25.67-.25.29,0,.53.1.72.3.2.2.3.44.31.72v.61c.01.27-.08.51-.26.72-.18.21-.41.32-.69.32ZM544.95,219.36c0-.26.11-.47.33-.64s.43-.25.64-.25c.3,0,.56.09.77.27.21.18.32.41.32.71h0s.02,9.51.02,9.51c0,.27-.1.51-.31.7-.2.19-.44.29-.72.29s-.53-.1-.73-.29c-.2-.2-.3-.43-.3-.71l-.02-9.59ZM555.82,219.77c0,.55-.26.85-.79.91-.19.02-.43-.04-.73-.18-.29-.15-.59-.22-.89-.22-.59,0-1.07.15-1.41.46-.35.3-.6.71-.75,1.22-.15.51-.23,1.09-.23,1.72v5.29c0,.3-.09.54-.28.72-.18.18-.43.27-.75.27s-.56-.09-.75-.27c-.18-.18-.28-.42-.28-.73v-9.44c0-.31.08-.56.23-.76.16-.2.37-.3.64-.3.16,0,.34.07.54.21.21.13.36.35.44.68l.1.74c.09-.19.26-.41.51-.67.25-.25.55-.47.9-.66.35-.19.71-.29,1.09-.29.7,0,1.27.08,1.72.25.45.16.68.51.68,1.06ZM561.95,218.43c.51,0,1,.1,1.48.31.49.2.92.45,1.29.76.38.3.67.61.85.93l.11-.98c0-.28.08-.52.25-.72.16-.21.39-.31.67-.31s.52.1.72.31c.2.2.31.44.31.72v.02l-.02,9.5c0,.28-.1.52-.31.73-.2.2-.44.3-.72.3s-.5-.1-.67-.3c-.16-.21-.25-.45-.25-.73l-.11-.82c-.36.61-.88,1.06-1.56,1.36-.68.29-1.37.44-2.06.44-.77,0-1.5-.15-2.17-.45-.68-.31-1.27-.73-1.78-1.26-.51-.53-.92-1.15-1.21-1.84-.29-.69-.43-1.42-.43-2.18s.14-1.48.42-2.17c.29-.7.68-1.32,1.19-1.86.51-.55,1.11-.97,1.79-1.28.68-.32,1.42-.47,2.22-.47ZM565.49,224.19c0-.67-.16-1.29-.47-1.85-.31-.56-.73-1.01-1.26-1.35-.53-.34-1.14-.51-1.83-.51s-1.27.17-1.82.51c-.54.34-.97.8-1.28,1.36-.32.56-.47,1.17-.47,1.82s.16,1.28.48,1.85c.32.56.75,1.01,1.29,1.35.55.34,1.15.51,1.8.51s1.25-.17,1.78-.51c.54-.34.97-.79,1.28-1.35.32-.57.48-1.18.48-1.84ZM569.16,224.19c0-.77.14-1.52.43-2.26.29-.73.71-1.38,1.27-1.94.5-.49,1.07-.86,1.72-1.13.65-.27,1.32-.4,2.02-.4s1.34.15,1.9.45c.55.3,1.05.71,1.49,1.22v-4.32c0-.28.1-.52.3-.72.21-.21.45-.31.73-.31s.52.1.72.31c.2.2.31.44.31.72v13.1c0,.28-.1.52-.31.73-.2.2-.44.3-.72.3s-.49-.1-.64-.3c-.14-.21-.23-.45-.27-.73l-.12-.83c-.39.56-.91,1-1.55,1.32-.64.32-1.27.48-1.91.48-.77,0-1.49-.15-2.14-.46-.65-.31-1.22-.72-1.7-1.25-.48-.53-.86-1.14-1.13-1.83-.27-.68-.4-1.4-.4-2.16ZM574.52,227.84c.44,0,.88-.1,1.32-.3.44-.2.81-.46,1.12-.8.31-.34.54-.74.71-1.2.17-.46.26-.93.26-1.4,0-.66-.14-1.26-.43-1.82-.29-.55-.68-1-1.19-1.33-.5-.34-1.08-.5-1.73-.5s-1.22.18-1.73.53c-.51.35-.91.81-1.2,1.37-.29.56-.43,1.16-.43,1.79s.14,1.23.43,1.79c.29.55.68,1,1.18,1.34.51.34,1.07.51,1.7.51ZM587.46,218.43c.51,0,1,.1,1.48.31.48.2.92.45,1.29.76.38.3.67.61.85.93l.11-.98c0-.28.08-.52.25-.72.16-.21.39-.31.67-.31s.52.1.72.31c.21.2.31.44.31.72v.02l-.02,9.5c0,.28-.1.52-.31.73-.2.2-.44.3-.72.3s-.5-.1-.67-.3c-.16-.21-.25-.45-.25-.73l-.11-.82c-.36.61-.88,1.06-1.56,1.36-.68.29-1.37.44-2.06.44-.77,0-1.5-.15-2.17-.45-.68-.31-1.27-.73-1.78-1.26-.51-.53-.92-1.15-1.21-1.84-.29-.69-.43-1.42-.43-2.18s.14-1.48.42-2.17c.29-.7.68-1.32,1.19-1.86.51-.55,1.11-.97,1.78-1.28.68-.32,1.43-.47,2.22-.47ZM591,224.19c0-.67-.16-1.29-.47-1.85-.31-.56-.73-1.01-1.26-1.35-.53-.34-1.14-.51-1.83-.51s-1.28.17-1.82.51c-.54.34-.97.8-1.28,1.36-.31.56-.47,1.17-.47,1.82s.16,1.28.48,1.85c.32.56.75,1.01,1.29,1.35.55.34,1.15.51,1.8.51s1.25-.17,1.78-.51c.54-.34.97-.79,1.28-1.35.32-.57.48-1.18.48-1.84ZM600.33,218.46c.98,0,1.86.21,2.66.65.8.42,1.39,1,1.77,1.72.08.14.12.31.12.49,0,.28-.1.52-.31.73-.2.2-.44.3-.72.3-.17,0-.35-.06-.53-.16-.18-.12-.3-.25-.38-.4-.23-.42-.56-.74-1.01-.95-.45-.21-.99-.32-1.61-.32-.36,0-.77.05-1.23.14-.46.1-.85.25-1.19.46-.34.21-.5.5-.5.86,0,.27.14.48.41.64.28.15.62.27,1.02.35.41.08.82.14,1.23.18.41.03.74.07,1,.09.51.05,1.01.14,1.5.26.49.11.94.27,1.35.49.41.22.74.52.97.89.25.38.37.85.37,1.43,0,.83-.24,1.5-.72,2.03-.48.53-1.09.92-1.83,1.17-.74.25-1.52.38-2.34.38-1.11,0-2.13-.22-3.04-.66-.91-.44-1.58-1.09-2.02-1.94-.08-.16-.12-.32-.12-.48,0-.28.1-.52.3-.72.2-.21.45-.31.73-.31.18,0,.36.06.53.18.18.11.32.24.39.4.27.52.68.9,1.23,1.13.56.23,1.23.35,2,.35.41,0,.83-.04,1.27-.13.45-.1.82-.26,1.12-.48.31-.23.46-.53.46-.92,0-.3-.13-.52-.4-.65-.26-.14-.58-.23-.94-.27-.36-.04-.7-.08-1.02-.11-.6-.06-1.22-.14-1.87-.24-.64-.1-1.24-.26-1.79-.48-.55-.22-.99-.53-1.33-.94-.34-.41-.51-.96-.51-1.64,0-.62.15-1.15.44-1.59.3-.44.7-.81,1.19-1.09.49-.29,1.03-.5,1.61-.64.59-.14,1.17-.21,1.74-.21ZM530.05,274.74c-.28,0-.52-.1-.73-.3-.2-.21-.3-.45-.3-.73,0-.35.11-.71.32-1.08.21-.38.47-.74.79-1.09.31-.35.63-.68.95-.97.32-.29.59-.54.81-.73.43-.38.9-.72,1.39-1.05.5-.33.97-.67,1.41-1.02.45-.36.82-.77,1.1-1.23.29-.46.43-1.01.43-1.65,0-.5-.11-.95-.34-1.34-.23-.4-.53-.71-.91-.94-.38-.24-.81-.36-1.29-.36-.59,0-1.11.19-1.54.56-.42.38-.69.8-.79,1.28-.05.22-.17.41-.37.58-.19.16-.41.25-.65.25-.28,0-.52-.1-.73-.3-.2-.2-.3-.43-.3-.71,0-.51.13-.98.38-1.43.25-.45.59-.85,1-1.19.42-.34.9-.61,1.42-.8.52-.2,1.05-.3,1.59-.3.89,0,1.67.21,2.36.62.69.41,1.23.97,1.62,1.67.4.7.59,1.49.59,2.36s-.17,1.68-.52,2.33c-.35.65-.79,1.22-1.32,1.7-.53.48-1.08.91-1.65,1.3-.57.39-1.07.78-1.52,1.16-.49.44-.93.89-1.3,1.34h6c.28,0,.52.1.72.31.21.2.31.44.31.72s-.1.52-.31.73c-.2.2-.44.3-.72.3h-7.92ZM546.49,274.96c-.96,0-1.78-.2-2.47-.6-.69-.41-1.26-.96-1.69-1.65-.44-.7-.76-1.47-.97-2.33-.21-.86-.31-1.74-.31-2.65s.11-1.84.32-2.7c.22-.87.55-1.64,1.01-2.32.46-.68,1.04-1.22,1.75-1.62.71-.4,1.56-.59,2.55-.59.94.02,1.74.24,2.41.65.68.4,1.23.94,1.66,1.62.43.68.75,1.43.95,2.28.2.84.31,1.71.31,2.6,0,.94-.11,1.85-.32,2.73-.21.87-.54,1.65-.98,2.34-.44.69-1.02,1.24-1.71,1.64-.7.4-1.53.6-2.5.6ZM546.53,272.91c.81,0,1.47-.25,1.97-.74.51-.5.88-1.15,1.11-1.96.23-.81.35-1.7.35-2.65,0-.89-.12-1.71-.36-2.47-.23-.77-.6-1.38-1.1-1.85-.5-.46-1.14-.7-1.94-.7s-1.47.24-1.98.72c-.51.47-.89,1.1-1.13,1.88-.24.78-.36,1.63-.36,2.56s.12,1.79.35,2.58c.24.79.61,1.42,1.12,1.9.51.48,1.16.72,1.97.72ZM555.09,274.74c-.28,0-.52-.1-.73-.3-.2-.21-.3-.45-.3-.73,0-.35.11-.71.32-1.08.21-.38.47-.74.79-1.09.31-.35.63-.68.95-.97.32-.29.59-.54.81-.73.43-.38.89-.72,1.39-1.05.5-.33.97-.67,1.41-1.02.45-.36.82-.77,1.1-1.23.29-.46.43-1.01.43-1.65,0-.5-.11-.95-.34-1.34-.23-.4-.53-.71-.91-.94-.38-.24-.81-.36-1.29-.36-.6,0-1.11.19-1.54.56-.42.38-.69.8-.79,1.28-.05.22-.17.41-.37.58-.19.16-.41.25-.65.25-.28,0-.52-.1-.73-.3-.2-.2-.3-.43-.3-.71,0-.51.13-.98.38-1.43.25-.45.59-.85,1.01-1.19.42-.34.9-.61,1.41-.8.52-.2,1.05-.3,1.59-.3.89,0,1.67.21,2.36.62.69.41,1.23.97,1.62,1.67.4.7.6,1.49.6,2.36s-.17,1.68-.52,2.33c-.35.65-.79,1.22-1.32,1.7-.53.48-1.08.91-1.65,1.3-.57.39-1.07.78-1.52,1.16-.49.44-.93.89-1.3,1.34h6c.28,0,.52.1.72.31.21.2.31.44.31.72s-.1.52-.31.73c-.2.2-.44.3-.72.3h-7.92ZM572.83,264.56c0-.51-.22-.96-.65-1.34-.42-.38-.93-.57-1.51-.57-.46,0-.88.13-1.26.38-.38.25-.63.52-.74.81-.1.25-.23.45-.4.6-.17.15-.41.23-.73.23-.23,0-.44-.1-.64-.29-.2-.2-.3-.41-.3-.62,0-.1,0-.18.02-.25.02-.08.04-.14.05-.18.28-.74.77-1.37,1.46-1.91.7-.54,1.54-.81,2.53-.81.76,0,1.46.17,2.09.52.64.35,1.16.83,1.54,1.43.39.61.58,1.3.58,2.08,0,.6-.13,1.12-.38,1.59-.25.46-.53.86-.86,1.18.48.33.86.75,1.14,1.25.28.51.42,1.09.42,1.75,0,.87-.22,1.64-.67,2.32-.45.67-1.03,1.2-1.75,1.58-.72.38-1.51.57-2.36.57-.92,0-1.73-.22-2.45-.66-.72-.44-1.28-.94-1.7-1.52-.13-.18-.2-.39-.2-.61,0-.28.11-.51.33-.68.23-.17.47-.26.75-.26.32,0,.58.14.79.41.24.31.58.59,1.01.85.43.26.9.39,1.42.39s.97-.11,1.38-.32c.42-.21.76-.5,1.02-.85.26-.36.39-.76.39-1.2,0-.69-.23-1.16-.7-1.42-.47-.26-1.12-.39-1.98-.4-.27,0-.5-.1-.7-.29-.19-.19-.29-.43-.29-.73,0-.38.13-.65.38-.82.25-.18.51-.27.78-.27.63,0,1.15-.16,1.56-.47.41-.32.61-.82.61-1.51Z"/>
  <path class="st2" d="M589.75,170.63c.71.04,1.44.38,2.11.8l-.54.84c.15.09.29.19.43.29l.42.32c.54.42,1.08.83,1.61,1.25l.61-.79h0c1.08.83,2.15,1.66,3.23,2.5l-.61.79c1.08.83,2.15,1.66,3.23,2.5l.61-.79c1.08.83,2.15,1.66,3.23,2.5h0s-.61.79-.61.79l3.23,2.5.61-.79h0c1.08.83,2.15,1.66,3.23,2.5h0s-.61.79-.61.79c1.08.83,2.15,1.66,3.23,2.5l.61-.79h0c1.08.83,2.15,1.66,3.23,2.5h0l-.61.79c.54.42,1.08.83,1.62,1.25h0c.21.16.41.32.6.49l.67-.74c.44.4.83.86,1.01,1.37l-.94.34c.04.1.05.2.05.29v.09s0,0,0,0c-.02.18-.09.32-.23.45l.7.71c-.51.5-1.32.77-2.15.9l-.16-.99c-.35.05-.71.08-1.05.09l-1.84.04.02,1-3.67.09-.02-1-3.67.09.02,1-3.67.09-.02-1-1.84.04h0c-.5.01-1.05.05-1.62.1l.09,1h0c-.96.09-2.02.21-3.1.3l-.09-.99c-1.02.09-2.04.16-3.01.15v1c-1.12,0-2.17-.11-3.09-.37l.27-.96c-.45-.13-.84-.29-1.17-.5l-.14-.1c-.33-.24-.63-.55-.9-.94l-.83.56c-.63-.93-1.05-2.14-1.33-3.52l.98-.19c-.22-1.09-.33-2.31-.38-3.61l-1,.04c-.05-1.24-.03-2.52.02-3.79l1,.04c.05-1.28.13-2.54.22-3.75l-1-.07c.1-1.39.2-2.68.27-3.78h0s1,.06,1,.06c.04-.72.07-1.39.06-1.96v-.23s0,0,0,0c0-.28,0-.56.03-.83l-1-.09c.07-.8.24-1.59.66-2.18l.82.57c.1-.14.21-.25.34-.33l.14-.08h0c.19-.09.39-.13.62-.12l.06-1ZM587.09,174.93h0s0,0,0,0h.01-.02Z"/>
  <path class="st1" d="M589.08,382.94c.34-.17.77-.16,1.34.06.43.17.88.44,1.32.76l.44.33c4.31,3.33,8.61,6.66,12.92,9.99s8.62,6.66,12.92,9.98h0c.44.34.83.68,1.1,1.03.26.34.33.6.3.82h0c-.03.29-.22.56-.8.8-.58.24-1.35.35-2.09.37l-14.69.34h0c-.88.02-1.92.13-2.99.24-1.08.11-2.2.23-3.31.28-2.14.11-3.97-.02-5.18-.66l-.23-.13c-.93-.58-1.61-1.73-2.04-3.44-.43-1.69-.58-3.76-.58-5.95,0-2.18.16-4.43.31-6.47.15-2.01.3-3.86.28-5.15v-.23s0,0,0,0c0-.67.05-1.31.21-1.85.17-.59.43-.92.78-1.09h0Z"/>
  <path class="st0" d="M598.21,427.41c-.34,0-.64-.1-.91-.3-.26-.2-.39-.48-.39-.84l1.35-7.78c.05-.31.19-.57.43-.76.24-.2.51-.3.81-.3h7.77c.31,0,.6.11.86.34.27.23.41.5.41.83,0,.37-.12.69-.36.96-.23.27-.53.41-.91.41h-6.7l-.58,3.29c.77-.33,1.58-.49,2.41-.49,1.19,0,2.27.27,3.22.81.97.54,1.73,1.28,2.3,2.22.57.93.85,1.98.85,3.16s-.29,2.25-.88,3.2c-.57.95-1.35,1.7-2.33,2.25-.97.55-2.07.82-3.28.82-.92,0-1.77-.17-2.54-.49s-1.44-.77-2.02-1.31c-.57-.55-1.01-1.15-1.33-1.79-.09-.18-.13-.39-.13-.62,0-.29.12-.55.37-.77.25-.23.53-.34.82-.34.58,0,.98.23,1.22.69.3.58.77,1.07,1.38,1.49.62.41,1.36.62,2.23.62.74,0,1.41-.16,2.01-.48.59-.33,1.06-.77,1.41-1.33.35-.56.52-1.19.52-1.89,0-1.05-.37-1.92-1.12-2.61-.74-.69-1.7-1.04-2.88-1.04-.59,0-1.18.17-1.75.51-.57.34-.99.69-1.26,1.07-.24.35-.57.52-1,.52Z"/>
  <path d="M608.3,376.59c.39.39,1.02.39,1.41,0l6.36-6.36c.39-.39.39-1.02,0-1.41-.39-.39-1.02-.39-1.41,0l-5.66,5.66-5.66-5.66c-.39-.39-1.02-.39-1.41,0-.39.39-.39,1.02,0,1.41l6.36,6.36ZM609,203.71h-1v1.96h2v-1.96h-1ZM609,209.58h-1v3.91h2v-3.91h-1ZM609,217.4h-1v3.91h2v-3.91h-1ZM609,225.23h-1v3.91h2v-3.91h-1ZM609,233.05h-1v3.91h2v-3.91h-1ZM609,240.88h-1v3.91h2v-3.91h-1ZM609,248.71h-1v3.91h2v-3.91h-1ZM609,256.53h-1v3.91h2v-3.91h-1ZM609,264.36h-1v3.91h2v-3.91h-1ZM609,272.19h-1v3.91h2v-3.91h-1ZM609,280.01h-1v3.91h2v-3.91h-1ZM609,287.84h-1v3.91h2v-3.91h-1ZM609,295.66h-1v3.91h2v-3.91h-1ZM609,303.49h-1v3.91h2v-3.91h-1ZM609,311.32h-1v3.91h2v-3.91h-1ZM609,319.14h-1v3.91h2v-3.91h-1ZM609,326.97h-1v3.91h2v-3.91h-1ZM609,334.79h-1v3.91h2v-3.91h-1ZM609,342.62h-1v3.91h2v-3.91h-1ZM609,350.45h-1v3.91h2v-3.91h-1ZM609,358.27h-1v3.91h2v-3.91h-1ZM609,366.1h-1v3.91h2v-3.91h-1ZM609,373.93h-1v1.96h2v-1.96h-1Z"/>
  <path class="st3" d="M712.77,59.29c4.19-2.03,8.74-1.58,13.31.21,4.58,1.8,9.08,4.9,13.04,7.99h0l170.67,132.56c2.98,2.31,6.06,4.94,8.28,7.88,2.14,2.84,3.42,5.9,3.12,9.19l-.03.32c-.58,4.73-3.93,7.83-8.65,9.82-4.43,1.87-9.9,2.66-14.86,2.86l-.99.03-97.03,2.29c-5.58.13-12.22.8-19.3,1.53-7.1.73-14.66,1.52-22.15,1.9-14.8.76-29.02-.09-38.59-5.88l-.45-.28c-7.89-4.99-12.91-14.29-15.93-26.19-3.02-11.88-4.01-26.17-4-40.91.02-14.73,1.04-29.85,2.04-43.37.99-13.49,1.96-25.43,1.85-33.73v-.23s-.04-.07-.04-.07c-.04-5.02.24-10.46,1.6-15.18,1.38-4.78,3.84-8.7,8.1-10.75h0Z"/>
  <path class="st0" d="M759.17,134.3c-1.07-.59-2.31-.88-3.72-.88-2.48,0-3.89,1.6-4.24,4.8,1.39-.4,2.87-.6,4.44-.6,2.69,0,4.67.71,5.92,2.12,1.28,1.39,1.92,3.29,1.92,5.72,0,2.93-.91,5.27-2.72,7-1.81,1.71-4.27,2.56-7.36,2.56s-5.52-1.12-7.28-3.36c-1.76-2.27-2.64-5.48-2.64-9.64,0-4.85,1.09-8.69,3.28-11.52,2.21-2.85,5.08-4.28,8.6-4.28,4,0,6,.81,6,2.44,0,1.17-.37,2.43-1.12,3.76-.27.59-.63,1.21-1.08,1.88ZM756.57,145.5c0-.83-.25-1.49-.76-2-.51-.53-1.28-.8-2.32-.8s-1.79.19-2.32.56c-.03.35-.04.73-.04,1.16s.04.96.12,1.6c.11.61.37,1.23.8,1.84.45.59,1.04.88,1.76.88,1.84,0,2.76-1.08,2.76-3.24ZM777.86,155.02c-3.33,0-6.07-1.23-8.2-3.68-2.11-2.45-3.16-6.04-3.16-10.76s1.07-8.28,3.2-10.68c2.13-2.43,4.88-3.64,8.24-3.64s6.12,1.2,8.2,3.6c2.08,2.4,3.12,6.01,3.12,10.84s-1.07,8.43-3.2,10.8c-2.11,2.35-4.84,3.52-8.2,3.52ZM777.86,133.94c-1.01,0-1.88.59-2.6,1.76-.69,1.15-1.04,2.79-1.04,4.92s.33,3.77,1,4.92c.69,1.12,1.57,1.68,2.64,1.68s1.97-.57,2.64-1.72c.69-1.15,1.04-2.79,1.04-4.92s-.36-3.77-1.08-4.92c-.69-1.15-1.56-1.72-2.6-1.72Z"/>
  <path class="st0" d="M728.89,200.21c0-.29.1-.54.31-.74.21-.21.47-.31.76-.31h8.76s.01,0,.01,0c.29,0,.54.11.75.32.22.21.32.46.32.75s-.11.55-.32.76c-.21.21-.46.31-.75.31h-7.69s.01,3.92.01,3.92l5.6-.05h.12c.29,0,.52.12.7.34.18.23.27.45.27.67,0,.31-.1.58-.3.81-.2.22-.46.33-.77.33l-5.6.05v6.25s.01.02.01.02c0,.29-.11.53-.32.74-.21.21-.46.31-.75.31s-.55-.1-.76-.31c-.21-.21-.31-.45-.31-.74h0s-.03-13.43-.03-13.43ZM742.77,214.67c-.29,0-.55-.1-.76-.31-.21-.21-.31-.47-.31-.76v-13.44c-.01-.27.09-.52.29-.74.2-.22.44-.33.72-.33.33,0,.6.1.8.31.21.2.32.45.32.76v13.44c.01.29-.1.55-.31.76-.21.21-.46.31-.75.31ZM758.75,208.86c.26,0,.49.1.7.31.22.2.32.43.32.68,0,.2-.04.37-.11.51-.36.79-.87,1.52-1.53,2.2-.65.67-1.43,1.21-2.33,1.62-.9.41-1.92.61-3.04.61s-2.11-.21-3.01-.63c-.89-.42-1.66-1-2.3-1.73-.63-.74-1.12-1.58-1.46-2.53-.34-.96-.51-1.97-.51-3.04s.17-2.06.52-3.01c.34-.95.83-1.79,1.47-2.52.64-.74,1.4-1.32,2.29-1.74.89-.42,1.88-.63,2.96-.63s2.1.2,3,.59c.9.39,1.68.91,2.34,1.56.67.64,1.18,1.35,1.56,2.13.08.15.12.31.12.47,0,.26-.1.51-.29.73-.19.21-.41.32-.66.32s-.47-.05-.67-.15c-.19-.11-.34-.26-.44-.47-.4-.83-1.03-1.54-1.89-2.14-.85-.59-1.88-.89-3.07-.89-1.04,0-1.94.26-2.71.79-.76.53-1.35,1.24-1.76,2.12-.41.87-.62,1.83-.62,2.87s.2,2.01.61,2.88c.42.87,1,1.57,1.76,2.1.77.52,1.68.78,2.73.78.79,0,1.51-.14,2.16-.43.66-.29,1.23-.68,1.71-1.16.48-.48.85-1,1.1-1.55.19-.43.54-.64,1.04-.64ZM774.11,208.86c.26,0,.49.1.7.31.22.2.32.43.32.68,0,.2-.04.37-.11.51-.36.79-.87,1.52-1.53,2.2-.65.67-1.43,1.21-2.33,1.62-.9.41-1.92.61-3.04.61s-2.11-.21-3.01-.63c-.89-.42-1.66-1-2.3-1.73-.63-.74-1.12-1.58-1.46-2.53-.34-.96-.51-1.97-.51-3.04s.17-2.06.52-3.01c.34-.95.83-1.79,1.47-2.52.64-.74,1.4-1.32,2.29-1.74.89-.42,1.88-.63,2.97-.63s2.1.2,3,.59c.9.39,1.68.91,2.34,1.56.67.64,1.18,1.35,1.56,2.13.08.15.12.31.12.47,0,.26-.1.51-.29.73-.19.21-.4.32-.65.32s-.47-.05-.67-.15c-.19-.11-.34-.26-.44-.47-.4-.83-1.03-1.54-1.89-2.14-.85-.59-1.88-.89-3.07-.89-1.04,0-1.94.26-2.71.79-.76.53-1.35,1.24-1.76,2.12-.42.87-.62,1.83-.62,2.87s.2,2.01.61,2.88c.41.87,1,1.57,1.76,2.1.77.52,1.68.78,2.73.78.79,0,1.51-.14,2.16-.43.66-.29,1.23-.68,1.71-1.16.48-.48.84-1,1.1-1.55.19-.43.54-.64,1.04-.64ZM777.81,214.67c-.29,0-.55-.1-.76-.31-.21-.21-.31-.47-.31-.76v-13.44c-.01-.27.09-.52.29-.74.2-.22.44-.33.72-.33.33,0,.6.1.81.31.21.2.32.45.32.76v13.44c.01.29-.1.55-.31.76-.21.21-.46.31-.75.31ZM736.25,259.59c-.29,0-.55-.1-.76-.31-.21-.21-.31-.47-.31-.76,0-.37.11-.74.33-1.13.22-.39.5-.77.83-1.14.33-.37.66-.71,1-1.02.34-.31.62-.56.85-.76.45-.39.94-.76,1.46-1.1.52-.34,1.02-.7,1.48-1.07.47-.38.86-.81,1.15-1.29.3-.49.45-1.06.45-1.73,0-.52-.12-.99-.35-1.41-.24-.42-.55-.75-.96-.99-.4-.25-.85-.38-1.35-.38-.62,0-1.16.2-1.61.59-.44.39-.72.84-.83,1.34-.05.23-.18.43-.39.6-.2.17-.43.26-.68.26-.29,0-.55-.1-.76-.31-.21-.21-.31-.45-.31-.74,0-.53.13-1.03.4-1.49.27-.47.62-.89,1.05-1.25.44-.36.94-.64,1.48-.84.54-.21,1.1-.31,1.66-.31.93,0,1.76.22,2.47.66.72.43,1.29,1.01,1.7,1.75.42.74.62,1.56.62,2.47s-.18,1.76-.55,2.44c-.37.68-.83,1.28-1.39,1.78-.56.5-1.13.96-1.73,1.36-.59.41-1.12.81-1.59,1.21-.52.46-.97.93-1.36,1.41h6.28c.29,0,.54.11.75.32.21.21.32.46.32.75s-.11.55-.32.76c-.21.21-.46.31-.75.31h-8.29ZM753.47,259.83c-1,0-1.86-.21-2.59-.63-.72-.43-1.31-1.01-1.77-1.73-.46-.73-.8-1.54-1.02-2.44-.21-.9-.32-1.83-.32-2.77s.11-1.92.33-2.82c.23-.91.58-1.72,1.05-2.43.48-.72,1.09-1.28,1.84-1.7.74-.42,1.64-.62,2.67-.62.98.02,1.82.25,2.52.68.71.42,1.29.99,1.74,1.7.45.71.78,1.5,1,2.39.22.88.32,1.79.32,2.73,0,.99-.11,1.94-.33,2.86-.22.91-.57,1.73-1.03,2.45-.46.72-1.06,1.3-1.79,1.72-.73.42-1.6.63-2.62.63ZM753.51,257.68c.85,0,1.54-.26,2.06-.77.53-.52.92-1.21,1.16-2.05.24-.85.36-1.78.36-2.77,0-.93-.12-1.79-.38-2.59-.24-.8-.63-1.45-1.15-1.93-.52-.49-1.2-.73-2.03-.73s-1.54.25-2.07.75c-.54.49-.93,1.15-1.18,1.97-.25.82-.38,1.71-.38,2.69s.12,1.88.36,2.71c.25.82.64,1.49,1.17,1.99.53.5,1.22.75,2.06.75ZM762.48,259.59c-.29,0-.55-.1-.76-.31-.21-.21-.31-.47-.31-.76,0-.37.11-.74.33-1.13.22-.39.5-.77.83-1.14.33-.37.66-.71,1-1.02.34-.31.62-.56.85-.76.45-.39.94-.76,1.46-1.1.52-.34,1.02-.7,1.48-1.07.47-.38.86-.81,1.15-1.29.3-.49.45-1.06.45-1.73,0-.52-.12-.99-.35-1.41-.24-.42-.55-.75-.96-.99-.4-.25-.85-.38-1.35-.38-.62,0-1.16.2-1.61.59-.44.39-.72.84-.83,1.34-.05.23-.18.43-.39.6-.2.17-.43.26-.68.26-.29,0-.55-.1-.76-.31-.21-.21-.31-.45-.31-.74,0-.53.13-1.03.4-1.49.26-.47.62-.89,1.05-1.25.44-.36.94-.64,1.48-.84.54-.21,1.1-.31,1.66-.31.93,0,1.75.22,2.47.66.72.43,1.29,1.01,1.7,1.75.41.74.62,1.56.62,2.47s-.18,1.76-.55,2.44c-.37.68-.83,1.28-1.39,1.78-.56.5-1.13.96-1.73,1.36-.59.41-1.12.81-1.59,1.21-.52.46-.97.93-1.36,1.41h6.28c.29,0,.54.11.75.32.22.21.32.46.32.75s-.11.55-.32.76c-.21.21-.46.31-.75.31h-8.29ZM782.1,259.79c-.3,0-.55-.1-.76-.3-.21-.2-.31-.44-.31-.73v-3.18s-5.95-.02-5.95-.02c-.29,0-.54-.1-.75-.3-.21-.21-.32-.45-.32-.74,0-.26.08-.49.22-.69l6.99-8.46c.21-.26.48-.4.82-.4.3,0,.56.1.77.3.22.2.32.45.32.74l.03,7.4c.36,0,.72,0,1.07.01h1.07c.29,0,.54.1.75.31.22.21.32.46.32.76s-.11.56-.32.77c-.21.22-.47.32-.77.32h-2.13s.01,3.17.01,3.17c0,.29-.1.53-.31.73-.21.2-.46.3-.76.3ZM781.01,253.41l-.02-4.47-3.7,4.45,3.72.02Z"/>
  <path class="st2" d="M829.41,157.01c.99.76,1.98,1.53,2.96,2.29h0l-.61.79c.49.38.99.76,1.48,1.15.49.38.99.76,1.48,1.15l.61-.79h0c.99.76,1.98,1.52,2.96,2.29h0s-.61.79-.61.79c.99.76,1.97,1.53,2.96,2.29l.61-.79h0c.99.76,1.98,1.53,2.96,2.29h0s-.61.79-.61.79c.99.76,1.98,1.53,2.96,2.29l.61-.79h0c.99.76,1.97,1.53,2.96,2.29h0s-.61.79-.61.79c.49.38.99.76,1.48,1.14h0c.29.22.58.46.84.7l.67-.74c.6.55,1.14,1.18,1.4,1.88l-.94.34c.07.18.1.35.1.52v.17s-.01,0-.01,0c-.04.34-.19.61-.42.84l.7.71c-.7.69-1.82,1.06-2.96,1.24l-.16-.99c-.37.06-.75.1-1.12.12h-.37s0,.01,0,.01l-1.68.04.02,1-3.37.08-.02-1-3.37.08.02,1-3.37.08-.02-1-3.37.08.02,1-3.37.08-.02-1-1.68.04c-.68.02-1.42.07-2.2.14l.09,1h0c-1.31.12-2.77.28-4.27.42l-.09-1c-1.41.12-2.83.22-4.18.21v1c-1.53-.01-2.98-.15-4.25-.51l.27-.96c-.65-.18-1.22-.43-1.7-.73h0c-.44-.28-.84-.64-1.2-1.08l-.77.63c-.76-.93-1.32-2.11-1.74-3.47l.96-.29c-.34-1.09-.58-2.32-.74-3.65l-.99.12c-.15-1.24-.23-2.56-.26-3.9l1-.02c-.03-1.26-.02-2.56.02-3.85l-1-.03c.04-1.32.11-2.63.19-3.91l1,.06c.09-1.35.19-2.65.28-3.89l-1-.07h0c.11-1.43.2-2.76.26-3.9h0s1,.05,1,.05c.03-.73.05-1.41.04-2.01v-.23s0,0,0,0c0-.42.01-.85.05-1.26l-1-.09c.09-1.1.34-2.19.9-3l.82.57c.21-.3.47-.53.8-.69h0c.33-.16.67-.22,1.03-.2l.06-1c.98.06,1.98.52,2.9,1.11l-.54.84c.41.26.82.56,1.21.86.49.38.99.76,1.48,1.15l.61-.79c.99.76,1.98,1.53,2.96,2.29l-.61.79c.99.76,1.98,1.53,2.96,2.29l.61-.79c.99.76,1.98,1.53,2.96,2.29l-.61.79c.99.76,1.98,1.53,2.96,2.29l.61-.79ZM808.24,150.61h0s0-.01,0-.01h.02-.02Z"/>
  <path class="st1" d="M823.38,375.52c.6-.29,1.31-.26,2.14.07.74.29,1.49.77,2.21,1.31l.31.23,35.56,27.48h0c.61.47,1.18.96,1.58,1.48.39.51.54.97.49,1.4h0c-.07.58-.47,1.05-1.32,1.4-.86.36-1.97.51-3.01.54h0l-20.21.47c-1.2.03-2.61.17-4.08.32-1.48.15-3.04.31-4.58.39-3.14.16-5.91-.05-7.67-1.16h0c-1.39-.88-2.36-2.57-2.97-4.95-.6-2.37-.81-5.25-.81-8.28,0-3.02.22-6.13.42-8.93.21-2.77.41-5.3.39-7.06v-.23s0,0,0,0c0-.96.07-1.92.3-2.74.25-.87.66-1.44,1.27-1.73h0Z"/>
  <path class="st0" d="M850.13,430.5c0,1.42-.58,2.59-1.75,3.52.63.42,1.18.99,1.64,1.69.46.69.69,1.51.69,2.44,0,1.02-.28,1.92-.84,2.68-.56.76-1.29,1.35-2.18,1.78-.89.42-1.83.63-2.83.63s-1.95-.21-2.84-.62c-.89-.42-1.61-1.02-2.17-1.78-.55-.77-.83-1.68-.83-2.72,0-.95.23-1.76.69-2.45.46-.69.99-1.25,1.61-1.66-.52-.42-.93-.94-1.26-1.56-.31-.63-.47-1.34-.47-2.13,0-.91.25-1.74.74-2.46.5-.73,1.15-1.3,1.94-1.73.8-.43,1.65-.65,2.57-.65s1.82.22,2.63.66c.8.43,1.45,1.03,1.94,1.79.49.75.74,1.61.74,2.58ZM842.11,430.34c0,.67.27,1.24.81,1.7.55.47,1.2.7,1.94.7s1.36-.21,1.9-.65c.55-.44.82-1.02.82-1.74,0-.43-.13-.83-.39-1.18-.26-.36-.6-.65-1.02-.86-.41-.21-.83-.32-1.28-.32-.75,0-1.41.23-1.97.67-.55.45-.82,1.01-.82,1.68ZM848.14,438.09c0-.49-.16-.93-.47-1.32-.3-.39-.71-.7-1.22-.93-.5-.23-1.04-.34-1.62-.34s-1.1.11-1.6.33c-.5.21-.91.51-1.22.9-.3.38-.46.83-.46,1.36s.15.95.46,1.35c.31.39.71.7,1.21.93.5.22,1.05.33,1.64.33s1.13-.11,1.62-.33c.5-.23.9-.54,1.21-.93.3-.4.46-.85.46-1.35Z"/>
  <path d="M843.57,378.76c.39.39,1.02.39,1.41,0l6.36-6.36c.39-.39.39-1.02,0-1.41-.39-.39-1.02-.39-1.41,0l-5.66,5.66-5.66-5.66c-.39-.39-1.02-.39-1.41,0-.39.39-.39,1.02,0,1.41l6.36,6.36ZM844.27,188.56h-1v1.97h2v-1.97h-1ZM844.27,194.48h-1v3.95h2v-3.95h-1ZM844.27,202.38h-1v3.95h2v-3.95h-1ZM844.27,210.27h-1v3.95h2v-3.95h-1ZM844.27,218.17h-1v3.95h2v-3.95h-1ZM844.27,226.07h-1v3.95h2v-3.95h-1ZM844.27,233.96h-1v3.95h2v-3.95h-1ZM844.27,241.86h-1v3.95h2v-3.95h-1ZM844.27,249.75h-1v3.95h2v-3.95h-1ZM844.27,257.65h-1v3.95h2v-3.95h-1ZM844.27,265.54h-1v3.95h2v-3.95h-1ZM844.27,273.44h-1v3.95h2v-3.95h-1ZM844.27,281.33h-1v3.95h2v-3.95h-1ZM844.27,289.23h-1v3.95h2v-3.95h-1ZM844.27,297.12h-1v3.95h2v-3.95h-1ZM844.27,305.02h-1v3.95h2v-3.95h-1ZM844.27,312.91h-1v3.95h2v-3.95h-1ZM844.27,320.81h-1v3.95h2v-3.95h-1ZM844.27,328.7h-1v3.95h2v-3.95h-1ZM844.27,336.6h-1v3.95h2v-3.95h-1ZM844.27,344.5h-1v3.95h2v-3.95h-1ZM844.27,352.39h-1v3.95h2v-3.95h-1ZM844.27,360.29h-1v3.95h2v-3.95h-1ZM844.27,368.18h-1v3.95h2v-3.95h-1ZM844.27,376.08h-1v1.97h2v-1.97h-1Z"/>
  <path d="M1112,520.71h3.09l1.67-4.65h-2.97c-.25,0-.47-.09-.64-.27-.18-.18-.27-.39-.27-.65s.09-.48.27-.65c.17-.18.39-.27.64-.27h3.63l1.24-3.44c.06-.17.17-.31.33-.43.17-.12.35-.18.53-.18.1,0,.21.02.32.06.16.06.3.17.41.34.12.16.18.33.18.51,0,.11-.01.21-.05.31l-1.01,2.83h4.55l1.32-3.56c.06-.16.17-.3.33-.42.17-.11.35-.17.53-.18.1,0,.21.02.31.06.17.07.31.18.42.35.12.16.18.33.18.5,0,.11-.02.22-.06.32l-1.07,2.93h1.5c.25,0,.47.09.65.27.18.17.26.39.26.65s-.08.47-.26.65c-.18.18-.4.27-.65.27h-2.17l-1.72,4.65h3.56c.25,0,.47.09.65.27.18.18.27.4.27.65s-.09.47-.27.65c-.18.18-.4.27-.65.27h-4.24l-1.38,3.73c-.06.16-.18.3-.35.41-.16.12-.33.18-.5.18-.11,0-.22-.02-.32-.06-.17-.06-.31-.17-.42-.33-.12-.17-.18-.34-.18-.52,0-.11.02-.21.05-.32l1.15-3.1h-4.48l-1.32,3.66c-.05.16-.17.3-.34.41-.17.12-.35.18-.52.18-.11,0-.21-.02-.31-.05-.17-.07-.32-.18-.44-.34-.11-.17-.17-.35-.17-.52,0-.11.02-.21.06-.3l1.09-3.04h-2.43c-.25,0-.47-.09-.65-.27-.18-.18-.27-.39-.27-.65s.09-.47.27-.65c.18-.18.4-.27.65-.27ZM1117.04,520.71h4.49l1.72-4.65h-4.54l-1.67,4.65ZM1142.53,526.79c-1.11,0-2.09-.29-2.94-.88-.86-.59-1.53-1.35-2.02-2.31-.49-.96-.73-1.99-.73-3.09,0-.83.14-1.63.43-2.4.28-.77.68-1.46,1.21-2.06.52-.61,1.13-1.09,1.84-1.45.71-.36,1.48-.54,2.32-.54s1.52.2,2.18.6c.66.4,1.24.86,1.74,1.38v-5.52c0-.25.09-.47.26-.65.18-.18.4-.27.65-.27s.48.09.65.27c.18.18.27.39.27.65v15.37c0,.25-.09.47-.27.65s-.4.27-.65.27-.46-.09-.62-.27-.23-.39-.23-.65l-.06-1.17c-.47.47-1.04.94-1.72,1.39-.69.46-1.46.68-2.31.68ZM1142.56,524.96c.83,0,1.55-.22,2.14-.67.59-.45,1.05-1.03,1.37-1.73.32-.71.47-1.45.47-2.21s-.15-1.49-.47-2.16c-.31-.68-.76-1.22-1.34-1.65-.59-.43-1.29-.65-2.12-.65s-1.47.23-2.06.68c-.59.45-1.04,1.03-1.37,1.75-.32.71-.48,1.45-.48,2.23s.15,1.5.47,2.17c.33.67.78,1.21,1.36,1.62.58.41,1.26.61,2.03.61ZM1157.4,526.78c-1.18,0-2.25-.29-3.21-.88-.96-.59-1.71-1.37-2.27-2.34-.57-.99-.85-2.06-.85-3.24s.27-2.14.8-3.09c.53-.95,1.26-1.72,2.17-2.3.91-.58,1.93-.87,3.05-.87,1.03,0,1.98.26,2.85.77.87.51,1.56,1.2,2.08,2.07.53.86.8,1.82.8,2.88,0,.37-.07.7-.21.96-.13.27-.38.4-.73.4h-8.89c.13.68.39,1.3.79,1.88.41.57.92,1.03,1.53,1.38.62.35,1.3.53,2.06.53.64,0,1.28-.14,1.89-.43.62-.29,1.13-.67,1.53-1.17.18-.24.42-.35.72-.35.25,0,.47.09.65.27.18.18.27.4.27.65,0,.22-.08.42-.22.6-.59.72-1.31,1.27-2.16,1.67-.85.4-1.73.6-2.65.6ZM1160.95,519.36c-.07-.64-.29-1.21-.65-1.73-.36-.53-.81-.95-1.37-1.26-.55-.31-1.16-.46-1.83-.46s-1.32.16-1.89.48c-.57.32-1.04.74-1.43,1.26-.37.52-.63,1.09-.77,1.72h7.94ZM1117.02,549.11c.84,0,1.62.21,2.33.63.71.42,1.34.92,1.86,1.49l.07-1.25c0-.25.08-.47.24-.65.16-.18.37-.27.62-.27s.47.09.65.27c.18.18.27.4.27.65v.02s-.1,11.52-.1,11.52c-.01.87-.19,1.69-.54,2.47-.34.77-.81,1.45-1.41,2.04-.61.59-1.3,1.06-2.08,1.39-.78.33-1.61.5-2.49.5-.98,0-1.93-.22-2.83-.66-.9-.43-1.66-1.03-2.28-1.81-.14-.17-.21-.37-.21-.59,0-.25.09-.47.27-.65.18-.18.39-.27.64-.27.31,0,.56.12.74.37.43.54.97.98,1.63,1.29.67.32,1.35.48,2.04.48.85,0,1.62-.21,2.32-.63.71-.42,1.27-.97,1.7-1.67.43-.69.65-1.45.67-2.28v-1.83c-.53.54-1.15,1.04-1.87,1.48-.71.43-1.46.65-2.24.65-.84,0-1.62-.17-2.35-.51-.71-.35-1.34-.82-1.88-1.42-.54-.59-.95-1.27-1.26-2.03-.3-.77-.45-1.56-.45-2.39s.15-1.62.44-2.38c.3-.76.72-1.43,1.26-2.03.54-.6,1.16-1.07,1.88-1.42.72-.35,1.51-.52,2.36-.52ZM1121.1,555.46c0-.79-.17-1.53-.53-2.21-.35-.68-.84-1.24-1.46-1.66-.61-.43-1.31-.65-2.09-.65s-1.5.21-2.12.65c-.61.42-1.09.98-1.45,1.66-.35.68-.52,1.42-.52,2.21s.18,1.52.53,2.21c.36.68.85,1.24,1.46,1.67.61.42,1.31.64,2.1.64s1.47-.21,2.08-.64c.62-.43,1.11-.99,1.47-1.67.36-.69.53-1.43.53-2.21ZM1135.42,561.85c-.25,0-.46-.09-.62-.27-.15-.18-.23-.4-.23-.65l-.06-1.45c-.29.35-.62.71-1.02,1.07-.39.36-.83.66-1.33.9-.49.24-1.05.35-1.68.35-1.07,0-1.94-.28-2.6-.83-.66-.55-1.14-1.28-1.44-2.18-.29-.9-.44-1.87-.44-2.9v-5.92c.01-.25.1-.47.28-.65.18-.18.4-.27.65-.27s.47.09.64.27c.18.18.27.4.27.66v5.91c-.01.72.06,1.39.21,2.01.15.62.41,1.12.79,1.5.39.38.94.57,1.64.57,1.33,0,2.33-.35,3-1.06.68-.71,1.02-1.71,1.02-2.99v-5.98c0-.25.09-.47.26-.65.18-.18.4-.27.65-.27s.48.09.65.27c.18.18.27.4.27.66v10.96c.01.25-.08.47-.26.65-.17.19-.39.28-.65.28ZM1140.36,547.17c-.35,0-.66-.13-.93-.38-.26-.25-.39-.56-.39-.92s.13-.66.39-.92c.27-.25.58-.38.93-.38s.66.13.92.38c.26.25.39.56.39.92s-.13.66-.39.92c-.26.25-.57.38-.92.38ZM1139.46,549.82c0-.21.1-.39.3-.55.19-.16.38-.24.55-.24.28,0,.52.09.7.26.19.17.29.4.29.67l.02,10.95c0,.25-.09.47-.27.65-.18.18-.39.27-.65.27s-.46-.09-.64-.28c-.18-.18-.27-.39-.27-.65l-.03-11.07ZM1150.45,549.01c.85,0,1.65.17,2.39.51.74.34,1.39.81,1.94,1.42.57.59,1,1.27,1.31,2.04.32.77.48,1.58.48,2.43,0,1.13-.27,2.18-.81,3.15-.54.97-1.27,1.75-2.18,2.36-.92.59-1.94.9-3.08.9-1.16,0-2.2-.3-3.13-.89-.92-.59-1.66-1.38-2.21-2.34-.53-.98-.8-2.03-.8-3.17,0-.85.15-1.65.46-2.42.32-.77.76-1.46,1.31-2.05.55-.6,1.2-1.08,1.93-1.42.74-.34,1.54-.51,2.39-.51ZM1150.45,550.84c-.8,0-1.52.21-2.16.64-.64.42-1.16.98-1.54,1.67-.37.68-.56,1.43-.56,2.23s.19,1.57.56,2.27c.38.7.89,1.27,1.54,1.7.65.42,1.38.64,2.2.64.8,0,1.52-.22,2.16-.65.64-.43,1.15-.99,1.52-1.68.38-.69.57-1.44.57-2.25s-.2-1.55-.58-2.25c-.37-.7-.89-1.26-1.54-1.68-.64-.42-1.36-.64-2.17-.64ZM1160.17,549c.25,0,.45.09.61.27.16.18.24.4.24.65l.06,1.45c.3-.36.63-.72,1.02-1.07.39-.36.83-.65,1.33-.89.5-.24,1.06-.37,1.68-.37,1.08,0,1.95.28,2.6.83.66.55,1.14,1.28,1.43,2.18.3.9.45,1.86.45,2.91v5.92c-.01.25-.1.47-.28.65-.18.18-.39.27-.65.27s-.46-.09-.64-.27c-.18-.19-.27-.41-.27-.66v-5.91c.01-.73-.06-1.4-.21-2.01-.15-.62-.41-1.12-.79-1.5-.39-.38-.93-.57-1.64-.57-1.33,0-2.33.35-3,1.06-.68.71-1.02,1.71-1.02,2.99v5.98c0,.25-.08.47-.26.65-.18.18-.4.27-.65.27s-.47-.09-.65-.28c-.18-.18-.27-.39-.27-.65v-10.96c-.01-.26.08-.48.25-.66.18-.18.4-.27.66-.27ZM1178.61,561.78c-1.18,0-2.25-.29-3.21-.88-.95-.59-1.71-1.37-2.27-2.34-.56-.99-.84-2.06-.84-3.24s.26-2.14.79-3.09c.54-.95,1.26-1.72,2.18-2.3.91-.58,1.92-.87,3.05-.87,1.03,0,1.98.26,2.84.77.87.51,1.57,1.2,2.09,2.07.53.86.79,1.82.79,2.88,0,.37-.07.7-.21.96-.13.27-.37.4-.73.4h-8.88c.13.68.39,1.3.79,1.88.41.57.91,1.03,1.52,1.38.62.35,1.31.53,2.07.53.64,0,1.27-.14,1.89-.43.62-.29,1.13-.67,1.53-1.17.17-.24.41-.35.72-.35.25,0,.46.09.64.27s.27.4.27.65c0,.22-.07.42-.22.6-.58.72-1.3,1.27-2.16,1.67-.85.4-1.73.6-2.65.6ZM1182.16,554.36c-.07-.64-.28-1.21-.64-1.73-.36-.53-.82-.95-1.37-1.26-.55-.31-1.16-.46-1.83-.46s-1.32.16-1.89.48c-.57.32-1.05.74-1.43,1.26-.38.52-.63,1.09-.77,1.72h7.93ZM1192.5,548.96c1.09,0,2.09.24,2.98.71.91.47,1.57,1.11,2,1.93.08.13.11.27.11.43,0,.24-.09.45-.26.62-.18.17-.38.26-.63.26-.14,0-.29-.04-.45-.13-.15-.1-.26-.21-.33-.34-.29-.55-.74-.97-1.34-1.26-.6-.29-1.29-.44-2.09-.44-.5,0-1.05.07-1.65.21-.59.13-1.1.35-1.53.66-.43.3-.64.71-.64,1.22,0,.4.17.71.51.93.35.22.77.38,1.27.49.52.1,1.03.17,1.55.21.53.04.98.08,1.36.12.74.07,1.47.21,2.18.4.72.2,1.31.52,1.79.96.47.45.7,1.09.7,1.94,0,.91-.27,1.66-.8,2.25-.54.58-1.23,1.01-2.07,1.28-.83.27-1.7.4-2.61.4-1.27,0-2.42-.24-3.45-.73-1.04-.5-1.8-1.22-2.28-2.17-.07-.11-.1-.25-.1-.41,0-.25.08-.45.25-.62.17-.17.38-.26.63-.26.15,0,.31.05.46.15.15.09.26.2.33.34.35.67.89,1.16,1.61,1.48.73.31,1.58.46,2.55.46.56,0,1.13-.07,1.7-.2.58-.14,1.06-.37,1.44-.68.39-.32.59-.74.59-1.28,0-.42-.18-.74-.53-.96-.35-.23-.79-.39-1.32-.49-.53-.1-1.06-.16-1.61-.2-.54-.03-1-.07-1.39-.12-.69-.08-1.39-.22-2.09-.41-.69-.2-1.27-.53-1.73-.98-.47-.45-.7-1.08-.7-1.89,0-.68.17-1.27.5-1.74.35-.49.79-.89,1.33-1.2.56-.32,1.16-.55,1.82-.7.66-.15,1.31-.22,1.94-.22ZM1117.41,596.78c-1.18,0-2.25-.29-3.21-.88-.96-.59-1.71-1.37-2.27-2.34-.57-.99-.85-2.06-.85-3.24s.27-2.14.8-3.09c.53-.95,1.26-1.72,2.17-2.3.91-.58,1.93-.87,3.05-.87,1.03,0,1.98.26,2.85.77s1.56,1.2,2.08,2.07c.53.86.8,1.82.8,2.88,0,.37-.07.7-.21.96-.13.27-.38.4-.73.4h-8.89c.13.68.39,1.3.79,1.88.41.57.92,1.03,1.53,1.38.62.35,1.3.53,2.06.53.64,0,1.28-.14,1.89-.43.62-.29,1.13-.67,1.53-1.17.18-.24.42-.35.72-.35.25,0,.47.09.65.27.18.18.27.4.27.65,0,.22-.08.42-.22.6-.59.72-1.31,1.27-2.17,1.67-.84.4-1.72.6-2.64.6ZM1120.96,589.36c-.08-.64-.29-1.21-.65-1.73-.36-.53-.81-.95-1.37-1.26-.55-.31-1.16-.46-1.83-.46s-1.32.16-1.89.48c-.57.32-1.04.74-1.43,1.26-.37.52-.63,1.09-.77,1.72h7.94ZM1126.37,579.64c.3,0,.53.1.7.3.18.2.27.4.27.62v15.5c0,.21-.1.4-.29.55-.19.15-.37.23-.55.23-.28,0-.51-.09-.71-.26-.18-.17-.28-.39-.28-.66v-15.34c0-.24.09-.45.26-.65.17-.2.37-.3.6-.3ZM1136.35,596.78c-1.18,0-2.25-.29-3.21-.88-.95-.59-1.71-1.37-2.27-2.34-.56-.99-.84-2.06-.84-3.24s.26-2.14.79-3.09c.54-.95,1.26-1.72,2.17-2.3.92-.58,1.93-.87,3.06-.87,1.03,0,1.98.26,2.84.77.87.51,1.57,1.2,2.09,2.07.53.86.79,1.82.79,2.88,0,.37-.07.7-.21.96-.13.27-.37.4-.73.4h-8.89c.13.68.4,1.3.8,1.88.4.57.91,1.03,1.52,1.38.62.35,1.31.53,2.07.53.64,0,1.27-.14,1.89-.43.62-.29,1.13-.67,1.52-1.17.18-.24.42-.35.73-.35.25,0,.46.09.64.27.18.18.27.4.27.65,0,.22-.07.42-.22.6-.59.72-1.31,1.27-2.16,1.67-.85.4-1.73.6-2.65.6ZM1139.9,589.36c-.07-.64-.29-1.21-.64-1.73-.36-.53-.82-.95-1.37-1.26-.55-.31-1.16-.46-1.83-.46s-1.32.16-1.89.48c-.57.32-1.05.74-1.43,1.26-.38.52-.63,1.09-.77,1.72h7.93ZM1150.15,584.11c.84,0,1.62.21,2.33.63s1.34.92,1.86,1.49l.07-1.25c0-.25.08-.47.24-.65.16-.18.37-.27.62-.27s.47.09.65.27c.18.18.27.4.27.65v.02s-.1,11.52-.1,11.52c-.01.87-.19,1.69-.54,2.47-.34.77-.81,1.45-1.41,2.04-.61.59-1.3,1.06-2.08,1.39-.78.33-1.61.5-2.49.5-.98,0-1.93-.22-2.83-.66-.9-.43-1.66-1.03-2.28-1.81-.14-.17-.21-.37-.21-.59,0-.25.09-.47.27-.65.18-.18.39-.27.64-.27.31,0,.56.12.74.37.43.54.97.98,1.63,1.29.67.32,1.35.48,2.04.48.85,0,1.62-.21,2.32-.63.71-.42,1.27-.97,1.7-1.67.43-.69.65-1.45.67-2.28v-1.83c-.53.54-1.15,1.04-1.87,1.48-.71.43-1.46.65-2.24.65-.84,0-1.62-.17-2.35-.51-.71-.35-1.34-.82-1.88-1.42-.54-.59-.95-1.27-1.26-2.03-.3-.77-.45-1.56-.45-2.39s.15-1.62.44-2.38c.3-.76.72-1.43,1.26-2.03.54-.6,1.16-1.07,1.88-1.42.72-.35,1.51-.52,2.36-.52ZM1154.23,590.46c0-.79-.17-1.53-.53-2.21-.35-.68-.84-1.24-1.46-1.66-.61-.43-1.31-.65-2.09-.65s-1.5.21-2.12.65c-.61.42-1.09.98-1.45,1.66-.35.68-.52,1.42-.52,2.21s.17,1.52.53,2.21c.36.68.85,1.24,1.46,1.67.61.42,1.31.64,2.1.64s1.47-.21,2.08-.64c.62-.43,1.11-.99,1.47-1.67.36-.69.53-1.43.53-2.21ZM1160.2,582.17c-.35,0-.66-.13-.92-.38-.26-.25-.39-.56-.39-.92s.13-.66.39-.92c.26-.25.57-.38.92-.38s.67.13.93.38c.26.25.39.56.39.92s-.13.66-.39.92c-.26.25-.57.38-.93.38ZM1159.31,584.82c0-.21.1-.39.3-.55.19-.16.37-.24.54-.24.29,0,.53.09.71.26.19.17.28.4.28.67l.03,10.95c0,.25-.09.47-.27.65-.18.18-.4.27-.65.27s-.47-.09-.64-.28c-.18-.18-.27-.39-.27-.65l-.03-11.07ZM1169.9,596.79c-1.11,0-2.09-.29-2.95-.88-.85-.59-1.52-1.35-2.01-2.31-.49-.96-.73-1.99-.73-3.09,0-.83.14-1.63.42-2.4.29-.77.69-1.46,1.21-2.06.52-.61,1.14-1.09,1.85-1.45.7-.36,1.48-.54,2.32-.54.79,0,1.52.2,2.18.6.66.4,1.24.86,1.73,1.38v-5.52c0-.25.09-.47.27-.65.18-.18.4-.27.65-.27s.48.09.65.27c.18.18.27.39.27.65v15.37c0,.25-.09.47-.27.65-.18.18-.4.27-.65.27s-.46-.09-.62-.27c-.16-.18-.23-.39-.23-.65l-.07-1.17c-.46.47-1.03.94-1.72,1.39-.68.46-1.45.68-2.3.68ZM1169.93,594.96c.83,0,1.54-.22,2.14-.67.59-.45,1.05-1.03,1.37-1.73.31-.71.47-1.45.47-2.21s-.16-1.49-.47-2.16c-.31-.68-.76-1.22-1.35-1.65-.58-.43-1.29-.65-2.11-.65s-1.48.23-2.06.68c-.59.45-1.04,1.03-1.37,1.75-.32.71-.49,1.45-.49,2.23s.16,1.5.48,2.17c.32.67.78,1.21,1.35,1.62.59.41,1.27.61,2.04.61ZM1184.53,584.01c.86,0,1.65.17,2.4.51.74.34,1.38.81,1.94,1.42.56.59.99,1.27,1.3,2.04.32.77.48,1.58.48,2.43,0,1.13-.27,2.18-.81,3.15-.53.97-1.26,1.75-2.18,2.36-.91.59-1.94.9-3.08.9-1.15,0-2.2-.3-3.12-.89-.93-.59-1.67-1.38-2.21-2.34-.54-.98-.81-2.03-.81-3.17,0-.85.16-1.65.46-2.42.32-.77.76-1.46,1.31-2.05.55-.6,1.2-1.08,1.93-1.42.74-.34,1.54-.51,2.39-.51ZM1184.53,585.84c-.8,0-1.52.21-2.16.64-.64.42-1.15.98-1.54,1.67-.37.68-.56,1.43-.56,2.23s.19,1.57.56,2.27c.38.7.89,1.27,1.54,1.7.65.42,1.39.64,2.2.64.8,0,1.52-.22,2.16-.65.64-.43,1.15-.99,1.53-1.68.37-.69.56-1.44.56-2.25s-.19-1.55-.58-2.25c-.37-.7-.88-1.26-1.53-1.68-.65-.42-1.37-.64-2.18-.64ZM1199.12,583.96c1.09,0,2.08.24,2.98.71s1.57,1.11,2,1.93c.07.13.11.27.11.43,0,.24-.09.45-.27.62-.17.17-.38.26-.62.26-.15,0-.3-.04-.45-.13-.16-.1-.27-.21-.33-.34-.3-.55-.74-.97-1.34-1.26-.6-.29-1.29-.44-2.09-.44-.51,0-1.06.07-1.65.21-.59.13-1.11.35-1.54.66-.42.3-.63.71-.63,1.22,0,.4.17.71.51.93.34.22.76.38,1.27.49.51.1,1.03.17,1.55.21.53.04.98.08,1.35.12.74.07,1.47.21,2.19.4.72.2,1.31.52,1.78.96.47.45.71,1.09.71,1.94,0,.91-.27,1.66-.81,2.25-.53.58-1.22,1.01-2.06,1.28-.84.27-1.71.4-2.61.4-1.27,0-2.42-.24-3.46-.73-1.03-.5-1.79-1.22-2.28-2.17-.06-.11-.1-.25-.1-.41,0-.25.09-.45.26-.62.17-.17.38-.26.62-.26.16,0,.31.05.47.15.15.09.26.2.33.34.35.67.88,1.16,1.61,1.48.72.31,1.57.46,2.55.46.56,0,1.13-.07,1.7-.2.57-.14,1.05-.37,1.44-.68.39-.32.58-.74.58-1.28,0-.42-.17-.74-.52-.96-.35-.23-.79-.39-1.32-.49-.53-.1-1.07-.16-1.61-.2-.54-.03-1-.07-1.39-.12-.7-.08-1.39-.22-2.09-.41-.69-.2-1.27-.53-1.74-.98-.46-.45-.69-1.08-.69-1.89,0-.68.17-1.27.5-1.74.34-.49.78-.89,1.33-1.2.55-.32,1.16-.55,1.82-.7.66-.15,1.31-.22,1.94-.22Z"/>
  <path class="st3" d="M964.13,2.75c5.47-2.65,11.4-2.05,17.31.26,5.92,2.32,11.71,6.31,16.81,10.26h0c36.51,28.27,73.01,56.55,109.52,84.83,36.5,28.28,73.01,56.56,109.51,84.83h0c3.84,2.96,7.81,6.34,10.68,10.14,2.77,3.67,4.45,7.65,4.06,11.96l-.05.42c-.75,6.19-5.16,10.23-11.27,12.79-6.11,2.57-13.73,3.56-20.44,3.72h0l-124.52,2.93h0c-7.14.17-15.65,1.03-24.74,1.96-9.11.93-18.83,1.94-28.45,2.43-19.29.99-37.91-.14-50.27-7.93-10.22-6.44-16.68-18.43-20.57-33.68-3.89-15.23-5.16-33.55-5.14-52.42.02-18.86,1.34-38.22,2.62-55.52,1.28-17.27,2.52-32.54,2.37-43.14v-.23s-.05-.09-.05-.09c-.06-6.44.3-13.47,2.07-19.57,1.79-6.16,4.98-11.26,10.54-13.93h0Z"/>
  <path class="st0" d="M1013.17,154.1c-.13.43-1.55.64-4.24.64s-4.2-.12-4.52-.36c-.11-.08-.16-.17-.16-.28l6.68-19.6h-8.12c-.8,0-1.2-1.29-1.2-3.88,0-.88.08-1.73.24-2.56.19-.83.49-1.24.92-1.24l14-.04c1.07,0,1.93.59,2.6,1.76.32.59.55,1.17.68,1.76l-6.88,23.8ZM1021.45,151.98c0-.75.19-1.59.56-2.52.37-.96.73-1.72,1.08-2.28.35-.59.55-.88.6-.88,1.55.93,3.17,1.4,4.88,1.4,1.07,0,1.92-.21,2.56-.64.67-.43,1-1.01,1-1.76s-.31-1.27-.92-1.48c-.59-.21-1.53-.36-2.84-.44h-1.44c-.32,0-.63-.39-.92-1.16-.27-.8-.4-1.57-.4-2.32,0-1.25.37-1.89,1.12-1.92l1.16-.04c.72,0,1.47-.2,2.24-.6.8-.43,1.2-.96,1.2-1.6,0-1.12-1-1.68-3-1.68-1.49,0-2.93.29-4.32.88-1.2-2.16-1.8-3.84-1.8-5.04s.84-2.15,2.52-2.76c1.71-.61,3.84-.92,6.4-.92s4.56.53,6,1.6c1.44,1.07,2.16,2.52,2.16,4.36,0,3.23-1.39,5.71-4.16,7.44,3.36,1.36,5.04,3.67,5.04,6.92,0,2.53-.89,4.59-2.68,6.16-1.79,1.55-4.35,2.32-7.68,2.32-2.11,0-4.03-.29-5.76-.88-1.73-.61-2.6-1.33-2.6-2.16Z"/>
  <path class="st0" d="M984.81,197.41c0-.29.1-.54.31-.74.21-.21.47-.31.76-.31h8.76s.01-.01.01-.01c.29,0,.54.11.75.32.21.21.32.46.32.75s-.11.55-.32.76c-.21.21-.46.31-.75.31h-7.69s.01,3.92.01,3.92l5.6-.05h.12c.29,0,.52.12.7.34.18.23.27.45.27.67,0,.31-.1.58-.3.81-.2.22-.46.33-.77.33l-5.6.05v6.25s.01.02.01.02c0,.29-.11.53-.32.74-.21.21-.46.31-.75.31s-.55-.1-.76-.31c-.21-.21-.31-.45-.31-.74h0s-.03-13.43-.03-13.43ZM998.69,211.87c-.29,0-.55-.1-.76-.31-.21-.21-.31-.47-.31-.76v-13.44c-.01-.27.09-.52.29-.74.2-.22.44-.33.72-.33.33,0,.6.1.81.31.21.2.32.46.32.76v13.44c.01.29-.1.55-.31.76-.21.21-.46.31-.75.31ZM1014.66,206.06c.26,0,.49.1.7.31.21.2.32.43.32.68,0,.2-.04.37-.11.52-.36.79-.87,1.52-1.52,2.2-.66.67-1.43,1.21-2.34,1.62-.9.41-1.91.61-3.04.61s-2.11-.21-3-.63c-.9-.42-1.66-1-2.3-1.73-.63-.74-1.12-1.58-1.46-2.54-.34-.96-.51-1.97-.51-3.04s.17-2.06.52-3.01c.34-.95.83-1.79,1.47-2.52.64-.74,1.4-1.32,2.29-1.74.89-.42,1.87-.63,2.96-.63s2.1.2,3,.59c.9.39,1.68.91,2.34,1.56.67.64,1.19,1.35,1.56,2.13.08.15.12.31.12.47,0,.26-.1.51-.29.73-.19.21-.41.32-.66.32s-.46-.05-.66-.15c-.2-.11-.34-.26-.44-.47-.41-.83-1.04-1.54-1.9-2.14-.85-.6-1.87-.89-3.07-.89-1.04,0-1.94.26-2.7.79s-1.35,1.24-1.77,2.12c-.41.87-.62,1.83-.62,2.87s.2,2,.61,2.88c.42.87,1.01,1.57,1.76,2.1.77.52,1.68.78,2.73.78.79,0,1.51-.14,2.16-.43.66-.29,1.23-.68,1.71-1.16.48-.48.85-1,1.1-1.55.19-.43.54-.64,1.04-.64ZM1030.02,206.06c.26,0,.49.1.7.31.21.2.32.43.32.68,0,.2-.04.37-.11.52-.36.79-.86,1.52-1.52,2.2-.65.67-1.43,1.21-2.33,1.62-.91.41-1.92.61-3.04.61s-2.12-.21-3.01-.63c-.9-.42-1.66-1-2.3-1.73-.63-.74-1.12-1.58-1.46-2.54-.34-.96-.51-1.97-.51-3.04s.18-2.06.52-3.01c.34-.95.83-1.79,1.47-2.52.64-.74,1.4-1.32,2.29-1.74.89-.42,1.88-.63,2.96-.63s2.11.2,3,.59c.9.39,1.68.91,2.34,1.56.67.64,1.19,1.35,1.56,2.13.08.15.12.31.12.47,0,.26-.1.51-.29.73-.19.21-.41.32-.66.32s-.46-.05-.66-.15c-.2-.11-.34-.26-.44-.47-.4-.83-1.03-1.54-1.89-2.14-.86-.6-1.88-.89-3.08-.89-1.03,0-1.94.26-2.7.79s-1.35,1.24-1.76,2.12c-.42.87-.63,1.83-.63,2.87s.21,2,.61,2.88c.42.87,1.01,1.57,1.77,2.1.76.52,1.67.78,2.72.78.79,0,1.51-.14,2.16-.43.66-.29,1.23-.68,1.71-1.16.48-.48.85-1,1.1-1.55.19-.43.54-.64,1.04-.64ZM1033.73,211.87c-.3,0-.55-.1-.77-.31-.2-.21-.31-.47-.31-.76v-13.44c-.01-.27.09-.52.29-.74.2-.22.44-.33.72-.33.33,0,.6.1.81.31.21.2.32.46.32.76v13.44c.01.29-.1.55-.31.76-.21.21-.46.31-.75.31ZM986.15,256.79c-.29,0-.55-.1-.76-.31-.21-.22-.31-.47-.31-.76,0-.36.11-.74.33-1.13.22-.39.5-.77.83-1.14.33-.37.66-.71,1-1.02.34-.31.62-.56.85-.76.45-.39.94-.76,1.46-1.1.52-.34,1.02-.7,1.48-1.07.47-.38.86-.81,1.15-1.29.3-.49.45-1.06.45-1.73,0-.52-.12-.99-.35-1.41-.24-.42-.55-.74-.96-.99-.4-.25-.85-.38-1.35-.38-.62,0-1.16.2-1.61.59-.44.39-.72.84-.83,1.34-.05.23-.18.43-.39.6-.2.17-.43.26-.68.26-.29,0-.55-.1-.76-.31-.21-.21-.31-.46-.31-.74,0-.53.13-1.03.4-1.49.26-.47.62-.89,1.05-1.25.44-.36.94-.64,1.48-.84.54-.21,1.1-.31,1.66-.31.93,0,1.76.22,2.47.66.72.43,1.29,1.01,1.7,1.75.42.74.62,1.56.62,2.47s-.18,1.76-.55,2.44c-.37.68-.83,1.28-1.39,1.78-.56.5-1.14.96-1.73,1.37-.59.41-1.12.81-1.59,1.21-.52.46-.97.93-1.36,1.41h6.28c.29,0,.55.11.75.32.22.21.32.46.32.75s-.11.55-.32.76c-.21.21-.46.31-.75.31h-8.29ZM1003.37,257.03c-1,0-1.87-.21-2.59-.63-.72-.43-1.32-1.01-1.77-1.73-.46-.73-.8-1.54-1.02-2.44-.21-.9-.32-1.83-.32-2.77s.11-1.92.33-2.82c.23-.91.58-1.72,1.05-2.43.48-.72,1.09-1.28,1.84-1.7.74-.41,1.63-.62,2.67-.62.98.02,1.82.25,2.53.68.7.42,1.29.99,1.74,1.7s.78,1.5,1,2.38c.21.88.32,1.79.32,2.73,0,.99-.11,1.94-.34,2.86-.22.91-.56,1.73-1.03,2.45-.46.72-1.06,1.3-1.79,1.72-.73.42-1.6.63-2.62.63ZM1003.41,254.88c.85,0,1.54-.26,2.06-.77.53-.52.92-1.21,1.16-2.05.25-.85.37-1.78.37-2.77,0-.93-.13-1.79-.38-2.59-.24-.8-.62-1.45-1.15-1.93-.52-.49-1.2-.73-2.03-.73s-1.53.25-2.07.75c-.54.49-.93,1.15-1.18,1.97-.25.82-.38,1.71-.38,2.69s.12,1.88.37,2.71c.25.82.64,1.49,1.17,1.99.53.5,1.22.75,2.06.75ZM1012.38,256.79c-.29,0-.55-.1-.76-.31-.21-.22-.31-.47-.31-.76,0-.36.11-.74.33-1.13.22-.39.5-.77.83-1.14.33-.37.66-.71,1-1.02.33-.31.62-.56.84-.76.46-.39.94-.76,1.47-1.1.52-.34,1.01-.7,1.48-1.07.47-.38.85-.81,1.15-1.29.3-.49.45-1.06.45-1.73,0-.52-.12-.99-.36-1.41-.23-.42-.55-.74-.95-.99-.4-.25-.85-.38-1.36-.38-.62,0-1.16.2-1.61.59-.44.39-.72.84-.82,1.34-.05.23-.18.43-.39.6-.2.17-.43.26-.68.26-.29,0-.55-.1-.76-.31-.21-.21-.31-.46-.31-.74,0-.53.13-1.03.4-1.49.26-.47.61-.89,1.05-1.25s.94-.64,1.48-.84c.55-.21,1.1-.31,1.67-.31.93,0,1.75.22,2.47.66.72.43,1.29,1.01,1.69,1.75.42.74.63,1.56.63,2.47s-.19,1.76-.55,2.44c-.37.68-.83,1.28-1.39,1.78-.56.5-1.13.96-1.73,1.37-.59.41-1.12.81-1.59,1.21-.51.46-.97.93-1.36,1.41h6.28c.3,0,.55.11.76.32.21.21.32.46.32.75s-.11.55-.32.76c-.21.21-.46.31-.76.31h-8.29ZM1025.55,250.42c-.29,0-.54-.09-.77-.26-.22-.17-.34-.41-.34-.71l1.14-6.58c.05-.26.17-.48.37-.64.2-.17.43-.26.69-.26h6.57c.27,0,.51.1.73.29.23.19.34.43.34.7,0,.32-.1.59-.3.82-.19.23-.45.34-.77.34h-5.67l-.5,2.78c.66-.28,1.34-.42,2.05-.42,1,0,1.91.23,2.72.69.82.46,1.47,1.08,1.95,1.88.48.79.72,1.68.72,2.67s-.25,1.9-.74,2.71-1.15,1.44-1.98,1.9c-.82.47-1.75.7-2.77.7-.78,0-1.5-.14-2.15-.42-.65-.28-1.22-.65-1.71-1.11-.48-.46-.85-.97-1.13-1.51-.07-.15-.1-.32-.1-.53,0-.24.1-.46.31-.65.21-.19.45-.29.7-.29.48,0,.83.19,1.03.58.26.49.65.91,1.17,1.26s1.15.53,1.89.53c.63,0,1.2-.14,1.7-.41.5-.28.9-.65,1.19-1.13.29-.47.44-1.01.44-1.6,0-.89-.32-1.62-.95-2.21-.62-.59-1.43-.88-2.43-.88-.51,0-1,.14-1.49.43-.48.29-.83.59-1.06.9-.2.29-.48.44-.85.44Z"/>
  <g class="st5">
    <path d="M1072.09,445.84c-.82,1.13-1.52,2.36-2.47,3.35-8.5,8.81-11.57,19.82-12.18,31.56-.21,4.05.69,8.45,2.19,12.25,4.29,10.86,10.81,20.34,19.84,27.89,2.6,2.17,5.61,3.86,9.02,5.18-.57-.96-1.12-1.94-1.73-2.87-1.81-2.74-3.77-5.4-5.42-8.24-.73-1.23-1.01-2.8-1.2-4.25-.07-.54.56-1.5,1.09-1.7.49-.18,1.63.19,1.86.64,3.85,7.39,9.67,13.27,14.85,19.65,1.81,2.24,1.72,3.88-.51,5.37-5.66,3.79-11.94,6.15-18.68,7.24-.22.04-.51-.27-1.22-.69,1.06-5.83,7.21-5.2,11.42-8.73-1.25-.48-2.22-.71-3.06-1.17-16.25-9.05-26.52-22.97-32.55-40.25-.91-2.63-1.28-5.57-1.32-8.38-.12-10.42,2.46-20.21,8.19-28.95,1.84-2.81,4.57-5.1,7.1-7.4.99-.89,2.52-1.18,3.8-1.75.33.41.66.82.98,1.23h0Z"/>
  </g>
  <path class="st2" d="M1117.58,143.18c1.09.85,2.19,1.7,3.28,2.55h0s-.61.79-.61.79c1.09.85,2.18,1.7,3.27,2.56l.62-.79h0c1.09.85,2.19,1.7,3.28,2.56h0s-.62.79-.62.79c1.1.85,2.19,1.7,3.28,2.56l.62-.79h0c1.09.85,2.18,1.7,3.28,2.56h0s-.62.79-.62.79c1.09.85,2.19,1.71,3.28,2.56l.62-.79h0c1.09.85,2.18,1.7,3.28,2.56h0s-.62.79-.62.79c.55.43,1.09.85,1.64,1.28h0c.49.38.99.79,1.45,1.21l.68-.74c1,.92,1.89,1.98,2.31,3.15l-.94.34c.18.48.25.97.18,1.48-.09.73-.4,1.32-.89,1.8l.71.71c-1.17,1.16-3.02,1.78-4.93,2.09l-.15-.99c-.65.1-1.31.17-1.94.2l-.63.03-2.1.05.02,1-4.19.1-.03-1-4.19.1.02,1-4.19.1-.02-1-4.2.1.02,1-4.19.1-.02-1-4.2.1.03,1-4.2.1-.02-1-2.1.05c-.58.01-1.19.04-1.82.09l.07,1h0c-1.1.07-2.3.18-3.54.31l-.1-.99c-1.16.12-2.32.24-3.54.36l.09.99c-1.16.12-2.35.23-3.54.32l-.07-1c-1.18.09-2.35.15-3.51.18l.03,1c-1.21.03-2.4.02-3.56-.04l.05-.99c-1.19-.06-2.33-.19-3.4-.39l-.18.98c-1.23-.23-2.37-.55-3.41-1l.39-.92c-.51-.22-.99-.47-1.43-.75h0c-.47-.3-.9-.64-1.31-1.03l-.69.72c-.87-.83-1.61-1.83-2.24-2.97l.87-.48c-.53-.97-.99-2.06-1.38-3.26l-.95.31c-.36-1.13-.67-2.35-.91-3.62l.97-.19c-.22-1.15-.4-2.36-.54-3.61l-.99.11c-.13-1.21-.23-2.46-.3-3.73l1-.05c-.07-1.21-.1-2.45-.11-3.7h-1c-.02-1.23,0-2.48.02-3.73l1,.02c.03-1.24.07-2.48.12-3.71l-.99-.04c.05-1.13.11-2.25.17-3.36l.03-.37,1,.06c.07-1.26.16-2.51.25-3.72l-1-.07c.09-1.28.18-2.53.27-3.73h0s1,.07,1,.07c.09-1.31.19-2.56.26-3.74l-1-.06h0c.09-1.36.15-2.61.18-3.74h.01s1,.03,1,.03c.02-.67.02-1.31.02-1.9v-.23s-.02-.02-.02-.02c0-.76.02-1.55.08-2.33l-.99-.08c.15-1.84.55-3.66,1.49-5.03l.82.56c.41-.6.93-1.07,1.59-1.39h0c.65-.32,1.33-.43,2.04-.39l.06-1c1.63.09,3.29.87,4.82,1.85l-.54.84c.71.46,1.4.96,2.05,1.47.54.43,1.09.85,1.64,1.28l.61-.79c1.09.85,2.19,1.71,3.28,2.56l-.62.79c1.1.85,2.19,1.7,3.28,2.56l.62-.79c1.09.85,2.18,1.7,3.28,2.56l-.62.79c1.1.85,2.19,1.71,3.28,2.56l.62-.79c1.09.85,2.18,1.7,3.28,2.56l-.62.79c1.09.85,2.19,1.7,3.28,2.56l.61-.79c1.1.85,2.19,1.71,3.28,2.56l-.61.79c1.09.85,2.19,1.7,3.28,2.56l.61-.79h0c1.1.85,2.19,1.7,3.28,2.56h0l-.61.79c1.09.85,2.18,1.71,3.28,2.56l.61-.79ZM1070.13,122.87h0s.01-.02.01-.02h.03l-.04.02Z"/>
  <path class="st1" d="M1094.65,371.98c1.22-.6,2.59-.49,4.07.09,1.5.59,2.99,1.62,4.35,2.68,9.84,7.67,19.68,15.34,29.51,23.01,9.84,7.67,19.68,15.34,29.52,23.01h0c1.02.8,2.03,1.66,2.74,2.61.7.94,1.06,1.87.94,2.83-.16,1.32-1.08,2.24-2.6,2.89-1.52.64-3.47.91-5.24.95l-33.55.79c-1.96.05-4.29.28-6.73.53-2.46.25-5.06.52-7.63.66-5.2.27-10-.06-13.11-2.04h0c-2.53-1.6-4.2-4.64-5.23-8.7-1.03-4.05-1.37-8.95-1.36-14.04,0-5.09.36-10.32.7-15.01.34-4.66.68-8.85.64-11.77v-.25c-.02-1.68.08-3.43.52-4.94.45-1.56,1.21-2.72,2.45-3.32h.01Z"/>
  <path class="st0" d="M1116.95,446.38c-.28,0-.54-.13-.77-.38-.23-.26-.34-.53-.34-.8s.07-.54.21-.81c.16-.28.39-.45.7-.51.32-.07.65-.25.99-.56.35-.31.68-.77,1-1.36.26-.47.61-.71,1.06-.71.36,0,.68.11.95.33.28.21.42.5.42.88v14.04s1.5,0,1.5,0c.29,0,.54.14.73.42.2.27.3.53.3.79,0,.33-.12.61-.36.85s-.52.36-.85.36h-5.49c-.33,0-.61-.12-.85-.36-.23-.24-.35-.52-.35-.85,0-.25.1-.52.29-.79.2-.28.44-.42.74-.42h1.79v-10.65c-.24.13-.49.26-.74.37-.25.11-.56.17-.93.17ZM1132.98,459.18c-1.19,0-2.21-.25-3.06-.75-.86-.51-1.56-1.19-2.1-2.04-.54-.86-.94-1.82-1.2-2.88-.26-1.07-.39-2.16-.39-3.28s.14-2.27.4-3.34c.27-1.08.68-2.03,1.24-2.87.57-.85,1.29-1.52,2.17-2.01s1.94-.74,3.16-.74c1.16.02,2.16.29,2.99.8.84.5,1.52,1.17,2.05,2.01.54.84.93,1.78,1.18,2.82.26,1.04.39,2.11.39,3.22,0,1.17-.14,2.29-.4,3.38-.26,1.07-.67,2.04-1.22,2.89-.55.86-1.25,1.53-2.12,2.03-.86.5-1.89.75-3.09.75ZM1133.03,456.64c1,0,1.82-.3,2.43-.91.63-.62,1.09-1.43,1.37-2.42.29-1.01.44-2.1.44-3.27,0-1.1-.15-2.12-.45-3.06-.29-.95-.74-1.71-1.36-2.28-.61-.58-1.41-.86-2.4-.86s-1.81.3-2.45.89c-.63.58-1.1,1.36-1.39,2.32-.3.96-.45,2.02-.45,3.17s.15,2.22.44,3.2c.29.97.75,1.76,1.38,2.35.63.59,1.44.89,2.44.89Z"/>
  <path d="M1128.76,371.29c.39.39,1.02.39,1.41,0l6.37-6.36c.39-.39.39-1.02,0-1.41-.4-.39-1.03-.39-1.42,0l-5.66,5.66-5.65-5.66c-.39-.39-1.03-.39-1.42,0-.39.39-.39,1.02,0,1.41l6.37,6.36ZM1129.46,188.56h-1v1.98h2v-1.98h-1ZM1129.46,194.5h-1v3.96h2v-3.96h-1ZM1129.46,202.41h-1v3.96h2v-3.96h-1ZM1129.46,210.33h-1v3.96h2v-3.96h-1ZM1129.46,218.24h-1v3.96h2v-3.96h-1ZM1129.46,226.15h-1v3.96h2v-3.96h-1ZM1129.46,234.07h-1v3.96h2v-3.96h-1ZM1129.46,241.98h-1v3.96h2v-3.96h-1ZM1129.46,249.9h-1v3.96h2v-3.96h-1ZM1129.46,257.81h-1v3.96h2v-3.96h-1ZM1129.46,265.72h-1v3.96h2v-3.96h-1ZM1129.46,273.64h-1v3.96h2v-3.96h-1ZM1129.46,281.55h-1v3.96h2v-3.96h-1ZM1129.46,289.47h-1v3.96h2v-3.96h-1ZM1129.46,297.38h-1v3.96h2v-3.96h-1ZM1129.46,305.29h-1v3.96h2v-3.96h-1ZM1129.46,313.21h-1v3.96h2v-3.96h-1ZM1129.46,321.12h-1v3.96h2v-3.96h-1ZM1129.46,329.04h-1v3.96h2v-3.96h-1ZM1129.46,336.95h-1v3.96h2v-3.96h-1ZM1129.46,344.86h-1v3.96h2v-3.96h-1ZM1129.46,352.78h-1v3.96h2v-3.96h-1ZM1129.46,360.69h-1v3.96h2v-3.96h-1ZM1129.46,368.6h-1v1.98h2v-1.98h-1Z"/>
  <path class="st3" d="M316.95,95.5c3.58-1.74,7.46-1.36,11.4.19,3.45,1.35,6.85,3.57,9.94,5.89l1.31,1c24.59,19.09,49.18,38.2,73.77,57.3,24.59,19.1,49.18,38.21,73.77,57.3h0c2.58,2,5.23,4.26,7.13,6.79,1.9,2.52,2.99,5.22,2.64,8.12h0c-.49,4.02-3.34,6.67-7.4,8.38-4.06,1.71-9.15,2.38-13.65,2.49l-83.88,1.98c-4.83.12-10.57.69-16.7,1.32-6.14.63-12.68,1.31-19.14,1.64-13,.67-25.44-.1-33.67-5.31-6.78-4.29-11.1-12.29-13.71-22.56-2.61-10.25-3.47-22.6-3.45-35.33.01-12.73.9-25.8,1.76-37.48.86-11.66,1.7-21.99,1.6-29.17v-.23s-.03-.06-.03-.06c-.04-4.32.21-9,1.38-13.06,1.19-4.11,3.3-7.46,6.93-9.21h0Z"/>
  <path class="st0" d="M364.11,170.84c.27,0,.4,1.01.4,3.04s-.13,3-.4,3l-2.64.04v5.04c0,.29-.55.51-1.64.64-1.09.13-2.04.2-2.84.2l-1.64-.08c-1.36-.11-2.04-.35-2.04-.72v-4.96h-7.96c-.69-.69-1.32-1.59-1.88-2.68-.56-1.12-.84-1.92-.84-2.4,0-.51.08-.91.24-1.2l8.76-15.52c.11-.21.92-.37,2.44-.48,1.55-.11,3.16-.16,4.84-.16s2.52.07,2.52.2l.04,16.04h2.64ZM354.47,170.88v-8.36l-4.68,8.36h4.68ZM383.22,154.8c.51,0,.76,1.11.76,3.32,0,.69-.07,1.52-.2,2.48-.11.93-.32,1.4-.64,1.4h-7.8l-.04,2.92h1.32c2.85,0,4.97.83,6.36,2.48,1.41,1.65,2.12,3.84,2.12,6.56s-.96,4.95-2.88,6.68c-1.92,1.71-4.39,2.56-7.4,2.56s-5.21-.43-6.6-1.28c-.21-.35-.32-.88-.32-1.6s.11-1.79.32-3.12c.21-1.36.51-2.04.88-2.04.03,0,.11.05.24.16,1.89.77,3.33,1.16,4.32,1.16s1.84-.27,2.48-.8c.67-.56,1-1.27,1-2.12,0-2.13-1.15-3.2-3.44-3.2l-3.44.04c-.27.05-.53-.05-.8-.32-.27-.29-.4-.67-.4-1.12v-12.52c0-1.09.4-1.64,1.2-1.64h12.96Z"/>
  <path class="st0" d="M330.93,218.78c0-.29.1-.54.31-.74.21-.21.47-.31.76-.31h8.76s.01-.01.01-.01c.29,0,.54.11.75.32.21.21.32.46.32.75s-.11.55-.32.76-.46.31-.75.31h-7.69s.01,3.92.01,3.92l5.6-.05h.12c.29,0,.52.11.7.34.18.23.27.45.27.67,0,.31-.1.58-.3.81-.2.22-.46.33-.77.33l-5.6.05v6.25s.01.02.01.02c0,.29-.11.53-.32.74-.21.21-.46.31-.75.31s-.55-.1-.76-.31c-.21-.21-.31-.45-.31-.74h0s-.03-13.43-.03-13.43ZM344.81,233.24c-.29,0-.55-.1-.76-.31-.21-.22-.31-.47-.31-.76v-13.44c-.01-.27.09-.52.29-.74.2-.22.44-.33.72-.33.33,0,.6.1.81.31.22.2.32.46.32.76v13.44c.01.29-.1.55-.31.76-.21.21-.46.31-.75.31ZM360.79,227.43c.26,0,.49.1.7.31.22.2.32.43.32.68,0,.2-.04.37-.11.52-.36.79-.87,1.52-1.53,2.2-.65.67-1.43,1.21-2.33,1.62-.9.41-1.92.61-3.04.61s-2.11-.21-3.01-.63c-.89-.42-1.66-1-2.3-1.73-.63-.74-1.12-1.58-1.46-2.54-.34-.96-.51-1.97-.51-3.04s.17-2.06.51-3.01c.34-.95.84-1.79,1.47-2.52.64-.74,1.4-1.32,2.29-1.74.89-.42,1.88-.63,2.96-.63s2.1.2,3,.59c.9.39,1.68.91,2.34,1.56.67.65,1.18,1.35,1.56,2.13.08.15.12.31.12.47,0,.26-.1.51-.29.73-.19.21-.4.32-.65.32s-.46-.05-.67-.15c-.19-.11-.34-.26-.44-.47-.4-.83-1.03-1.54-1.89-2.14-.85-.59-1.88-.89-3.07-.89-1.04,0-1.94.26-2.71.79-.76.53-1.35,1.24-1.76,2.12-.42.87-.62,1.83-.62,2.87s.2,2.01.61,2.88c.42.87,1,1.57,1.76,2.1.77.52,1.68.78,2.73.78.79,0,1.51-.14,2.16-.43.66-.29,1.23-.68,1.71-1.16.48-.48.85-.99,1.1-1.55.19-.43.54-.64,1.04-.64ZM376.15,227.43c.26,0,.49.1.7.31.21.2.32.43.32.68,0,.2-.04.37-.11.52-.36.79-.87,1.52-1.52,2.2-.65.67-1.43,1.21-2.33,1.62-.9.41-1.92.61-3.04.61s-2.11-.21-3.01-.63c-.9-.42-1.66-1-2.3-1.73-.63-.74-1.12-1.58-1.46-2.54-.34-.96-.51-1.97-.51-3.04s.17-2.06.52-3.01c.34-.95.83-1.79,1.47-2.52.64-.74,1.4-1.32,2.29-1.74.89-.42,1.88-.63,2.96-.63s2.1.2,3,.59c.9.39,1.68.91,2.34,1.56.67.65,1.18,1.35,1.56,2.13.08.15.12.31.12.47,0,.26-.1.51-.29.73-.19.21-.4.32-.65.32s-.47-.05-.67-.15c-.19-.11-.34-.26-.44-.47-.4-.83-1.03-1.54-1.89-2.14-.85-.59-1.88-.89-3.07-.89-1.04,0-1.94.26-2.71.79-.76.53-1.35,1.24-1.76,2.12-.42.87-.62,1.83-.62,2.87s.2,2.01.61,2.88c.42.87,1,1.57,1.76,2.1.77.52,1.68.78,2.73.78.79,0,1.51-.14,2.16-.43.66-.29,1.23-.68,1.71-1.16.48-.48.85-.99,1.1-1.55.19-.43.54-.64,1.04-.64ZM379.85,233.24c-.29,0-.55-.1-.76-.31-.21-.22-.31-.47-.31-.76v-13.44c-.01-.27.09-.52.29-.74.2-.22.44-.33.72-.33.33,0,.6.1.81.31.21.2.32.46.32.76v13.44c.01.29-.1.55-.31.76-.21.21-.46.31-.75.31ZM332.28,278.16c-.29,0-.55-.1-.76-.31-.21-.21-.31-.47-.31-.76,0-.36.11-.74.33-1.13.22-.39.5-.77.83-1.14.33-.37.66-.71,1-1.02.34-.31.62-.56.85-.76.45-.39.94-.76,1.46-1.1.52-.34,1.02-.7,1.48-1.08.47-.38.86-.81,1.15-1.29.3-.49.45-1.06.45-1.73,0-.52-.12-.99-.35-1.41-.24-.42-.55-.74-.96-.99-.4-.25-.85-.38-1.35-.38-.62,0-1.16.2-1.61.59-.44.39-.72.84-.83,1.34-.05.23-.18.43-.39.6-.2.17-.43.26-.68.26-.29,0-.55-.1-.76-.31-.21-.21-.31-.46-.31-.74,0-.53.13-1.03.4-1.49.26-.47.62-.89,1.05-1.25.44-.36.94-.64,1.48-.84.54-.21,1.1-.31,1.67-.31.93,0,1.75.22,2.47.65.72.43,1.29,1.01,1.7,1.75.42.74.62,1.56.62,2.47s-.18,1.76-.55,2.44c-.37.68-.83,1.27-1.39,1.78-.56.5-1.14.96-1.73,1.36-.6.41-1.12.81-1.59,1.21-.52.46-.97.93-1.36,1.41h6.28c.29,0,.54.11.75.32.21.21.32.46.32.75s-.11.55-.32.76c-.21.21-.46.31-.75.31h-8.29ZM349.49,278.4c-1,0-1.86-.21-2.59-.63-.72-.43-1.32-1.01-1.77-1.73-.46-.73-.8-1.54-1.02-2.44-.21-.9-.32-1.83-.32-2.77s.11-1.92.33-2.82c.23-.91.58-1.72,1.05-2.43.48-.72,1.09-1.28,1.84-1.7.75-.42,1.64-.62,2.68-.62.98.02,1.82.25,2.52.68.71.42,1.29.99,1.74,1.7.45.71.78,1.5,1,2.39.21.88.32,1.79.32,2.73,0,.99-.11,1.94-.33,2.86-.22.91-.57,1.73-1.03,2.45-.47.72-1.06,1.3-1.79,1.72-.73.42-1.61.63-2.62.63ZM349.54,276.25c.85,0,1.54-.26,2.06-.77.53-.52.92-1.21,1.16-2.05.24-.85.36-1.78.36-2.77,0-.93-.12-1.79-.38-2.59-.24-.8-.63-1.45-1.15-1.93-.52-.49-1.2-.73-2.03-.73s-1.54.25-2.07.75c-.54.49-.93,1.15-1.18,1.96-.25.82-.38,1.71-.38,2.69s.12,1.88.36,2.71c.25.82.64,1.49,1.17,1.99.53.5,1.22.75,2.06.75ZM358.51,278.16c-.29,0-.55-.1-.76-.31-.21-.21-.31-.47-.31-.76,0-.36.11-.74.33-1.13.22-.39.5-.77.83-1.14.33-.37.66-.71,1-1.02.34-.31.62-.56.85-.76.45-.39.94-.76,1.46-1.1.52-.34,1.02-.7,1.48-1.08.47-.38.86-.81,1.15-1.29.3-.49.45-1.06.45-1.73,0-.52-.12-.99-.36-1.41-.24-.42-.55-.74-.96-.99-.4-.25-.85-.38-1.35-.38-.62,0-1.16.2-1.61.59-.44.39-.72.84-.83,1.34-.05.23-.18.43-.39.6-.2.17-.43.26-.68.26-.29,0-.55-.1-.76-.31-.21-.21-.31-.46-.31-.74,0-.53.13-1.03.4-1.49.26-.47.62-.89,1.05-1.25.44-.36.94-.64,1.48-.84.54-.21,1.1-.31,1.67-.31.93,0,1.76.22,2.47.65.72.43,1.29,1.01,1.7,1.75.42.74.62,1.56.62,2.47s-.18,1.76-.55,2.44c-.37.68-.83,1.27-1.39,1.78-.56.5-1.14.96-1.73,1.36-.59.41-1.12.81-1.59,1.21-.51.46-.97.93-1.36,1.41h6.28c.29,0,.54.11.75.32.22.21.32.46.32.75s-.11.55-.32.76c-.21.21-.46.31-.75.31h-8.29ZM377.09,267.5c0-.54-.22-1.01-.68-1.41-.44-.4-.97-.6-1.58-.6-.48,0-.92.13-1.32.4-.4.26-.66.55-.77.85-.1.26-.24.48-.42.63-.18.16-.43.24-.76.24-.24,0-.46-.1-.67-.3-.21-.21-.31-.43-.31-.65,0-.1,0-.19.02-.26.02-.08.04-.14.05-.19.29-.77.8-1.44,1.52-2,.73-.57,1.62-.85,2.65-.85.79,0,1.53.18,2.19.55.67.36,1.21.87,1.61,1.5.41.64.61,1.36.61,2.18,0,.62-.13,1.18-.4,1.67-.26.49-.56.9-.9,1.24.5.34.9.78,1.19,1.31s.44,1.14.44,1.84c0,.91-.23,1.72-.7,2.43-.46.7-1.08,1.25-1.84,1.65s-1.58.6-2.47.6c-.96,0-1.82-.23-2.57-.69-.75-.46-1.35-.99-1.78-1.59-.14-.19-.2-.4-.2-.63,0-.29.11-.53.34-.71.24-.18.5-.27.78-.27.34,0,.61.14.83.43.25.32.6.62,1.05.89.45.27.95.41,1.48.41s1.01-.11,1.45-.33c.44-.22.8-.52,1.06-.89.27-.38.41-.8.41-1.26,0-.72-.24-1.22-.73-1.48-.49-.27-1.18-.41-2.07-.42-.28,0-.52-.1-.73-.3-.2-.2-.3-.46-.3-.76,0-.39.13-.68.4-.86.27-.19.54-.28.82-.28.66,0,1.2-.17,1.63-.5.43-.34.64-.86.64-1.58Z"/>
  <path class="st2" d="M437.72,195.35c.52.48.98,1.02,1.21,1.62l-.94.34c.05.14.08.27.08.41v.13c-.04.26-.15.46-.33.64l.7.71c-.61.59-1.57.92-2.56,1.07l-.15-.99c-.32.05-.64.08-.96.1h-.31s-2.18.06-2.18.06l.02,1-4.37.1-.02-1-4.37.1.02,1-4.37.1-.02-1-2.18.05c-.59.01-1.24.06-1.91.12l.09,1c-1.14.1-2.4.24-3.69.36l-.09-1c-1.22.11-2.44.19-3.6.18v1c-1.32-.01-2.58-.13-3.68-.45l.27-.96c-.55-.16-1.03-.36-1.43-.61-.49-.31-.92-.74-1.29-1.29l-.83.56c-.75-1.11-1.26-2.55-1.58-4.19l.98-.19c-.26-1.31-.4-2.78-.46-4.32l-1,.04c-.06-1.47-.04-3,.02-4.5l1,.04c.06-1.52.16-3.03.26-4.46l-1-.07c.12-1.65.24-3.19.32-4.5h0s1,.06,1,.06c.05-.86.08-1.64.07-2.32v-.23s0,0,0,0c0-.35,0-.7.04-1.05l-1-.08c.08-.95.29-1.89.78-2.6l.82.57c.13-.18.27-.33.45-.45l.18-.1h0c.26-.13.53-.17.83-.16l.06-1c.85.05,1.71.45,2.51.96l-.54.84c.35.22.7.48,1.03.73h0c.51.4,1.02.79,1.54,1.19l.61-.79c1.02.79,2.05,1.58,3.07,2.37h0s-.61.79-.61.79c1.03.79,2.05,1.58,3.07,2.38l.61-.79c1.02.79,2.05,1.58,3.07,2.38h0s-.61.79-.61.79c1.02.79,2.05,1.58,3.07,2.38l.61-.79h0c1.02.79,2.05,1.58,3.07,2.37h0s-.61.79-.61.79c1.02.79,2.05,1.58,3.07,2.38l.61-.79h0c1.02.79,2.05,1.58,3.07,2.38h0s-.61.79-.61.79c1.02.79,2.05,1.58,3.07,2.38l.61-.79h0c1.02.79,2.05,1.58,3.07,2.37h0s-.61.79-.61.79c.51.4,1.03.79,1.54,1.19h0c.25.19.49.39.72.6l.67-.74ZM399.42,174.32h0s0,0,0,0h.02-.02Z"/>
  <path class="st1" d="M401.69,368.87c.48-.23,1.04-.21,1.74.06.71.28,1.45.77,2.15,1.32h0c5.12,3.96,10.25,7.92,15.37,11.88,5.12,3.96,10.25,7.92,15.37,11.88h0c.53.41,1.01.82,1.34,1.26.33.43.43.78.4,1.11-.05.43-.35.8-1.06,1.1-.63.26-1.43.4-2.22.44h-.34s-17.48.42-17.48.42c-1.04.02-2.27.15-3.54.28-1.28.13-2.62.27-3.95.34-2.71.14-5.07-.05-6.55-.98-1.16-.73-1.99-2.15-2.51-4.2-.52-2.03-.7-4.51-.69-7.12,0-2.61.18-5.29.36-7.71.18-2.39.36-4.58.34-6.12v-.23s0,0,0,0c0-.82.06-1.62.25-2.3.21-.73.55-1.18,1.02-1.41h0Z"/>
  <path class="st0" d="M426.44,414.57c0,1.42-.58,2.59-1.75,3.52.64.42,1.18.99,1.64,1.69.46.69.69,1.51.69,2.44,0,1.02-.28,1.92-.84,2.68-.56.76-1.29,1.35-2.18,1.78-.89.42-1.83.64-2.83.64s-1.96-.21-2.84-.62c-.89-.42-1.61-1.02-2.17-1.78-.55-.77-.82-1.68-.82-2.72,0-.95.23-1.77.69-2.45.46-.69.99-1.25,1.61-1.66-.52-.42-.94-.94-1.26-1.56-.31-.63-.47-1.34-.47-2.13,0-.91.24-1.73.74-2.46.5-.73,1.15-1.3,1.94-1.73.8-.43,1.65-.65,2.57-.65s1.82.22,2.63.66c.8.43,1.45,1.03,1.94,1.79.49.75.74,1.61.74,2.58ZM418.42,414.41c0,.67.27,1.24.81,1.7.55.47,1.2.7,1.94.7s1.36-.22,1.9-.65c.55-.44.83-1.02.83-1.74,0-.43-.13-.82-.39-1.18-.26-.36-.6-.65-1.02-.86-.41-.21-.83-.32-1.28-.32-.75,0-1.41.22-1.97.67-.55.45-.83,1.01-.83,1.68ZM424.45,422.16c0-.49-.16-.93-.47-1.32-.3-.39-.71-.7-1.22-.93-.5-.23-1.04-.34-1.62-.34s-1.1.11-1.6.33c-.5.21-.9.51-1.22.9-.3.38-.46.83-.46,1.36s.15.95.46,1.35c.3.39.71.7,1.21.93.5.22,1.05.33,1.64.33s1.13-.11,1.62-.33c.5-.23.9-.54,1.21-.93.3-.4.46-.85.46-1.35Z"/>
  <path d="M418.99,371.65c.39.39,1.02.39,1.41,0l6.36-6.36c.39-.39.39-1.02,0-1.41-.39-.39-1.02-.39-1.41,0l-5.66,5.66-5.66-5.66c-.39-.39-1.02-.39-1.41,0-.39.39-.39,1.02,0,1.41l6.36,6.36ZM419.7,207.13h-1v2.05h2v-2.05h-1ZM419.7,213.27h-1v4.09h2v-4.09h-1ZM419.7,221.46h-1v4.1h2v-4.1h-1ZM419.7,229.65h-1v4.1h2v-4.1h-1ZM419.7,237.84h-1v4.1h2v-4.1h-1ZM419.7,246.04h-1v4.1h2v-4.1h-1ZM419.7,254.23h-1v4.1h2v-4.1h-1ZM419.7,262.42h-1v4.1h2v-4.1h-1ZM419.7,270.61h-1v4.1h2v-4.1h-1ZM419.7,278.8h-1v4.1h2v-4.1h-1ZM419.7,286.99h-1v4.1h2v-4.1h-1ZM419.7,295.18h-1v4.1h2v-4.1h-1ZM419.7,303.37h-1v4.1h2v-4.1h-1ZM419.7,311.56h-1v4.1h2v-4.1h-1ZM419.7,319.75h-1v4.1h2v-4.1h-1ZM419.7,327.94h-1v4.1h2v-4.1h-1ZM419.7,336.13h-1v4.1h2v-4.1h-1ZM419.7,344.32h-1v4.1h2v-4.1h-1ZM419.7,352.51h-1v4.1h2v-4.1h-1ZM419.7,360.7h-1v4.1h2v-4.1h-1ZM419.7,368.89h-1v2.05h2v-2.05h-1Z"/>
  <g>
    <path class="st0" d="M43.96,525.95l-1.14,1.5v.02l1.81-.24v.82l-1.81-.22v.02l1.15,1.44-.76.43-.72-1.68h-.02l-.78,1.69-.68-.43,1.14-1.46v-.02l-1.77.23v-.82l1.76.23v-.02l-1.13-1.46.73-.42.74,1.67h.02l.73-1.68.72.41Z"/>
    <path class="st0" d="M45.9,525.67h4.35v.88h-3.31v2.69h3.06v.86h-3.06v3.66h-1.04v-8.08Z"/>
    <path class="st0" d="M51.93,531.04c.02,1.43.94,2.01,1.99,2.01.76,0,1.21-.13,1.61-.3l.18.76c-.37.17-1.01.36-1.93.36-1.79,0-2.85-1.18-2.85-2.93s1.03-3.13,2.72-3.13c1.89,0,2.4,1.67,2.4,2.73,0,.22-.02.38-.04.49h-4.08ZM55.02,530.29c.01-.67-.28-1.71-1.46-1.71-1.07,0-1.54.98-1.62,1.71h3.08Z"/>
    <path class="st0" d="M57.21,532.67c.31.2.86.42,1.39.42.77,0,1.13-.38,1.13-.86,0-.5-.3-.78-1.08-1.07-1.04-.37-1.54-.95-1.54-1.64,0-.93.76-1.7,2-1.7.59,0,1.1.17,1.43.36l-.26.77c-.23-.14-.65-.34-1.19-.34-.62,0-.97.36-.97.79,0,.48.35.7,1.1.98,1.01.38,1.52.89,1.52,1.75,0,1.02-.79,1.74-2.17,1.74-.64,0-1.22-.16-1.63-.4l.26-.8Z"/>
    <path class="st0" d="M63.38,526.28v1.67h1.51v.8h-1.51v3.13c0,.72.2,1.13.79,1.13.28,0,.48-.04.61-.07l.05.79c-.2.08-.53.14-.94.14-.49,0-.89-.16-1.14-.44-.3-.31-.41-.83-.41-1.51v-3.17h-.9v-.8h.9v-1.39l1.03-.28Z"/>
    <path class="st0" d="M67.25,526.32c.01.36-.25.65-.67.65-.37,0-.64-.29-.64-.65s.28-.66.66-.66.65.29.65.66ZM66.08,533.75v-5.8h1.05v5.8h-1.05Z"/>
    <path class="st0" d="M69.29,527.95l1.14,3.26c.19.53.35,1.01.47,1.49h.04c.13-.48.3-.96.49-1.49l1.13-3.26h1.1l-2.28,5.8h-1.01l-2.21-5.8h1.13Z"/>
    <path class="st0" d="M77.82,533.75l-.08-.73h-.04c-.32.46-.95.86-1.78.86-1.17,0-1.77-.83-1.77-1.67,0-1.4,1.25-2.17,3.49-2.16v-.12c0-.48-.13-1.34-1.32-1.34-.54,0-1.1.17-1.51.43l-.24-.7c.48-.31,1.17-.52,1.91-.52,1.78,0,2.21,1.21,2.21,2.37v2.17c0,.5.02,1,.1,1.39h-.96ZM77.67,530.79c-1.15-.02-2.46.18-2.46,1.31,0,.68.46,1.01,1,1.01.76,0,1.24-.48,1.4-.97.04-.11.06-.23.06-.34v-1.01Z"/>
    <path class="st0" d="M80.39,525.24h1.05v8.52h-1.05v-8.52Z"/>
    <path class="st0" d="M86.85,525.67v8.08h-1.04v-8.08h1.04Z"/>
    <path class="st0" d="M88.76,529.52c0-.6-.01-1.09-.05-1.57h.94l.06.96h.02c.29-.55.96-1.09,1.92-1.09.8,0,2.05.48,2.05,2.47v3.47h-1.05v-3.35c0-.94-.35-1.71-1.34-1.71-.7,0-1.24.49-1.42,1.08-.05.13-.07.31-.07.49v3.49h-1.05v-4.23Z"/>
    <path class="st0" d="M96.64,526.28v1.67h1.51v.8h-1.51v3.13c0,.72.2,1.13.79,1.13.28,0,.48-.04.61-.07l.05.79c-.2.08-.53.14-.94.14-.49,0-.89-.16-1.14-.44-.3-.31-.41-.83-.41-1.51v-3.17h-.9v-.8h.9v-1.39l1.03-.28Z"/>
    <path class="st0" d="M99.85,531.04c.02,1.43.94,2.01,1.99,2.01.76,0,1.21-.13,1.61-.3l.18.76c-.37.17-1.01.36-1.93.36-1.79,0-2.85-1.18-2.85-2.93s1.03-3.13,2.72-3.13c1.89,0,2.4,1.67,2.4,2.73,0,.22-.02.38-.04.49h-4.08ZM102.95,530.29c.01-.67-.28-1.71-1.46-1.71-1.07,0-1.54.98-1.62,1.71h3.08Z"/>
    <path class="st0" d="M105.28,529.76c0-.68-.01-1.27-.05-1.81h.92l.04,1.14h.05c.26-.78.9-1.27,1.61-1.27.12,0,.2.01.3.04v1c-.11-.02-.22-.04-.36-.04-.74,0-1.27.56-1.42,1.36-.02.14-.05.31-.05.49v3.09h-1.04v-3.99Z"/>
    <path class="st0" d="M109.25,529.52c0-.6-.01-1.09-.05-1.57h.94l.06.96h.02c.29-.55.96-1.09,1.92-1.09.8,0,2.05.48,2.05,2.47v3.47h-1.05v-3.35c0-.94-.35-1.71-1.34-1.71-.7,0-1.24.49-1.42,1.08-.05.13-.07.31-.07.49v3.49h-1.05v-4.23Z"/>
    <path class="st0" d="M119.13,533.75l-.08-.73h-.04c-.32.46-.95.86-1.78.86-1.17,0-1.77-.83-1.77-1.67,0-1.4,1.25-2.17,3.49-2.16v-.12c0-.48-.13-1.34-1.32-1.34-.54,0-1.1.17-1.51.43l-.24-.7c.48-.31,1.17-.52,1.91-.52,1.78,0,2.21,1.21,2.21,2.37v2.17c0,.5.02,1,.1,1.39h-.96ZM118.97,530.79c-1.15-.02-2.46.18-2.46,1.31,0,.68.46,1.01,1,1.01.76,0,1.24-.48,1.4-.97.04-.11.06-.23.06-.34v-1.01Z"/>
    <path class="st0" d="M125.83,533.54c-.28.14-.89.34-1.67.34-1.75,0-2.89-1.19-2.89-2.96s1.22-3.08,3.12-3.08c.62,0,1.17.16,1.46.3l-.24.82c-.25-.14-.65-.28-1.22-.28-1.33,0-2.05.98-2.05,2.2,0,1.34.86,2.17,2.01,2.17.6,0,1-.16,1.29-.29l.18.79Z"/>
    <path class="st0" d="M128.25,526.32c.01.36-.25.65-.67.65-.37,0-.64-.29-.64-.65s.28-.66.66-.66.65.29.65.66ZM127.07,533.75v-5.8h1.05v5.8h-1.05Z"/>
    <path class="st0" d="M135.13,530.8c0,2.15-1.49,3.08-2.89,3.08-1.57,0-2.78-1.15-2.78-2.99,0-1.94,1.27-3.08,2.88-3.08s2.79,1.21,2.79,2.99ZM130.53,530.86c0,1.27.73,2.23,1.76,2.23s1.76-.95,1.76-2.25c0-.98-.49-2.23-1.74-2.23s-1.79,1.15-1.79,2.25Z"/>
    <path class="st0" d="M136.47,529.52c0-.6-.01-1.09-.05-1.57h.94l.06.96h.02c.29-.55.96-1.09,1.92-1.09.8,0,2.05.48,2.05,2.47v3.47h-1.05v-3.35c0-.94-.35-1.71-1.34-1.71-.7,0-1.24.49-1.42,1.08-.05.13-.07.31-.07.49v3.49h-1.05v-4.23Z"/>
    <path class="st0" d="M146.34,533.75l-.08-.73h-.04c-.32.46-.95.86-1.78.86-1.17,0-1.77-.83-1.77-1.67,0-1.4,1.25-2.17,3.49-2.16v-.12c0-.48-.13-1.34-1.32-1.34-.54,0-1.1.17-1.51.43l-.24-.7c.48-.31,1.17-.52,1.91-.52,1.78,0,2.21,1.21,2.21,2.37v2.17c0,.5.02,1,.1,1.39h-.96ZM146.19,530.79c-1.15-.02-2.46.18-2.46,1.31,0,.68.46,1.01,1,1.01.76,0,1.24-.48,1.4-.97.04-.11.06-.23.06-.34v-1.01Z"/>
    <path class="st0" d="M148.91,525.24h1.05v8.52h-1.05v-8.52Z"/>
    <path class="st0" d="M159.3,525.24v7.02c0,.52.01,1.1.05,1.5h-.95l-.05-1.01h-.02c-.32.65-1.03,1.14-1.98,1.14-1.4,0-2.48-1.19-2.48-2.95-.01-1.93,1.19-3.12,2.6-3.12.89,0,1.49.42,1.75.89h.02v-3.47h1.06ZM158.24,530.31c0-.13-.01-.31-.05-.44-.16-.67-.73-1.22-1.52-1.22-1.09,0-1.74.96-1.74,2.24,0,1.17.58,2.15,1.71,2.15.71,0,1.36-.47,1.55-1.26.04-.14.05-.29.05-.46v-1.01Z"/>
    <path class="st0" d="M161.64,531.04c.02,1.43.94,2.01,1.99,2.01.76,0,1.21-.13,1.61-.3l.18.76c-.37.17-1.01.36-1.93.36-1.79,0-2.85-1.18-2.85-2.93s1.03-3.13,2.72-3.13c1.89,0,2.4,1.67,2.4,2.73,0,.22-.02.38-.04.49h-4.08ZM164.74,530.29c.01-.67-.28-1.71-1.46-1.71-1.07,0-1.54.98-1.62,1.71h3.08Z"/>
    <path class="st0" d="M175.3,533.49c-.38.19-1.15.38-2.13.38-2.28,0-3.99-1.44-3.99-4.09s1.71-4.25,4.22-4.25c1.01,0,1.64.22,1.92.36l-.25.85c-.4-.19-.96-.33-1.63-.33-1.89,0-3.15,1.21-3.15,3.33,0,1.98,1.14,3.25,3.11,3.25.64,0,1.28-.13,1.7-.34l.22.83Z"/>
    <path class="st0" d="M177.71,526.32c.01.36-.25.65-.67.65-.37,0-.64-.29-.64-.65s.28-.66.66-.66.65.29.65.66ZM176.53,533.75v-5.8h1.05v5.8h-1.05Z"/>
    <path class="st0" d="M179.34,529.52c0-.6-.01-1.09-.05-1.57h.94l.06.96h.02c.29-.55.96-1.09,1.92-1.09.8,0,2.05.48,2.05,2.47v3.47h-1.05v-3.35c0-.94-.35-1.71-1.34-1.71-.7,0-1.24.49-1.42,1.08-.05.13-.07.31-.07.49v3.49h-1.05v-4.23Z"/>
    <path class="st0" d="M186.59,531.04c.02,1.43.94,2.01,1.99,2.01.76,0,1.21-.13,1.61-.3l.18.76c-.37.17-1.01.36-1.93.36-1.79,0-2.85-1.18-2.85-2.93s1.03-3.13,2.72-3.13c1.89,0,2.4,1.67,2.4,2.73,0,.22-.02.38-.04.49h-4.08ZM189.69,530.29c.01-.67-.28-1.71-1.46-1.71-1.07,0-1.54.98-1.62,1.71h3.08Z"/>
    <path class="st0" d="M199.57,525.24v7.02c0,.52.01,1.1.05,1.5h-.95l-.05-1.01h-.02c-.32.65-1.03,1.14-1.98,1.14-1.4,0-2.48-1.19-2.48-2.95-.01-1.93,1.19-3.12,2.6-3.12.89,0,1.49.42,1.75.89h.02v-3.47h1.06ZM198.52,530.31c0-.13-.01-.31-.05-.44-.16-.67-.73-1.22-1.52-1.22-1.09,0-1.74.96-1.74,2.24,0,1.17.58,2.15,1.71,2.15.71,0,1.36-.47,1.55-1.26.04-.14.05-.29.05-.46v-1.01Z"/>
    <path class="st0" d="M201.91,531.04c.02,1.43.94,2.01,1.99,2.01.76,0,1.21-.13,1.61-.3l.18.76c-.37.17-1.01.36-1.93.36-1.79,0-2.85-1.18-2.85-2.93s1.03-3.13,2.72-3.13c1.89,0,2.4,1.67,2.4,2.73,0,.22-.02.38-.04.49h-4.08ZM205.01,530.29c.01-.67-.28-1.71-1.46-1.71-1.07,0-1.54.98-1.62,1.71h3.08Z"/>
    <path class="st0" d="M215.57,533.49c-.38.19-1.15.38-2.13.38-2.28,0-3.99-1.44-3.99-4.09s1.71-4.25,4.22-4.25c1.01,0,1.64.22,1.92.36l-.25.85c-.4-.19-.96-.33-1.63-.33-1.89,0-3.15,1.21-3.15,3.33,0,1.98,1.14,3.25,3.11,3.25.64,0,1.28-.13,1.7-.34l.22.83Z"/>
    <path class="st0" d="M219.97,533.75l-.08-.73h-.04c-.32.46-.95.86-1.78.86-1.17,0-1.77-.83-1.77-1.67,0-1.4,1.25-2.17,3.49-2.16v-.12c0-.48-.13-1.34-1.32-1.34-.54,0-1.1.17-1.51.43l-.24-.7c.48-.31,1.17-.52,1.91-.52,1.78,0,2.21,1.21,2.21,2.37v2.17c0,.5.02,1,.1,1.39h-.96ZM219.82,530.79c-1.15-.02-2.46.18-2.46,1.31,0,.68.46,1.01,1,1.01.76,0,1.24-.48,1.4-.97.04-.11.06-.23.06-.34v-1.01Z"/>
    <path class="st0" d="M222.54,529.76c0-.68-.01-1.27-.05-1.81h.92l.04,1.14h.05c.26-.78.9-1.27,1.61-1.27.12,0,.2.01.3.04v1c-.11-.02-.22-.04-.36-.04-.74,0-1.27.56-1.42,1.36-.02.14-.05.31-.05.49v3.09h-1.04v-3.99Z"/>
    <path class="st0" d="M228.02,526.28v1.67h1.51v.8h-1.51v3.13c0,.72.2,1.13.79,1.13.28,0,.48-.04.61-.07l.05.79c-.2.08-.53.14-.94.14-.49,0-.89-.16-1.14-.44-.3-.31-.41-.83-.41-1.51v-3.17h-.9v-.8h.9v-1.39l1.03-.28Z"/>
    <path class="st0" d="M233.94,533.75l-.08-.73h-.04c-.32.46-.95.86-1.78.86-1.17,0-1.77-.83-1.77-1.67,0-1.4,1.25-2.17,3.49-2.16v-.12c0-.48-.13-1.34-1.32-1.34-.54,0-1.1.17-1.51.43l-.24-.7c.48-.31,1.17-.52,1.91-.52,1.78,0,2.21,1.21,2.21,2.37v2.17c0,.5.02,1,.1,1.39h-.96ZM233.78,530.79c-1.15-.02-2.46.18-2.46,1.31,0,.68.46,1.01,1,1.01.76,0,1.24-.48,1.4-.97.04-.11.06-.23.06-.34v-1.01Z"/>
    <path class="st0" d="M241.51,527.95c-.02.42-.05.89-.05,1.59v3.37c0,1.33-.26,2.15-.83,2.65-.56.53-1.38.7-2.11.7s-1.46-.17-1.93-.48l.26-.8c.38.24.98.46,1.7.46,1.08,0,1.87-.56,1.87-2.03v-.65h-.02c-.32.54-.95.97-1.85.97-1.44,0-2.47-1.22-2.47-2.83,0-1.97,1.28-3.08,2.61-3.08,1.01,0,1.56.53,1.81,1.01h.02l.05-.88h.92ZM240.42,530.24c0-.18-.01-.34-.06-.48-.19-.61-.71-1.12-1.48-1.12-1.01,0-1.73.85-1.73,2.19,0,1.14.58,2.09,1.71,2.09.65,0,1.24-.41,1.46-1.08.06-.18.08-.38.08-.56v-1.04Z"/>
    <path class="st0" d="M243.81,531.04c.02,1.43.94,2.01,1.99,2.01.76,0,1.21-.13,1.61-.3l.18.76c-.37.17-1.01.36-1.93.36-1.79,0-2.85-1.18-2.85-2.93s1.03-3.13,2.72-3.13c1.89,0,2.4,1.67,2.4,2.73,0,.22-.02.38-.04.49h-4.08ZM246.9,530.29c.01-.67-.28-1.71-1.46-1.71-1.07,0-1.54.98-1.62,1.71h3.08Z"/>
    <path class="st0" d="M249.23,529.52c0-.6-.01-1.09-.05-1.57h.94l.06.96h.02c.29-.55.96-1.09,1.92-1.09.8,0,2.05.48,2.05,2.47v3.47h-1.05v-3.35c0-.94-.35-1.71-1.34-1.71-.7,0-1.24.49-1.42,1.08-.05.13-.07.31-.07.49v3.49h-1.05v-4.23Z"/>
    <path class="st0" d="M259.1,533.75l-.08-.73h-.04c-.32.46-.95.86-1.78.86-1.17,0-1.77-.83-1.77-1.67,0-1.4,1.25-2.17,3.49-2.16v-.12c0-.48-.13-1.34-1.32-1.34-.54,0-1.1.17-1.51.43l-.24-.7c.48-.31,1.17-.52,1.91-.52,1.78,0,2.21,1.21,2.21,2.37v2.17c0,.5.02,1,.1,1.39h-.96ZM258.95,530.79c-1.15-.02-2.46.18-2.46,1.31,0,.68.46,1.01,1,1.01.76,0,1.24-.48,1.4-.97.04-.11.06-.23.06-.34v-1.01Z"/>
    <path class="st0" d="M269.23,525.24v7.02c0,.52.01,1.1.05,1.5h-.95l-.05-1.01h-.02c-.32.65-1.03,1.14-1.98,1.14-1.4,0-2.48-1.19-2.48-2.95-.01-1.93,1.19-3.12,2.6-3.12.89,0,1.49.42,1.75.89h.02v-3.47h1.06ZM268.17,530.31c0-.13-.01-.31-.05-.44-.16-.67-.73-1.22-1.52-1.22-1.09,0-1.74.96-1.74,2.24,0,1.17.58,2.15,1.71,2.15.71,0,1.36-.47,1.55-1.26.04-.14.05-.29.05-.46v-1.01Z"/>
    <path class="st0" d="M271.57,531.04c.02,1.43.94,2.01,1.99,2.01.76,0,1.21-.13,1.61-.3l.18.76c-.37.17-1.01.36-1.93.36-1.79,0-2.85-1.18-2.85-2.93s1.03-3.13,2.72-3.13c1.89,0,2.4,1.67,2.4,2.73,0,.22-.02.38-.04.49h-4.08ZM274.67,530.29c.01-.67-.28-1.71-1.46-1.71-1.07,0-1.54.98-1.62,1.71h3.08Z"/>
    <path class="st0" d="M280.62,525.67v8.08h-1.04v-8.08h1.04Z"/>
    <path class="st0" d="M282.53,529.52c0-.6-.01-1.09-.05-1.57h.94l.06.96h.02c.29-.55.96-1.09,1.92-1.09.8,0,2.05.48,2.05,2.47v3.47h-1.05v-3.35c0-.94-.35-1.71-1.34-1.71-.7,0-1.24.49-1.42,1.08-.05.13-.07.31-.07.49v3.49h-1.05v-4.23Z"/>
    <path class="st0" d="M294.2,525.24v7.02c0,.52.01,1.1.05,1.5h-.95l-.05-1.01h-.02c-.32.65-1.03,1.14-1.98,1.14-1.4,0-2.48-1.19-2.48-2.95-.01-1.93,1.19-3.12,2.6-3.12.89,0,1.49.42,1.75.89h.02v-3.47h1.06ZM293.15,530.31c0-.13-.01-.31-.05-.44-.16-.67-.73-1.22-1.52-1.22-1.09,0-1.74.96-1.74,2.24,0,1.17.58,2.15,1.71,2.15.71,0,1.36-.47,1.55-1.26.04-.14.05-.29.05-.46v-1.01Z"/>
    <path class="st0" d="M297.13,526.32c.01.36-.25.65-.67.65-.37,0-.64-.29-.64-.65s.28-.66.66-.66.65.29.65.66ZM295.96,533.75v-5.8h1.05v5.8h-1.05Z"/>
    <path class="st0" d="M301.98,533.75l-.08-.73h-.04c-.32.46-.95.86-1.78.86-1.17,0-1.77-.83-1.77-1.67,0-1.4,1.25-2.17,3.49-2.16v-.12c0-.48-.13-1.34-1.32-1.34-.54,0-1.1.17-1.51.43l-.24-.7c.48-.31,1.17-.52,1.91-.52,1.78,0,2.21,1.21,2.21,2.37v2.17c0,.5.02,1,.1,1.39h-.96ZM301.82,530.79c-1.15-.02-2.46.18-2.46,1.31,0,.68.46,1.01,1,1.01.76,0,1.24-.48,1.4-.97.04-.11.06-.23.06-.34v-1.01Z"/>
    <path class="st0" d="M304.4,532.67c.31.2.86.42,1.39.42.77,0,1.13-.38,1.13-.86,0-.5-.3-.78-1.08-1.07-1.04-.37-1.54-.95-1.54-1.64,0-.93.76-1.7,2-1.7.59,0,1.1.17,1.43.36l-.26.77c-.23-.14-.65-.34-1.19-.34-.62,0-.97.36-.97.79,0,.48.35.7,1.1.98,1.01.38,1.52.89,1.52,1.75,0,1.02-.79,1.74-2.17,1.74-.64,0-1.22-.16-1.63-.4l.26-.8Z"/>
  </g>
</svg>