<svg width="270" height="345" viewBox="0 0 270 345" fill="none" xmlns="http://www.w3.org/2000/svg">
<path d="M196.915 82.5456C199.979 92.1662 210.405 97.9572 220.328 97.9105C230.251 97.9105 239.625 93.1002 247.673 87.2158C256.91 80.4908 265.232 71.8977 269.713 61.2497C278.081 41.4482 266.467 6.46859 241.042 18.9379C223.757 27.4376 189.919 60.5492 196.915 82.5456Z" fill="#F78D65"/>
<path d="M105.557 47.4739C107.66 57.6548 113.696 68.0226 123.528 70.8247C131.85 73.2065 141.087 69.3303 146.803 62.7453C152.519 56.1604 155.171 47.2403 155.903 38.4604C157.457 19.9199 145.797 -4.22491 123.802 0.632068C105.74 4.60171 102.493 32.4826 105.557 47.4739Z" fill="#F78D65"/>
<path d="M140.629 143.352C145.75 151.244 152.701 158.39 161.572 161.098C174.33 164.975 189.237 157.829 194.953 145.547C207.253 119.067 181.783 101.694 159.423 98.5649C132.809 94.8287 128.099 124.157 140.583 143.398L140.629 143.352Z" fill="#F78D65"/>
<path d="M53.3801 144.847C58.7759 151.619 67.0069 156.149 75.5579 156.243C104.046 156.57 105.692 118.741 81.1824 109.915C61.5654 102.863 38.5187 126.167 53.3801 144.847Z" fill="#F78D65"/>
<path d="M100.98 218.869C98.785 232.366 103.815 246.844 113.829 255.904C123.752 264.87 139.574 267.999 150.411 260.247C158.871 254.222 162.621 242.781 161.477 232.319C160.334 221.858 154.938 212.284 148.171 204.298C141.037 195.892 131.8 185.011 120.46 189.681C110.308 193.884 102.58 208.595 100.934 218.869H100.98Z" fill="#F78D65"/>
<path d="M226.641 181.509C221.428 188.701 217.953 197.574 218.822 206.447C219.69 215.321 225.635 223.96 234.14 226.155C245.115 228.958 255.769 220.785 263.543 212.378C269.488 205.887 274.975 198.788 278.084 190.522C281.194 182.256 281.743 172.635 277.947 164.696C264.686 136.815 236.975 167.218 226.641 181.555V181.509Z" fill="#F78D65"/>
<path d="M27.1765 286.073C16.3391 287.894 5.54742 294.386 1.61486 304.894C-0.35142 310.124 -0.488485 316.055 1.02052 321.426C4.12998 332.354 13.8241 340.621 24.6157 343.563C35.4074 346.505 47.0222 344.684 57.3566 340.34C65.7704 336.838 73.727 331.467 78.5284 323.621C99.3801 289.482 48.7598 282.43 27.1765 286.073Z" fill="#F78D65"/>
<path d="M123.893 326.798C128.648 337.726 143.052 342.956 153.524 337.586C163.995 332.215 168.431 317.27 162.669 306.856C149.271 282.524 112.872 301.579 123.893 326.798Z" fill="#F78D65"/>
</svg>
