<?xml version="1.0" encoding="utf-8"?>
<!-- Generator: Adobe Illustrator 26.3.1, SVG Export Plug-In . SVG Version: 6.00 Build 0)  -->
<svg version="1.1" id="Capa_1" xmlns="http://www.w3.org/2000/svg" xmlns:xlink="http://www.w3.org/1999/xlink" x="0px" y="0px"
	 viewBox="0 0 165 271" style="enable-background:new 0 0 165 271;" xml:space="preserve">
<style type="text/css">
	.st0{fill:#F9F2E8;}
	.st1{fill:#F3E7DD;}
</style>
<path class="st0" d="M162.2,158c1.8-7.9,2.8-16.1,2.8-24.6c0.6-55-45.4-140.8-111.5-132.9C37.6,2.4,22.1,14,19.5,29.8
	c-5.2,32,28.5,32.5,49.7,38.3c29.4,8.1,51.2,38.8,51.2,68.9c-0.1,31-19.6,63.8-52.5,67.3c-16.6,1.8-32.3-9.5-48.9-8.1
	c-28,2.3-19.7,42.8-9,58.2c22.2,31.8,61.7,11.3,86.4-5.7C128.1,226.8,153.8,195.3,162.2,158L162.2,158z"/>
<path class="st1" d="M38.3,108.3c-6.9,6-11.3,14.9-11,24c1,30.1,41,30,49.2,3.7C83,114.9,57.3,91.7,38.3,108.3z"/>
</svg>
