<svg width="1101" height="1098" viewBox="0 0 1101 1098" fill="none" xmlns="http://www.w3.org/2000/svg">
<g clip-path="url(#clip0_2554_5714)">
<path d="M700.464 813.44C607.716 705.426 456.191 651.887 316.614 677.837C277.385 685.124 238.729 698.477 206.035 721.433C173.314 744.389 146.841 777.6 136.376 816.303C122.189 868.697 140.359 928.534 181.201 964.062C210.304 989.361 248.153 1001.93 285.533 1011.15C359.304 1029.37 435.679 1036.97 511.585 1033.66C556.358 1031.71 601.781 1025.75 642.467 1006.9C680.056 989.517 715.25 957.685 734.174 920.206C753.593 881.711 725.35 842.383 700.49 813.414L700.464 813.44Z" fill="#F1FFEB"/>
<path d="M868.597 753.681C885.673 726.43 906.289 700.715 932.997 682.912C959.705 665.109 993.206 655.895 1024.42 663.235C1055.63 670.575 1083.14 696.472 1087.41 728.408C1090.59 752.041 1081.45 775.492 1071.22 796.991C1047.17 847.51 1014.42 895.948 966.967 925.333C929.222 948.706 849.23 972.781 827.624 916.666C807.789 865.105 842.071 796.002 868.571 753.707L868.597 753.681Z" fill="#F1FFEB"/>
<path d="M408.294 1.50937C468.347 -1.37969 528.973 0.260046 588.714 3.40939C666.546 7.49572 744.873 13.9245 819.841 35.3192C904.051 59.3687 988.157 104.553 1039.36 178.081C1089.83 250.541 1120.81 362.382 1086.53 447.466C1063.2 505.352 1011.9 546.501 960.902 582.185C909.908 617.869 855.634 652.303 820.883 704.072C814.297 713.885 808.362 724.374 799.719 732.416C791.077 740.459 778.817 745.768 767.441 742.645C758.721 740.251 752.031 733.405 746.018 726.612C724.725 702.537 706.477 675.416 681.644 655.062C634.97 616.776 571.846 607.458 512.105 599.571C444.789 590.67 377.473 581.743 310.158 572.841C257.029 565.814 194.242 557.511 145.044 535.856C66.2748 501.135 11.6361 420.111 1.74437 334.194C-10.1257 231.125 38.9685 103.876 136.246 60.0975C221.731 21.6547 314.297 6.01215 408.294 1.50937Z" fill="#F1FFEB"/>
<path d="M676.308 1050.68H628.385C621.018 1050.68 615.031 1044.67 615.031 1037.25V714.223C615.031 706.805 609.044 700.793 601.677 700.793H411.652" stroke="#8B602E" stroke-linecap="round" stroke-linejoin="round"/>
<path d="M690.651 1007.42H642.728C635.361 1007.42 629.374 1001.41 629.374 993.994V686.712C629.374 679.294 623.387 673.282 616.02 673.282H425.995" stroke="#8B602E" stroke-linecap="round" stroke-linejoin="round"/>
<path d="M675.006 953.703H611.907C605.738 953.703 600.766 948.68 600.766 942.485V724.035C600.766 716.618 594.779 710.605 587.412 710.605H354.332" stroke="#8B602E" stroke-linecap="round" stroke-linejoin="round"/>
<path d="M460.303 1070.88L506.898 735.123C506.976 734.03 508.59 733.952 508.746 735.045L559.532 1070.85" stroke="black" stroke-width="2" stroke-linecap="round" stroke-linejoin="round"/>
<path d="M210.251 1068.35L262.989 849.306L343.295 1068.35" stroke="black" stroke-width="2" stroke-linecap="round" stroke-linejoin="round"/>
<path d="M93.2155 756.674C92.6949 755.243 92.1482 753.837 91.6797 752.38C92.1482 753.837 92.6689 755.269 93.2155 756.674Z" fill="#8B602E"/>
<path d="M109.772 638.873C115.889 653.319 122.709 667.452 129.425 681.611C136.531 696.629 143.768 711.386 152.774 725.389C171.282 754.228 194.684 779.761 220.663 801.988C248.646 825.934 280.82 844.439 313.749 860.55C314.009 860.681 314.296 860.811 314.556 860.941C307.71 861.201 300.89 861.253 294.07 861.019C280.43 860.576 266.868 858.885 253.436 856.438C265.384 859.561 277.488 861.93 290.165 862.32C310.938 862.997 331.893 861.487 352.301 857.453C372.527 853.471 392.935 847.016 410.193 835.382C418.003 830.124 425.161 823.669 430.654 815.939C433.595 811.775 435.99 807.324 437.838 802.613C437.708 802.118 437.63 801.598 437.5 801.077C427.53 764.482 395.72 759.719 367.269 743.478C337.229 726.352 311.537 701.496 293.601 671.824C276.968 644.287 267.18 613.444 253.878 584.293C241.462 557.095 225.348 543.066 196.923 533.097C175.838 525.679 152.54 520.604 131.377 527.762C112.505 534.138 98.5523 549.364 89.5977 567.558C91.0814 592.18 100.426 616.698 109.824 638.847L109.772 638.873Z" fill="#8B602E"/>
<path d="M409.178 701.47C409.334 687.154 408.918 674.141 412.614 659.877C417.508 641.007 431.981 630.701 450.047 624.87C454.003 623.595 458.376 622.684 462.281 624.142C466.784 625.833 469.674 630.284 471.444 634.813C477.119 649.388 474.177 665.734 471.132 681.09C464.338 715.472 457.543 749.855 450.749 784.211C450.359 786.189 449.786 788.428 448.016 789.365C446.663 790.094 444.997 789.833 443.487 789.521C428.233 786.476 413.343 781.583 399.234 774.998C405.169 777.756 409.126 704.645 409.178 701.444V701.47Z" fill="#FFE2C0"/>
<path d="M446.194 904.511C457.491 901.31 463.14 900.294 474.047 895.974C474.047 945.921 481.049 1030.12 480.815 1044.49C466.784 1046.07 455.825 1051.28 441.639 1051.44C430.523 1034.13 425.994 985.144 419.695 966.196C418.237 961.824 411.911 939.961 404.831 915.078C418.705 911.955 432.476 908.415 446.168 904.537L446.194 904.511Z" fill="#FFE2C0"/>
<path d="M420.267 804.305C436.432 808.053 453.014 809.77 469.413 812.191C478.056 813.466 495.704 818.412 503.826 812.347C514.134 804.669 497.266 800.192 489.613 795.924C476.468 788.532 463.14 781.504 449.89 774.321C437.656 767.684 421.933 753.525 409.464 767.215C401.447 776.013 400.51 790.068 399.599 801.338C406.601 801.572 413.395 802.717 420.267 804.305Z" fill="black"/>
<path d="M158.839 745.769C166.31 722.057 200.124 716.618 221.027 718.31C264.472 721.797 308.048 722.89 351.259 726.43C386.453 729.319 424.77 736.971 448.979 765.185C468.762 788.246 471.938 819.973 477.561 848.864C487.921 902.351 490.837 952.506 489.613 1006.72C489.587 1008 489.535 1009.35 488.78 1010.39C487.791 1011.72 485.969 1012.06 484.329 1012.27C463.66 1015.05 443.018 1017.83 422.349 1020.59C421.126 1020.75 419.798 1020.91 418.731 1020.26C417.56 1019.55 417.091 1018.12 416.727 1016.82C413.499 1005.65 370.886 834.939 373.88 834.471C338.192 840.171 309.974 838.505 273.974 835.616C248.516 833.56 222.641 829.135 200.437 816.486C178.987 804.227 150.197 773.228 158.839 745.795V745.769Z" fill="#1C1C1B"/>
<path d="M148.48 736.477C151.031 740.329 150.848 743.869 152.124 745.951C158.658 745.873 165.217 745.951 171.751 746.055C188.88 746.315 206.164 746.575 223.006 743.01C237.661 739.912 252.239 735.436 266.347 730.438C288.135 722.734 308.595 717.32 306.981 690.486C304.977 655.895 300.812 612.325 310.522 578.593C314.452 564.981 316.561 554.83 322.444 541.947C324.058 538.407 325.672 534.763 325.906 530.859C326.062 528.074 325.515 525.315 324.865 522.608C314.01 478.335 277.202 477.815 238.13 474.327C232.091 473.78 225.947 473.26 219.96 474.275C212.568 475.55 203.951 477.736 197.548 481.615C163.317 502.254 161 536.949 150.692 572.763C145.538 590.67 137.469 607.614 132.315 625.495C121.277 663.704 126.406 703.161 148.48 736.425V736.477Z" fill="#778980"/>
<path d="M490.446 1043.97C494.637 1046.34 500.936 1047.74 505.44 1049.09C517.076 1052.61 529.154 1054.61 540.633 1058.67C546.647 1060.81 552.399 1068.38 545.866 1073.74C543.002 1076.08 539.15 1076.66 535.505 1077.1C506.377 1080.48 476.936 1078.84 447.651 1077.18C446.063 1077.1 444.319 1076.94 443.174 1075.8C442.523 1075.15 442.185 1074.29 441.846 1073.43C438.28 1064.06 435.833 1053.57 433.595 1043.99C437.525 1043.03 441.664 1044.67 445.621 1044.98C450.749 1045.37 456.32 1045.79 461.005 1043.19C467.305 1039.7 473.109 1035.27 478.133 1030.12C478.602 1029.65 479.097 1029.13 479.695 1028.9C481.726 1028.06 483.73 1030.28 484.433 1032.38C485.787 1036.47 485.839 1041.05 489.691 1043.5C489.951 1043.65 490.186 1043.81 490.472 1043.97H490.446Z" fill="black"/>
<path d="M407.929 691.996C407.59 687.128 407.928 682.626 412.458 680.908C418.679 678.539 420.788 681.897 424.796 675.39C432.476 662.871 437.916 647.254 443.122 633.538C449.396 617.01 461.188 595.433 460.563 577.682C460.537 576.772 460.459 575.782 459.912 575.028C459.287 574.169 458.194 573.804 457.153 573.518C447.938 571.098 438.28 571.358 428.779 571.956C366.175 575.991 331.242 644.235 301.619 690.955C297.141 698.008 271.136 731.922 264.316 731.375C288.239 733.275 306.669 745.456 328.795 752.171C342.383 756.284 357.325 768.465 370.028 770.209C374.14 770.781 390.904 739.808 393.351 735.748C399.755 725.129 408.814 713 408.605 700.116C408.579 697.592 408.137 694.729 407.955 691.97L407.929 691.996Z" fill="#1C1C1B"/>
<path d="M482.559 697.904C481.127 708.497 479.514 718.674 476.884 729.007C476.65 729.918 476.416 730.855 475.791 731.532C474.802 732.625 473.162 732.781 471.678 732.703C468.581 732.521 465.561 731.61 462.515 731.037C443.513 727.367 411.911 740.225 397.282 722.422C394.341 718.856 393.404 714.041 392.779 709.46C388.301 676.249 398.87 643.793 398.427 610.425C398.193 592.596 404.779 581.847 413.786 567.297C422.428 553.347 434.584 548.61 450.177 553.919C476.442 562.873 491.488 590.852 490.238 617.453C488.989 644.287 486.125 671.2 482.533 697.904H482.559Z" fill="#1C1C1B"/>
<path d="M238.025 439.918C237.765 443.146 244.481 450.485 246.511 452.802C249.765 456.472 253.539 459.335 258.121 461.131C270.017 465.842 282.486 466.284 291.805 456.42C296.23 451.735 299.25 445.905 301.775 439.944C305.627 430.887 310.963 405.926 308.543 396.4C306.33 387.759 297.115 395.281 288.707 392.392C281.392 389.867 275.822 387.603 268.013 388.982C261.062 390.206 254.372 393.667 249.999 399.341C248.828 400.877 247.761 402.413 246.771 403.974C244.455 408.919 242.32 413.943 240.784 419.174C239.509 423.547 239.066 427.972 238.363 432.396C238.311 434.921 238.207 437.42 237.999 439.918H238.025Z" fill="#FFE2C0"/>
<path d="M233.08 497.439C240.004 502.307 248.542 505.534 256.95 506.211C258.564 506.341 279.102 504.024 276.161 500.146C268.456 489.917 272.673 480.808 277.488 469.72C278.217 468.002 284.699 457.513 284.022 456.342C283.84 456.003 283.606 455.691 283.293 455.405C281.757 453.921 279.337 453.947 277.202 453.921C269.185 453.817 261.688 451.292 255.18 446.607C252.082 444.395 249.297 441.766 246.616 439.033C245.08 437.472 242.295 432.032 239.978 431.85C239.77 431.85 239.588 431.954 239.405 432.032C236.672 443.042 235.345 452.698 229.852 463.239C225.609 471.386 215.119 475.446 212.125 475.993C216.837 484.374 225.166 491.896 233.08 497.465V497.439Z" fill="#FFE2C0"/>
<path d="M256.116 423.365C256.325 421.673 256.533 419.591 258.095 418.914C259.683 418.211 261.375 419.487 263.067 419.877C268.455 421.1 273.453 415.192 276.525 411.47C277.149 410.715 277.774 410.013 278.399 409.362C281.939 405.692 285.557 403.922 291.57 404.417C297.506 404.911 303.441 406.967 309.271 405.822C315.753 404.547 321.142 399.133 322.651 392.678C325.098 382.241 316.586 368.316 304.82 370.295C301.644 370.815 298.208 372.429 295.423 370.815C293.861 369.904 292.976 368.212 291.883 366.755C287.744 361.159 279.622 358.92 273.219 361.627C271.527 362.356 269.965 363.371 268.221 363.892C264.863 364.933 261.271 364.126 257.782 363.944C253.644 363.71 249.322 364.438 245.912 366.807C242.502 369.175 240.212 373.444 240.967 377.53C241.175 378.727 241.643 379.925 241.487 381.148C240.941 385.417 234.173 385.599 232.168 389.399C230.242 393.043 233.756 397.519 232.767 401.528C232.168 403.922 230.034 405.77 229.773 408.217C229.461 411.236 232.246 413.37 233.444 415.895C234.771 418.68 235.995 422.35 236.281 425.395C236.828 431.694 233.027 438.487 242.32 437.706C249.947 437.055 255.231 430.939 256.169 423.391L256.116 423.365Z" fill="#1D1D1B"/>
<path d="M373.385 586.115C377.056 590.54 380.049 595.069 390.592 594.366C403.972 593.481 416.987 586.636 424.64 575.444C426.775 572.321 428.519 568.859 429.013 565.111C432.059 542.597 406.835 527.996 390.722 518.886C372.266 508.449 352.3 501.109 332.179 494.628C314.348 488.876 295.683 478.908 276.473 480.469C275.978 480.521 275.457 480.599 274.963 480.73C275.171 483.228 275.301 485.727 275.327 488.226C284.1 502.098 289.566 518.574 293.106 534.581C295.397 544.94 300.525 556.86 299.484 567.532C320.725 570.473 341.862 574.325 362.791 579.062C368.231 580.285 370.965 583.174 373.411 586.115H373.385Z" fill="#778980"/>
<path d="M405.43 538.433C397.282 539.344 390.462 545.486 386.505 552.696C382.549 559.905 380.987 568.156 379.477 576.251C375.182 599.389 373.776 626.198 366.045 648.373C361.255 662.142 342.617 681.142 351.832 696.863C354.54 701.469 360.24 704.072 365.472 703.083C374.739 701.339 379.035 690.902 382.991 682.313C388.067 671.225 395.59 662.688 402.332 652.954C410.74 640.773 416.831 625.833 422.923 612.377C430.732 595.121 437.656 575.47 431.278 557.641C427.374 546.709 416.935 537.183 405.43 538.459V538.433Z" fill="#FFE2C0"/>
<mask id="mask0_2554_5714" style="mask-type:luminance" maskUnits="userSpaceOnUse" x="188" y="431" width="115" height="128">
<path d="M302.243 519.771C302.321 519.406 302.347 519.042 302.399 518.678C300.031 510.089 287.77 510.219 280.898 506.601C279.518 505.872 278.321 504.961 277.306 503.92C277.176 503.79 277.019 503.66 276.915 503.504C274.755 501.161 273.427 498.168 272.933 494.758C270.85 480.912 277.956 468.444 284.048 456.29C283.865 455.951 283.631 455.639 283.319 455.353C281.783 453.869 279.362 453.895 277.228 453.869C269.21 453.765 261.713 451.24 255.206 446.555C252.108 444.343 249.323 441.714 246.641 438.981C245.106 437.42 242.32 431.98 240.004 431.798C239.795 431.798 239.613 431.902 239.431 431.98C236.698 442.989 236.463 453.296 229.878 463.187C227.379 466.909 224.437 470.24 220.923 472.687C219.075 474.457 216.836 475.758 213.764 476.279C212.984 476.409 212.177 476.487 211.37 476.487C211.057 476.539 210.745 476.617 210.406 476.643C210.016 476.669 209.704 476.591 209.417 476.435C204.445 476.227 199.317 475.029 195.517 477.971C193.721 479.35 192.601 481.432 191.716 483.54C185.235 499.001 189.79 519.172 197.964 533.097C204.185 543.716 215.144 553.503 227.04 556.834C238.364 560.01 250.208 557.329 260.984 553.399C265.722 551.681 270.199 549.963 274.52 547.959C287.51 541.972 298.703 535.283 302.113 520.474C302.165 520.213 302.217 519.979 302.269 519.719L302.243 519.771Z" fill="white"/>
</mask>
<g mask="url(#mask0_2554_5714)">
<path d="M259.189 459.881C259.501 460.037 259.865 460.194 260.256 460.35C267.024 463.135 274.443 464.853 281.549 463.811C283.319 464.566 282.747 466.05 281.835 468.679C280.586 472.401 279.441 476.149 278.451 479.923C271.892 473.181 265.306 466.44 258.746 459.673C258.902 459.751 259.032 459.803 259.189 459.855V459.881Z" fill="#081132"/>
</g>
<path d="M156.262 506.887C142.804 522.348 137.286 543.196 132.704 562.717C126.795 587.937 120.886 613.184 114.977 638.405C113.598 644.339 112.192 650.299 112.036 656.39C111.75 666.15 114.561 678.565 116.826 687.961C119.741 700.038 126.925 699.283 137.624 698.216C154.544 696.524 177.529 691.397 188.957 677.524C194.371 670.939 196.115 662.142 197.703 653.709C199.864 642.153 201.998 630.597 204.159 619.014C212.931 571.774 221.73 523.051 211.786 476.045C188.098 479.584 170.111 490.985 156.288 506.861L156.262 506.887Z" fill="#778980"/>
<path d="M212.255 553.789C192.706 558.916 194.45 584.059 192.68 599.546C190.077 622.45 185.73 645.172 179.69 667.4" stroke="#1D1D1B" stroke-linecap="round" stroke-linejoin="round"/>
<path d="M419.903 609.098C412.432 641.502 395.304 690.746 394.991 724.01" stroke="#081132" stroke-width="0.5" stroke-linecap="round" stroke-linejoin="round"/>
<path d="M280.273 442.235C281.445 445.28 284.022 447.518 286.833 447.909C289.645 448.299 292.586 446.868 294.33 444.213" fill="white"/>
<path d="M99.2549 716.956C153.399 704.593 199.265 695.587 247.995 718.622C279.727 733.64 301.124 761.567 307.137 791.317C313.15 821.066 303.493 841.888 277.41 854.98" stroke="#778980" stroke-width="4" stroke-linecap="round" stroke-linejoin="round"/>
<path d="M383.225 838.427C381.741 827.157 381.403 813.18 379.945 801.91" stroke="#081132" stroke-width="0.5" stroke-linecap="round" stroke-linejoin="round"/>
<path d="M395.747 734.915C360.891 729.579 338.479 734.264 293.602 734.264" stroke="#081132" stroke-width="0.5" stroke-linecap="round" stroke-linejoin="round"/>
<path d="M245.601 422.167C245.601 427.894 250.234 432.552 255.935 432.552C261.636 432.552 266.269 427.894 266.269 422.167C266.269 416.441 261.636 411.782 255.935 411.782C250.234 411.782 245.601 416.415 245.601 422.167Z" fill="#FFE2C0"/>
<path d="M316.951 861.956C316.691 861.826 313.983 860.68 313.723 860.55C280.794 844.439 248.62 825.934 220.637 801.988C194.658 779.787 171.256 754.228 152.748 725.389C143.768 711.386 136.531 696.629 129.399 681.611C122.683 667.426 115.863 653.319 109.745 638.873C100.374 616.724 91.0293 592.206 89.5195 567.584C84.5216 577.761 81.0595 588.848 79.2373 599.884C71.2979 647.645 76.7383 706.181 91.654 752.354C92.1226 753.811 92.6952 755.217 93.1898 756.648C103.134 784.133 123.203 808.677 160.792 830.098C227.431 868.072 280.273 862.372 293.914 862.841C300.734 863.075 310.105 862.242 316.951 861.956Z" fill="#778980"/>
<path d="M184.349 646.577C194.84 648.868 205.122 652.251 215.404 655.375C231.751 660.346 248.307 663.209 264.889 667.66C269.6 668.935 274.39 670.158 279.284 670.21C287.666 670.288 295.787 666.879 304.169 666.697C315.389 666.436 326.348 672.735 332.439 682.105C342.695 697.878 325.697 693.661 314.972 693.505C306.616 693.375 298.26 693.271 289.93 693.141C257.106 692.672 226.051 694.338 193.122 697.123C175.239 698.633 144.028 702.849 128.123 692.178C120.392 686.998 107.636 661.751 114.743 654.203C116.07 652.798 117.919 651.991 119.715 651.262C135.828 644.807 153.269 642.465 170.553 644.313C175.213 644.807 179.794 645.614 184.349 646.603V646.577Z" fill="#FFE2C0"/>
<path d="M86.6825 642.413C87.2292 649.154 88.3225 655.869 89.3897 662.402C90.7433 670.731 92.123 679.086 94.1534 687.259C95.9495 694.442 98.3443 701.678 103.004 707.404C110.657 716.8 124.583 720.47 135.985 716.67C144.966 713.703 143.716 710.475 139.89 703.005C131.95 687.493 123.698 671.252 116.878 655.115C109.98 638.769 103.603 623.283 97.9539 606.443C96.7565 602.903 95.559 599.337 94.5438 595.746C93.008 590.384 91.8366 584.918 91.0297 579.374C91.7325 584.293 90.2748 590.514 89.7802 595.459C89.2336 601.081 88.5568 606.703 87.7758 612.299C86.3702 622.294 85.8495 632.288 86.6825 642.413Z" fill="#778980"/>
<path d="M36.8594 1070.88L85.6932 735.123C85.7973 734.03 87.4633 733.952 87.6195 735.045L140.853 1070.85" stroke="black" stroke-width="2" stroke-linecap="round" stroke-linejoin="round"/>
<path d="M539.489 724.556H55.7061V739.47H539.489V724.556Z" fill="#F78D65"/>
<path d="M260.777 420.658C260.152 416.91 255.076 414.828 252.03 417.066" stroke="#1C1C1B" stroke-width="0.5" stroke-linecap="round" stroke-linejoin="round"/>
<path d="M421.491 714.9H203.717C201.532 714.9 199.761 716.671 199.761 718.856V721.251C199.761 723.436 201.532 725.207 203.717 725.207H421.491C423.677 725.207 425.448 723.436 425.448 721.251V718.856C425.448 716.671 423.677 714.9 421.491 714.9Z" fill="black"/>
<path d="M426.151 725.207H233.288L250.078 614.459C250.651 610.607 253.931 607.744 257.731 607.744H435.287C439.869 607.744 443.331 611.883 442.628 616.515L426.151 725.181V725.207Z" fill="black"/>
<path d="M343.894 662.714L352.249 669.716" stroke="#778980" stroke-linecap="round" stroke-linejoin="round"/>
<path d="M332.908 662.714L341.264 669.716" stroke="#778980" stroke-linecap="round" stroke-linejoin="round"/>
<path d="M369.898 568.208C369.378 575.444 373.23 584.84 376.484 589.421" stroke="#1D1D1B" stroke-linecap="round" stroke-linejoin="round"/>
<path d="M810.157 374.147C807.606 374.902 805.186 375.865 802.869 377.062C803.025 377.244 803.207 377.4 803.337 377.582C805.576 380.55 804.977 384.766 802.036 387.004C799.094 389.243 794.877 388.644 792.665 385.677C792.509 385.469 792.404 385.235 792.274 385.026C790.452 386.926 788.812 389.009 787.406 391.221C787.641 391.299 787.875 391.351 788.109 391.455C791.519 392.913 793.107 396.843 791.676 400.278C790.244 403.688 786.313 405.302 782.903 403.844C782.643 403.74 782.409 403.584 782.148 403.428C781.524 405.979 781.133 408.607 781.003 411.314C781.263 411.236 781.524 411.158 781.81 411.132C785.48 410.663 788.812 413.292 789.281 416.988C789.723 420.684 787.12 424.042 783.45 424.484C783.137 424.536 782.825 424.51 782.487 424.484C783.216 427.113 784.231 429.612 785.428 431.954C785.662 431.72 785.871 431.512 786.131 431.303C789.072 429.065 793.29 429.664 795.502 432.631C797.741 435.598 797.142 439.814 794.201 442.053C793.914 442.261 793.628 442.417 793.316 442.599C795.242 444.473 797.376 446.165 799.641 447.623C799.719 447.284 799.797 446.972 799.953 446.634C801.385 443.224 805.316 441.61 808.726 443.068C812.136 444.525 813.724 448.456 812.292 451.891C812.136 452.23 811.954 452.542 811.771 452.854C814.374 453.505 817.03 453.895 819.789 453.999C819.685 453.661 819.607 453.323 819.555 452.958C819.112 449.262 821.715 445.905 825.385 445.462C829.056 444.994 832.388 447.623 832.856 451.319C832.908 451.683 832.908 452.073 832.856 452.438C835.485 451.683 838.01 450.642 840.353 449.393C840.093 449.158 839.859 448.898 839.624 448.612C837.386 445.645 837.984 441.428 840.926 439.19C843.867 436.951 848.084 437.55 850.297 440.517C850.505 440.803 850.687 441.116 850.844 441.428C852.692 439.476 854.358 437.342 855.79 435.051C855.477 434.973 855.165 434.895 854.852 434.765C851.442 433.307 849.854 429.377 851.286 425.942C852.718 422.532 856.649 420.918 860.059 422.376C860.371 422.506 860.657 422.688 860.918 422.844C861.542 420.268 861.907 417.613 862.011 414.88C861.725 414.958 861.438 415.036 861.126 415.088C857.455 415.557 854.124 412.928 853.655 409.232C853.212 405.536 855.816 402.179 859.486 401.736C859.772 401.71 860.085 401.736 860.371 401.736C859.616 399.159 858.601 396.687 857.403 394.344C857.221 394.526 857.039 394.735 856.805 394.891C853.863 397.129 849.646 396.531 847.434 393.563C845.195 390.596 845.794 386.38 848.735 384.141C848.943 383.985 849.178 383.855 849.412 383.725C847.512 381.903 845.429 380.289 843.217 378.858C843.139 379.092 843.086 379.326 843.008 379.561C841.577 382.97 837.646 384.584 834.236 383.126C830.826 381.669 829.238 377.739 830.67 374.303C830.774 374.069 830.904 373.86 831.034 373.652C828.509 373.054 825.932 372.663 823.277 372.559C823.329 372.793 823.407 373.002 823.433 373.236C823.876 376.932 821.273 380.289 817.602 380.732C813.932 381.2 810.6 378.571 810.131 374.876C810.105 374.615 810.131 374.381 810.131 374.147H810.157ZM818.149 386.093C833.091 384.245 846.731 394.917 848.579 409.935C850.427 424.953 839.807 438.643 824.865 440.517C809.923 442.365 796.283 431.694 794.435 416.676C792.587 401.658 803.207 387.967 818.149 386.093Z" fill="#778980"/>
<path d="M817.862 446.139C835.902 448.169 852.197 435.077 854.227 416.936C856.258 398.821 843.216 382.424 825.177 380.393C807.138 378.363 790.842 391.455 788.812 409.57C786.781 427.686 799.823 444.083 817.862 446.113V446.139ZM800.76 411.158C802.088 400.278 812.5 392.366 823.953 393.537C835.407 394.709 843.633 404.495 842.279 415.374C840.952 426.254 830.539 434.166 819.086 432.995C807.632 431.824 799.406 422.038 800.76 411.158Z" fill="#778980"/>
<path d="M590.743 435.754C588.661 436.379 586.683 437.186 584.808 438.201C584.939 438.357 585.069 438.487 585.199 438.643C587.021 441.142 586.552 444.708 584.158 446.582C581.763 448.455 578.327 447.961 576.505 445.436C576.374 445.254 576.296 445.072 576.166 444.89C574.682 446.503 573.355 448.247 572.209 450.121C572.392 450.173 572.6 450.225 572.782 450.303C575.567 451.527 576.869 454.858 575.698 457.747C574.526 460.636 571.324 461.964 568.539 460.741C568.331 460.636 568.123 460.506 567.94 460.402C567.42 462.562 567.107 464.775 567.029 467.039C567.238 466.987 567.472 466.909 567.706 466.883C570.7 466.519 573.433 468.731 573.797 471.828C574.162 474.926 572.053 477.763 569.06 478.153C568.799 478.179 568.539 478.153 568.279 478.153C568.904 480.365 569.71 482.474 570.7 484.478C570.882 484.295 571.064 484.087 571.272 483.931C573.667 482.057 577.103 482.552 578.925 485.076C580.748 487.575 580.279 491.141 577.884 493.015C577.65 493.197 577.416 493.327 577.155 493.457C578.743 495.045 580.461 496.476 582.309 497.7C582.387 497.413 582.44 497.153 582.544 496.867C583.715 493.978 586.917 492.65 589.702 493.874C592.487 495.097 593.789 498.428 592.618 501.318C592.487 501.604 592.357 501.864 592.201 502.124C594.31 502.671 596.496 503.009 598.735 503.113C598.657 502.827 598.579 502.541 598.553 502.229C598.162 499.105 600.297 496.294 603.29 495.904C606.284 495.539 609.017 497.752 609.381 500.849C609.408 501.161 609.408 501.474 609.381 501.786C611.516 501.135 613.572 500.302 615.499 499.235C615.29 499.027 615.082 498.819 614.9 498.585C613.078 496.086 613.546 492.52 615.941 490.646C618.336 488.772 621.772 489.267 623.594 491.791C623.776 492.026 623.907 492.312 624.037 492.572C625.547 490.933 626.9 489.137 628.072 487.211C627.811 487.132 627.551 487.08 627.291 486.95C624.505 485.727 623.204 482.395 624.375 479.506C625.547 476.617 628.748 475.29 631.534 476.513C631.794 476.617 632.002 476.774 632.237 476.93C632.731 474.743 633.043 472.505 633.096 470.215C632.861 470.267 632.627 470.345 632.367 470.371C629.373 470.735 626.64 468.523 626.275 465.425C625.885 462.302 628.02 459.491 631.013 459.101C631.247 459.075 631.508 459.101 631.742 459.101C631.117 456.914 630.284 454.832 629.295 452.854C629.139 453.01 628.983 453.166 628.8 453.323C626.406 455.197 622.97 454.702 621.147 452.177C619.325 449.679 619.794 446.113 622.189 444.239C622.371 444.109 622.553 444.005 622.735 443.901C621.173 442.365 619.481 440.986 617.659 439.788C617.607 439.997 617.555 440.179 617.477 440.387C616.306 443.276 613.104 444.603 610.319 443.38C607.533 442.157 606.232 438.825 607.403 435.936C607.481 435.728 607.585 435.572 607.689 435.39C605.633 434.869 603.525 434.557 601.364 434.453C601.416 434.635 601.468 434.817 601.494 435.025C601.885 438.149 599.75 440.96 596.757 441.35C593.763 441.714 591.03 439.502 590.665 436.405C590.665 436.196 590.665 435.988 590.665 435.78L590.743 435.754ZM597.277 445.853C609.46 444.317 620.601 453.349 622.137 466.05C623.672 478.726 615.056 490.256 602.874 491.791C590.691 493.327 579.55 484.295 578.014 471.594C576.478 458.919 585.095 447.388 597.277 445.853Z" fill="#778980"/>
<path d="M597.564 493.171C610.501 494.707 622.163 485.05 623.569 471.594C624.974 458.164 615.603 445.957 602.666 444.421C589.729 442.886 578.067 452.542 576.661 465.998C575.255 479.428 584.626 491.635 597.564 493.171ZM583.481 466.987C584.522 457.982 592.852 451.449 602.015 452.438C611.178 453.427 617.79 461.573 616.749 470.579C615.707 479.585 607.377 486.117 598.215 485.128C589.052 484.139 582.44 475.993 583.481 466.987Z" fill="#778980"/>
<path d="M687.031 369.071C682.554 370.373 678.259 372.091 674.224 374.199C674.511 374.511 674.823 374.771 675.057 375.11C678.988 380.315 677.947 387.759 672.767 391.689C667.586 395.619 660.194 394.604 656.263 389.373C655.977 389.008 655.794 388.592 655.56 388.228C652.358 391.585 649.495 395.229 646.996 399.133C647.412 399.263 647.829 399.341 648.245 399.524C654.233 402.074 657.044 409.024 654.493 415.036C651.968 421.048 645.044 423.859 639.057 421.335C638.588 421.126 638.172 420.866 637.755 420.606C636.636 425.109 635.959 429.742 635.725 434.479C636.193 434.348 636.662 434.218 637.156 434.14C643.612 433.333 649.495 437.94 650.302 444.447C651.109 450.928 646.527 456.836 640.072 457.643C639.499 457.721 638.952 457.695 638.406 457.669C639.707 462.276 641.451 466.675 643.586 470.813C643.976 470.423 644.367 470.006 644.809 469.668C649.99 465.738 657.382 466.753 661.313 471.984C665.244 477.19 664.202 484.634 659.022 488.564C658.528 488.928 658.007 489.215 657.46 489.501C660.87 492.806 664.593 495.774 668.576 498.324C668.732 497.752 668.862 497.179 669.096 496.607C671.621 490.594 678.545 487.783 684.532 490.308C690.52 492.859 693.331 499.808 690.78 505.82C690.519 506.419 690.181 506.992 689.843 507.512C694.398 508.657 699.11 509.334 703.925 509.542C703.743 508.944 703.587 508.345 703.509 507.72C702.702 501.239 707.283 495.331 713.739 494.524C720.195 493.717 726.078 498.324 726.885 504.805C726.963 505.456 726.963 506.107 726.937 506.757C731.57 505.404 735.995 503.608 740.134 501.422C739.692 501.005 739.249 500.563 738.859 500.042C734.928 494.837 735.969 487.393 741.149 483.463C746.33 479.532 753.722 480.547 757.653 485.779C758.043 486.3 758.33 486.846 758.616 487.393C761.87 483.957 764.811 480.183 767.336 476.149C766.764 475.993 766.217 475.863 765.671 475.628C759.683 473.078 756.872 466.128 759.423 460.116C761.948 454.103 768.872 451.292 774.859 453.817C775.406 454.051 775.901 454.364 776.395 454.65C777.489 450.121 778.139 445.436 778.321 440.647C777.801 440.777 777.306 440.933 776.76 441.012C770.304 441.818 764.421 437.212 763.614 430.705C762.807 424.224 767.389 418.316 773.844 417.509C774.365 417.431 774.885 417.457 775.406 417.483C774.078 412.928 772.308 408.581 770.174 404.495C769.835 404.833 769.523 405.172 769.133 405.458C763.952 409.388 756.56 408.373 752.629 403.141C748.698 397.936 749.74 390.492 754.92 386.562C755.31 386.276 755.727 386.067 756.117 385.833C752.759 382.632 749.115 379.769 745.21 377.27C745.08 377.686 745.002 378.103 744.82 378.493C742.295 384.506 735.371 387.317 729.384 384.792C723.396 382.241 720.585 375.292 723.136 369.28C723.318 368.863 723.553 368.499 723.761 368.134C719.336 367.067 714.78 366.416 710.121 366.208C710.199 366.599 710.329 366.989 710.381 367.379C711.188 373.86 706.607 379.769 700.151 380.575C693.695 381.382 687.812 376.775 687.005 370.269C686.953 369.826 687.005 369.41 686.979 368.967L687.031 369.071ZM701.504 393.407C725.973 390.362 748.282 407.826 751.301 432.422C754.321 457.019 736.958 479.428 712.49 482.473C688.021 485.519 665.712 468.054 662.693 443.458C659.673 418.862 677.036 396.452 701.504 393.407Z" fill="#778980"/>
<path d="M700.957 492.416C730.841 495.774 757.887 474.067 761.245 444.031C764.603 413.995 742.997 386.822 713.114 383.439C683.231 380.055 656.184 401.762 652.826 431.824C649.468 461.86 671.074 489.059 700.957 492.416ZM670.606 433.828C672.844 413.657 691.014 399.055 711.109 401.32C731.179 403.584 745.704 421.829 743.44 442.027C741.201 462.198 723.032 476.8 702.936 474.535C682.866 472.271 668.341 454.025 670.606 433.828Z" stroke="#292929" stroke-linecap="round" stroke-linejoin="round"/>
<path d="M455.045 72.3046C460.642 65.7977 470.429 65.069 476.911 70.6909C483.393 76.3129 484.121 86.1513 478.499 92.6842" stroke="black" stroke-linecap="round" stroke-linejoin="round"/>
<path d="M499.011 151.064C507.191 151.064 513.822 144.399 513.822 136.176C513.822 127.954 507.191 121.289 499.011 121.289C490.831 121.289 484.199 127.954 484.199 136.176C484.199 144.399 490.831 151.064 499.011 151.064Z" stroke="black" stroke-linecap="round" stroke-linejoin="round"/>
<path d="M881.924 188.179C881.612 166.785 900.016 150.257 920.163 151.22C927.166 151.559 933.595 153.901 939.01 157.597C947.418 147.941 959.939 142.085 973.657 142.761C992.503 143.672 1010.72 156.478 1012.26 174.047C1030.72 179.33 1044.62 196.534 1043.65 216.628C1043.05 229.043 1037.22 239.948 1028.4 247.314C1030.64 253.691 1030.4 261.161 1026.34 268.631C1024.16 272.639 1020.72 275.866 1016.61 277.819C1009.08 281.384 1002 281.202 996.017 278.86L995.549 313.528C995.523 315.611 992.842 316.417 991.67 314.726L973.631 288.542C956.815 295.465 941.717 285.08 940.598 269.724C936.12 271.962 931.07 273.134 925.734 272.873C910.298 272.145 898.167 259.938 896.97 244.842C888.536 249.891 877.551 250.958 866.618 245.466C860.579 242.421 855.815 237.137 853.42 230.787C844.96 208.325 861.36 187.893 881.924 188.206V188.179Z" fill="#F78D65"/>
<path d="M1006.14 230.63C1016.09 231.099 1024.39 237.398 1027.96 246.065" stroke="black" stroke-linecap="round" stroke-linejoin="round"/>
<path d="M897.179 242.291C897.986 225.477 912.198 212.489 928.936 213.296" stroke="black" stroke-linecap="round" stroke-linejoin="round"/>
<path d="M879.321 188.205C885.725 187.789 891.686 189.325 896.71 192.266" stroke="black" stroke-linecap="round" stroke-linejoin="round"/>
<path d="M913.786 164.833C927.218 165.483 937.604 176.962 936.954 190.47" stroke="black" stroke-linecap="round" stroke-linejoin="round"/>
<path d="M935.105 257.934C923.261 259.053 912.719 250.307 911.6 238.413" stroke="black" stroke-linecap="round" stroke-linejoin="round"/>
<path d="M867.243 226.206C863.729 216.029 869.091 204.915 879.217 201.375" stroke="black" stroke-linecap="round" stroke-linejoin="round"/>
<path d="M1015.44 254.784C1012.94 262.566 1004.63 266.809 996.876 264.31" stroke="black" stroke-linecap="round" stroke-linejoin="round"/>
<path d="M980.009 180.033C988.937 173.838 1000.21 171.6 1011.66 173.942" stroke="black" stroke-linecap="round" stroke-linejoin="round"/>
<path d="M1018.59 192.708C1024.57 197.185 1028.53 204.291 1028.66 212.385" stroke="black" stroke-linecap="round" stroke-linejoin="round"/>
<path d="M953.483 202.078C960.98 200.569 969.206 204.16 973.241 210.693C977.276 217.226 976.807 226.232 972.147 232.296" stroke="black" stroke-linecap="round" stroke-linejoin="round"/>
<path d="M950.958 239.115C948.355 241.51 947.027 245.232 947.522 248.746C948.017 252.259 950.359 255.461 953.535 256.996" stroke="black" stroke-linecap="round" stroke-linejoin="round"/>
<path d="M760.074 74.465L761.193 184.327L738.312 184.432L737.167 74.5951L760.074 74.465Z" fill="#8B602E"/>
<path d="M709.183 92.6322L710.121 184.588L687.213 184.718L686.276 92.7363L709.183 92.6322Z" fill="#778980"/>
<path d="M635.334 106.557L636.141 184.978L659.048 184.874L658.241 106.557H635.334Z" fill="#8B602E"/>
<path d="M611.178 142.97L611.594 185.134L588.713 185.238L588.271 143.1L611.178 142.97Z" fill="#778980"/>
<path d="M780.3 184.354L579.107 185.603" stroke="#101C59" stroke-linecap="round" stroke-linejoin="round"/>
<path d="M690.598 99.3213V124.36" stroke="black" stroke-linecap="round" stroke-linejoin="round"/>
<path d="M742.451 138.155V169.778" stroke="black" stroke-linecap="round" stroke-linejoin="round"/>
<path d="M591.628 154.63V165.067" stroke="black" stroke-linecap="round" stroke-linejoin="round"/>
<path d="M640.046 134.823V139.3" stroke="black" stroke-linecap="round" stroke-linejoin="round"/>
<path d="M313.047 569.77C313.333 565.684 313.047 561.545 312.188 557.537" stroke="#1D1D1B" stroke-linecap="round" stroke-linejoin="round"/>
<path d="M873.985 278.599L822.105 330.733H616.045L552.062 396.14" stroke="#8B602E" stroke-linecap="round" stroke-linejoin="round"/>
<path d="M875.625 301.035L829.42 347.468H647.256L576.713 418.368" stroke="#8B602E" stroke-linecap="round" stroke-linejoin="round"/>
<path d="M826.193 203.38H509.71" stroke="#8B602E" stroke-linecap="round" stroke-linejoin="round"/>
<path d="M816.769 252.676H562.864L509.371 306.449" stroke="#8B602E" stroke-linecap="round" stroke-linejoin="round"/>
<path d="M725.609 283.649L697.313 312.097H568.409L532.252 348.431" stroke="#8B602E" stroke-linecap="round" stroke-linejoin="round"/>
<path d="M582.258 282.373H686.615" stroke="#8B602E" stroke-linecap="round" stroke-linejoin="round"/>
<path d="M784.7 226.778H602.354" stroke="#8B602E" stroke-linecap="round" stroke-linejoin="round"/>
<path d="M748.23 295.023H814.869" stroke="#8B602E" stroke-linecap="round" stroke-linejoin="round"/>
<path d="M834.99 202.755C834.99 207.648 831.06 211.604 826.192 211.604C821.324 211.604 817.394 207.648 817.394 202.755C817.394 197.862 821.324 193.906 826.192 193.906C831.06 193.906 834.99 197.862 834.99 202.755Z" fill="#8B602E"/>
<path d="M518.508 202.755C518.508 207.648 514.577 211.604 509.71 211.604C504.842 211.604 500.911 207.648 500.911 202.755C500.911 197.862 504.842 193.906 509.71 193.906C514.577 193.906 518.508 197.862 518.508 202.755Z" fill="#8B602E"/>
<path d="M812.37 305.147C817.229 305.147 821.168 301.185 821.168 296.298C821.168 291.411 817.229 287.449 812.37 287.449C807.51 287.449 803.571 291.411 803.571 296.298C803.571 301.185 807.51 305.147 812.37 305.147Z" fill="#8B602E"/>
<path d="M686.615 291.223C691.474 291.223 695.413 287.261 695.413 282.373C695.413 277.486 691.474 273.524 686.615 273.524C681.756 273.524 677.816 277.486 677.816 282.373C677.816 287.261 681.756 291.223 686.615 291.223Z" fill="#8B602E"/>
<path d="M730.633 282.373C730.633 287.267 726.702 291.223 721.834 291.223C716.967 291.223 713.036 287.267 713.036 282.373C713.036 277.48 716.967 273.524 721.834 273.524C726.702 273.524 730.633 277.48 730.633 282.373Z" fill="#8B602E"/>
<path d="M587.282 289.973C592.141 289.973 596.08 286.011 596.08 281.124C596.08 276.237 592.141 272.275 587.282 272.275C582.423 272.275 578.483 276.237 578.483 281.124C578.483 286.011 582.423 289.973 587.282 289.973Z" fill="#8B602E"/>
<path d="M563.385 392.34C563.385 397.233 559.454 401.189 554.587 401.189C549.719 401.189 545.788 397.233 545.788 392.34C545.788 387.447 549.719 383.49 554.587 383.49C559.454 383.49 563.385 387.447 563.385 392.34Z" fill="#8B602E"/>
<path d="M577.234 426.93C582.093 426.93 586.032 422.968 586.032 418.081C586.032 413.194 582.093 409.232 577.234 409.232C572.375 409.232 568.436 413.194 568.436 418.081C568.436 422.968 572.375 426.93 577.234 426.93Z" fill="#8B602E"/>
<path d="M535.714 351.893C540.574 351.893 544.513 347.931 544.513 343.044C544.513 338.156 540.574 334.194 535.714 334.194C530.855 334.194 526.916 338.156 526.916 343.044C526.916 347.931 530.855 351.893 535.714 351.893Z" fill="#8B602E"/>
<path d="M755.779 305.147C760.638 305.147 764.577 301.185 764.577 296.298C764.577 291.411 760.638 287.449 755.779 287.449C750.92 287.449 746.98 291.411 746.98 296.298C746.98 301.185 750.92 305.147 755.779 305.147Z" fill="#8B602E"/>
<path d="M825.567 252.676C825.567 257.569 821.637 261.525 816.769 261.525C811.901 261.525 807.971 257.569 807.971 252.676C807.971 247.783 811.901 243.826 816.769 243.826C821.637 243.826 825.567 247.783 825.567 252.676Z" fill="#8B602E"/>
<path d="M884.423 301.035C884.423 305.928 880.492 309.885 875.625 309.885C870.757 309.885 866.826 305.928 866.826 301.035C866.826 296.142 870.757 292.186 875.625 292.186C880.492 292.186 884.423 296.142 884.423 301.035Z" fill="#8B602E"/>
<path d="M882.158 277.949C882.158 282.842 878.228 286.798 873.36 286.798C868.492 286.798 864.562 282.842 864.562 277.949C864.562 273.055 868.492 269.099 873.36 269.099C878.228 269.099 882.158 273.055 882.158 277.949Z" fill="#8B602E"/>
<path d="M784.699 235.628C789.558 235.628 793.497 231.666 793.497 226.778C793.497 221.891 789.558 217.929 784.699 217.929C779.84 217.929 775.9 221.891 775.9 226.778C775.9 231.666 779.84 235.628 784.699 235.628Z" fill="#8B602E"/>
<path d="M602.353 235.628C607.212 235.628 611.152 231.666 611.152 226.778C611.152 221.891 607.212 217.929 602.353 217.929C597.494 217.929 593.555 221.891 593.555 226.778C593.555 231.666 597.494 235.628 602.353 235.628Z" fill="#8B602E"/>
<path d="M513.093 312.721C517.953 312.721 521.892 308.759 521.892 303.872C521.892 298.985 517.953 295.023 513.093 295.023C508.234 295.023 504.295 298.985 504.295 303.872C504.295 308.759 508.234 312.721 513.093 312.721Z" fill="#8B602E"/>
<path d="M101.677 206.034C101.677 208.715 103.837 210.902 106.518 210.902H199.631C202.312 210.902 204.473 208.715 204.473 206.034C204.473 203.354 202.312 201.167 199.631 201.167H106.518C103.837 201.167 101.677 203.354 101.677 206.034Z" fill="#C8A57B"/>
<path d="M250.053 201.167H220.3C217.619 201.167 215.458 203.354 215.458 206.034C215.458 208.715 217.619 210.902 220.3 210.902H250.053C252.734 210.902 254.895 208.715 254.895 206.034C254.895 203.354 252.734 201.167 250.053 201.167Z" fill="#C8A57B"/>
<path d="M220.325 225.113H135.621C132.94 225.113 130.779 227.299 130.779 229.98C130.779 232.661 132.94 234.847 135.621 234.847H220.325C223.007 234.847 225.167 232.661 225.167 229.98C225.167 227.299 223.007 225.113 220.325 225.113Z" fill="#C8A57B"/>
<path d="M233.367 229.98C233.367 232.661 235.528 234.847 238.209 234.847H256.248C258.929 234.847 261.09 232.661 261.09 229.98C261.09 227.299 258.929 225.113 256.248 225.113H238.209C235.528 225.113 233.367 227.299 233.367 229.98Z" fill="#C8A57B"/>
<path d="M117.191 225.113H106.518C103.837 225.113 101.677 227.299 101.677 229.98C101.677 232.661 103.837 234.847 106.518 234.847H117.191C119.872 234.847 122.033 232.661 122.033 229.98C122.033 227.299 119.872 225.113 117.191 225.113Z" fill="#C8A57B"/>
<path d="M85.4594 225.113H42.7949C40.1137 225.113 37.9531 227.299 37.9531 229.98C37.9531 232.661 40.1137 234.847 42.7949 234.847H85.4594C87.0733 234.847 88.3748 233.546 88.3748 231.932V228.054C88.3748 226.44 87.0733 225.139 85.4594 225.139V225.113Z" fill="#C8A57B"/>
<path d="M144.186 252.312C144.186 254.992 146.346 257.179 149.027 257.179H254.426C257.107 257.179 259.268 254.992 259.268 252.312C259.268 249.631 257.107 247.444 254.426 247.444H149.027C146.346 247.444 144.186 249.631 144.186 252.312Z" fill="#C8A57B"/>
<path d="M69.1904 252.312C69.1904 254.992 71.351 257.179 74.0322 257.179H123.178C125.86 257.179 128.02 254.992 128.02 252.312C128.02 249.631 125.86 247.444 123.178 247.444H74.0322C71.351 247.444 69.1904 249.631 69.1904 252.312Z" fill="#C8A57B"/>
<path d="M32.9814 276.257C32.9814 278.938 35.142 281.124 37.8232 281.124H44.3049C46.986 281.124 49.1466 278.938 49.1466 276.257C49.1466 273.576 46.986 271.39 44.3049 271.39H37.8232C35.142 271.39 32.9814 273.576 32.9814 276.257Z" fill="#C8A57B"/>
<path d="M55.6279 276.257C55.6279 278.938 57.7885 281.124 60.4697 281.124H123.855C126.536 281.124 128.696 278.938 128.696 276.257C128.696 273.576 126.536 271.39 123.855 271.39H60.4697C57.7885 271.39 55.6279 273.576 55.6279 276.257Z" fill="#C8A57B"/>
<path d="M139.005 276.257C139.005 278.938 141.165 281.124 143.847 281.124H167.144C169.825 281.124 171.986 278.938 171.986 276.257C171.986 273.576 169.825 271.39 167.144 271.39H143.847C141.165 271.39 139.005 273.576 139.005 276.257Z" fill="#C8A57B"/>
<path d="M186.199 276.257C186.199 278.938 188.36 281.124 191.041 281.124H214.989C217.67 281.124 219.831 278.938 219.831 276.257C219.831 273.576 217.67 271.39 214.989 271.39H191.041C188.36 271.39 186.199 273.576 186.199 276.257Z" fill="#C8A57B"/>
<path d="M236.621 276.257C236.621 278.938 238.782 281.124 241.463 281.124H254.4C257.081 281.124 259.242 278.938 259.242 276.257C259.242 273.576 257.081 271.39 254.4 271.39H241.463C238.782 271.39 236.621 273.576 236.621 276.257Z" fill="#C8A57B"/>
<path d="M86.6572 300.202C86.6572 302.883 88.8178 305.069 91.499 305.069H100.558C103.239 305.069 105.399 302.883 105.399 300.202C105.399 297.521 103.239 295.335 100.558 295.335H91.499C88.8178 295.335 86.6572 297.521 86.6572 300.202Z" fill="#C8A57B"/>
<path d="M124.558 300.202C124.558 302.883 126.718 305.069 129.399 305.069H174.927C177.608 305.069 179.769 302.883 179.769 300.202C179.769 297.521 177.608 295.335 174.927 295.335H129.399C126.718 295.335 124.558 297.521 124.558 300.202Z" fill="#C8A57B"/>
<path d="M189.583 300.202C189.583 302.883 191.744 305.069 194.425 305.069H230.009C232.69 305.069 234.851 302.883 234.851 300.202C234.851 297.521 232.69 295.335 230.009 295.335H194.425C191.744 295.335 189.583 297.521 189.583 300.202Z" fill="#C8A57B"/>
<path d="M145.408 136.957C145.408 139.638 147.569 141.824 150.25 141.824H255.649C258.33 141.824 260.491 139.638 260.491 136.957C260.491 134.276 258.33 132.09 255.649 132.09H150.25C147.569 132.09 145.408 134.276 145.408 136.957Z" fill="#C8A57B"/>
<path d="M183.934 111.398H171.049C168.368 111.398 166.207 113.584 166.207 116.265C166.207 118.946 168.368 121.132 171.049 121.132H183.934C186.615 121.132 188.776 118.946 188.776 116.265C188.776 113.584 186.615 111.398 183.934 111.398Z" fill="#C8A57B"/>
<path d="M151.474 111.398H107.716C105.035 111.398 102.874 113.584 102.874 116.265C102.874 118.946 105.035 121.132 107.716 121.132H151.474C154.155 121.132 156.315 118.946 156.315 116.265C156.315 113.584 154.155 111.398 151.474 111.398Z" fill="#C8A57B"/>
<path d="M255.623 111.398H201.167C198.478 111.398 196.299 113.577 196.299 116.265C196.299 118.953 198.478 121.132 201.167 121.132H255.623C258.311 121.132 260.491 118.953 260.491 116.265C260.491 113.577 258.311 111.398 255.623 111.398Z" fill="#C8A57B"/>
<path d="M140.229 160.903C140.229 163.583 142.389 165.77 145.07 165.77H168.368C171.049 165.77 173.21 163.583 173.21 160.903C173.21 158.222 171.049 156.035 168.368 156.035H145.07C142.389 156.035 140.229 158.222 140.229 160.903Z" fill="#C8A57B"/>
<path d="M187.423 160.903C187.423 163.583 189.583 165.77 192.265 165.77H216.213C218.894 165.77 221.055 163.583 221.055 160.903C221.055 158.222 218.894 156.035 216.213 156.035H192.265C189.583 156.035 187.423 158.222 187.423 160.903Z" fill="#C8A57B"/>
<path d="M235.085 160.903C235.085 163.583 237.246 165.77 239.927 165.77H257.55C260.231 165.77 262.391 163.583 262.391 160.903C262.391 158.222 260.231 156.035 257.55 156.035H239.927C237.246 156.035 235.085 158.222 235.085 160.903Z" fill="#C8A57B"/>
<path d="M162.406 184.848C162.406 187.529 164.567 189.715 167.248 189.715H194.424C197.105 189.715 199.266 187.529 199.266 184.848C199.266 182.167 197.105 179.981 194.424 179.981H167.248C164.567 179.981 162.406 182.167 162.406 184.848Z" fill="#C8A57B"/>
<path d="M87.8809 184.848C87.8809 187.529 90.0414 189.715 92.7226 189.715H101.781C104.462 189.715 106.623 187.529 106.623 184.848C106.623 182.167 104.462 179.981 101.781 179.981H92.7226C90.0414 179.981 87.8809 182.167 87.8809 184.848Z" fill="#C8A57B"/>
<path d="M115.682 184.848C115.682 187.529 117.842 189.715 120.523 189.715H140.593C143.274 189.715 145.435 187.529 145.435 184.848C145.435 182.167 143.274 179.981 140.593 179.981H120.523C117.842 179.981 115.682 182.167 115.682 184.848Z" fill="#C8A57B"/>
<path d="M217.176 184.848C217.176 187.529 219.336 189.715 222.018 189.715H257.602C260.283 189.715 262.443 187.529 262.443 184.848C262.443 182.167 260.283 179.981 257.602 179.981H222.018C219.336 179.981 217.176 182.167 217.176 184.848Z" fill="#C8A57B"/>
<path d="M85.8757 127.379C85.3291 127.379 84.7564 127.171 84.3139 126.754L72.7822 116.057L84.2098 104.214C85.0948 103.303 86.5525 103.277 87.4636 104.162C88.3747 105.047 88.4007 106.505 87.5157 107.416L79.342 115.875L87.4116 123.371C88.3487 124.23 88.4007 125.687 87.5417 126.624C87.0992 127.119 86.4744 127.353 85.8497 127.353L85.8757 127.379Z" fill="#C8A57B"/>
<path d="M99.7507 127.379C99.2041 127.379 98.6314 127.171 98.1889 126.754L86.6572 116.057L98.0848 104.214C98.9698 103.303 100.428 103.277 101.339 104.162C102.25 105.047 102.276 106.505 101.391 107.416L93.217 115.875L101.287 123.371C102.224 124.23 102.276 125.687 101.417 126.624C100.974 127.119 100.349 127.353 99.7247 127.353L99.7507 127.379Z" fill="#C8A57B"/>
<path d="M256.013 312.774C255.388 312.774 254.79 312.513 254.321 312.045C253.462 311.108 253.514 309.65 254.451 308.791L262.521 301.295L254.373 292.837C253.488 291.926 253.514 290.468 254.425 289.583C255.336 288.698 256.794 288.724 257.679 289.635L269.107 301.478L257.575 312.175C257.132 312.591 256.586 312.8 256.013 312.8V312.774Z" fill="#C8A57B"/>
<path d="M242.114 312.774C241.489 312.774 240.89 312.513 240.422 312.045C239.563 311.108 239.615 309.65 240.552 308.791L248.621 301.295L240.448 292.837C239.563 291.926 239.589 290.468 240.5 289.583C241.411 288.698 242.869 288.724 243.754 289.635L255.181 301.478L243.649 312.175C243.207 312.591 242.66 312.8 242.088 312.8L242.114 312.774Z" fill="#C8A57B"/>
<path d="M438.047 202.625H435.184C427.377 202.625 421.049 208.952 421.049 216.758V320.322C421.049 328.127 427.377 334.455 435.184 334.455H438.047C445.853 334.455 452.182 328.127 452.182 320.322V216.758C452.182 208.952 445.853 202.625 438.047 202.625Z" fill="#F78D65"/>
<path d="M488.365 429.741L485.579 431.251C479.54 434.531 472.017 432.266 468.763 426.228L428.78 351.945C425.526 345.881 427.765 338.333 433.778 335.053L436.563 333.543C442.602 330.264 450.125 332.528 453.379 338.567L493.362 412.849C496.616 418.914 494.378 426.462 488.365 429.741Z" fill="#F78D65"/>
<path d="M479.358 475.004C470.689 457.825 474.802 438.227 488.573 431.225C502.317 424.224 520.486 432.474 529.155 449.653" stroke="#F78D65" stroke-width="5" stroke-linecap="round" stroke-linejoin="round"/>
<path d="M437.682 326.308C440.443 326.308 442.68 324.059 442.68 321.285C442.68 318.51 440.443 316.261 437.682 316.261C434.922 316.261 432.685 318.51 432.685 321.285C432.685 324.059 434.922 326.308 437.682 326.308Z" fill="#1D1D1B"/>
<path d="M447.002 344.996C447.002 347.781 444.763 350.019 442.004 350.019C439.245 350.019 437.006 347.755 437.006 344.996C437.006 342.237 439.245 339.972 442.004 339.972C444.763 339.972 447.002 342.237 447.002 344.996Z" fill="#1D1D1B"/>
<path d="M438.411 240.026C455.605 240.026 469.544 226.02 469.544 208.741C469.544 191.463 455.605 177.456 438.411 177.456C421.217 177.456 407.278 191.463 407.278 208.741C407.278 226.02 421.217 240.026 438.411 240.026Z" stroke="black" stroke-linecap="round" stroke-linejoin="round"/>
<path d="M438.411 230.032C450.113 230.032 459.6 220.5 459.6 208.741C459.6 196.983 450.113 187.451 438.411 187.451C426.708 187.451 417.222 196.983 417.222 208.741C417.222 220.5 426.708 230.032 438.411 230.032Z" fill="black"/>
<path d="M479.358 475.004C470.689 457.825 474.802 438.227 488.573 431.225C502.317 424.224 520.486 432.474 529.155 449.653" stroke="black" stroke-linecap="round" stroke-linejoin="round"/>
<path d="M439.011 202.625V162.308C439.011 146.249 426.073 133.261 410.116 133.261H268.951" stroke="#8B602E" stroke-linecap="round" stroke-linejoin="round"/>
<path d="M268.951 195.806H332.206C345.378 195.806 357.977 201.063 367.296 210.407L427.271 270.687" stroke="#8B602E" stroke-linecap="round" stroke-linejoin="round"/>
<path d="M268.951 216.654H319.008C332.18 216.654 344.779 221.911 354.098 231.255L426.334 303.846" stroke="#8B602E" stroke-linecap="round" stroke-linejoin="round"/>
<path d="M426.151 725.207L444.554 613.965C445.101 610.711 442.602 607.77 439.322 607.77H358.002" stroke="#778980" stroke-linecap="round" stroke-linejoin="round"/>
<path d="M983.965 805.632H667.196V1098H983.965V805.632Z" fill="#F78D65"/>
<path d="M983.965 863.283H667.196" stroke="#1D1D1B" stroke-linecap="round" stroke-linejoin="round"/>
<path d="M983.965 920.934H667.196" stroke="#1D1D1B" stroke-linecap="round" stroke-linejoin="round"/>
<path d="M983.965 978.585H667.196" stroke="#1D1D1B" stroke-linecap="round" stroke-linejoin="round"/>
<path d="M983.965 1036.24H667.196" stroke="#1D1D1B" stroke-linecap="round" stroke-linejoin="round"/>
<path d="M749.324 1057.21H689.349V1074.24H749.324V1057.21Z" fill="#8B602E"/>
<path d="M956.607 1057.21H779.312V1074.24H956.607V1057.21Z" fill="#8B602E"/>
<path d="M749.324 1000.86H689.349V1017.89H749.324V1000.86Z" fill="#8B602E"/>
<path d="M956.607 1000.86H779.312V1017.89H956.607V1000.86Z" fill="#8B602E"/>
<path d="M749.324 944.515H689.349V961.537H749.324V944.515Z" fill="#8B602E"/>
<path d="M956.607 944.515H779.312V961.537H956.607V944.515Z" fill="#8B602E"/>
<path d="M749.324 888.166H689.349V905.188H749.324V888.166Z" fill="#8B602E"/>
<path d="M956.607 888.166H779.312V905.188H956.607V888.166Z" fill="#8B602E"/>
<path d="M749.324 831.842H689.349V848.864H749.324V831.842Z" fill="#8B602E"/>
<path d="M956.607 831.842H779.312V848.864H956.607V831.842Z" fill="#8B602E"/>
<path d="M892.077 342.757C896.936 342.757 900.875 338.795 900.875 333.908C900.875 329.021 896.936 325.059 892.077 325.059C887.218 325.059 883.278 329.021 883.278 333.908C883.278 338.795 887.218 342.757 892.077 342.757Z" fill="#8B602E"/>
<path d="M966.265 318.63C966.265 323.523 962.334 327.479 957.466 327.479C952.599 327.479 948.668 323.523 948.668 318.63C948.668 313.737 952.599 309.781 957.466 309.781C962.334 309.781 966.265 313.737 966.265 318.63Z" fill="#8B602E"/>
<path d="M946.065 306.839C946.065 311.733 942.134 315.689 937.266 315.689C932.398 315.689 928.468 311.733 928.468 306.839C928.468 301.946 932.398 297.99 937.266 297.99C942.134 297.99 946.065 301.946 946.065 306.839Z" fill="#8B602E"/>
<path d="M919.071 296.767C923.93 296.767 927.869 292.805 927.869 287.917C927.869 283.03 923.93 279.068 919.071 279.068C914.212 279.068 910.272 283.03 910.272 287.917C910.272 292.805 914.212 296.767 919.071 296.767Z" fill="#8B602E"/>
<path d="M957.727 314.257L959.679 744.701L1044.75 830.202V960.887L993.415 1012.5" stroke="#8B602E" stroke-linecap="round" stroke-linejoin="round"/>
<path d="M919.435 284.768V717.164L844.154 792.852" stroke="#8B602E" stroke-linecap="round" stroke-linejoin="round"/>
<path d="M937.734 306.111V782.025" stroke="#8B602E" stroke-linecap="round" stroke-linejoin="round"/>
<path d="M892.077 333.908V705.374L807.008 790.874" stroke="#8B602E" stroke-linecap="round" stroke-linejoin="round"/>
<path d="M806.904 799.62C811.763 799.62 815.702 795.658 815.702 790.77C815.702 785.883 811.763 781.921 806.904 781.921C802.045 781.921 798.105 785.883 798.105 790.77C798.105 795.658 802.045 799.62 806.904 799.62Z" fill="#8B602E"/>
<path d="M947.574 789.469C947.574 794.362 943.644 798.318 938.776 798.318C933.908 798.318 929.978 794.362 929.978 789.469C929.978 784.576 933.908 780.62 938.776 780.62C943.644 780.62 947.574 784.576 947.574 789.469Z" fill="#8B602E"/>
<path d="M991.801 1023.69C996.661 1023.69 1000.6 1019.73 1000.6 1014.84C1000.6 1009.95 996.661 1005.99 991.801 1005.99C986.942 1005.99 983.003 1009.95 983.003 1014.84C983.003 1019.73 986.942 1023.69 991.801 1023.69Z" fill="#8B602E"/>
<path d="M844.154 799.62C849.013 799.62 852.952 795.658 852.952 790.77C852.952 785.883 849.013 781.921 844.154 781.921C839.295 781.921 835.355 785.883 835.355 790.77C835.355 795.658 839.295 799.62 844.154 799.62Z" fill="#8B602E"/>
</g>
<defs>
<clipPath id="clip0_2554_5714">
<rect width="1101" height="1098" fill="white"/>
</clipPath>
</defs>
</svg>
