<svg width="344" height="361" viewBox="0 0 344 361" fill="none" xmlns="http://www.w3.org/2000/svg">
<path d="M357.962 180.484C326.067 223.144 285.959 260.133 240.925 288.534C203.08 312.384 156.469 334.299 110.481 326.164C69.5536 318.922 32.1884 290 32.8948 245.468C33.4679 206.434 60.0247 172.434 95.2616 157.636C130.498 142.839 180.748 143.299 214.97 162.888C226.057 169.289 240.489 180.578 239.439 194.248C237.775 215.419 209.773 219.441 193.479 216.792C181.147 214.741 169.243 210.486 157.465 206.305C143.504 201.37 129.506 196.499 115.977 190.377C93.7627 180.424 71.4616 167.548 56.6328 147.583C44.8979 131.769 36.9057 110.936 40.6872 91.0713C44.4688 71.2069 60.2056 56.3865 78.4021 47.5477C101.228 36.3976 127.455 33.5471 152.529 32.9873C181.705 32.346 210.841 34.5536 239.464 39.8442C296.294 50.2692 350.344 71.5072 399.014 102.648C416.912 114.08 433.309 85.5331 415.475 74.1383C364.56 41.6172 307.123 18.9305 247.7 8.02206C217.844 2.52638 187.367 -0.286276 157.031 0.0232681C128.792 0.360315 100.095 3.39032 73.6336 13.9617C47.1721 24.5331 23.4987 42.7119 12.6321 70.3121C2.70225 95.412 6.59054 122.915 17.872 146.829C44.5508 203.625 112.307 228.045 168.401 244.719C197.028 253.222 228.131 253.778 252.292 234.022C272.902 217.2 277.659 188.184 264.376 165.395C239.223 122.489 176.381 111.212 131.009 115.765C78.6467 121.012 30.7736 149.21 10.0171 199.061C0.451109 221.921 -2.82758 247.06 2.65315 271.511C8.62306 298.189 25.8102 320.36 47.8447 336.038C96.2291 370.309 158.367 364.37 210.233 342.278C265.862 318.643 316.22 278.534 356.463 233.851C367.069 222.065 376.95 209.778 386.399 197.071C391.712 189.917 387.406 178.646 380.374 174.586C371.884 169.684 363.202 173.457 357.889 180.611L357.962 180.484Z" fill="#F3E7DD"/>
</svg>
