<svg width="203" height="186" viewBox="0 0 203 186" fill="none" xmlns="http://www.w3.org/2000/svg">
<path d="M165.33 148.669C142.671 165.406 99.9107 183.615 63.7251 183.959C45.6556 184.131 29.4472 179.849 18.1391 168.962C6.85789 158.101 0.175355 140.395 1.72001 113.1C3.15174 88.1657 14.8275 65.7989 29.94 47.5101L29.9431 47.5054C48.4585 24.9341 72.9328 7.38026 101.227 2.65459C129.508 -2.06884 161.761 7.7247 182.161 31.4709L182.16 31.4713C192.146 43.1684 199.041 58.094 200.905 73.2802L200.905 73.2824C204.684 103.727 187.977 131.966 165.33 148.668L165.33 148.669Z" fill="#FBC3B1" stroke="#496D96" stroke-width="3"/>
</svg>
