<svg width="234" height="344" viewBox="0 0 234 344" fill="none" xmlns="http://www.w3.org/2000/svg">
<path d="M-62.4517 242.615C-57.1992 198.415 -43.6405 154.887 -22.936 115.516C-5.52956 82.4422 19.0227 47.1064 55.6678 33.779C88.282 21.9189 127.37 27.2376 145.449 59.7612C161.328 88.25 156.32 123.953 137.02 149.385C117.72 174.817 81.1973 195.48 48.2778 195.602C37.5896 195.602 22.4429 193.463 17.4958 183.131C9.86138 167.114 28.4284 152.502 41.3153 147.612C51.0873 143.944 61.47 142.048 71.7307 140.153C83.8846 137.891 96.0386 135.568 108.376 134.346C128.592 132.267 150.09 132.267 169.146 140.52C184.231 147.061 198.706 158.799 204.264 174.755C209.822 190.712 204.631 208.013 195.164 222.013C183.315 239.619 165.542 252.641 147.647 263.523C126.821 276.178 104.834 286.754 81.9303 294.885C36.4903 311.086 -11.4537 318.3 -59.6421 316.099C-77.3539 315.304 -77.2928 342.815 -59.6421 343.609C-9.25501 345.871 41.7427 338.291 89.2592 321.356C113.14 312.859 136.348 302.16 158.152 289.261C178.429 277.217 197.912 263.034 212.631 244.327C227.35 225.62 236.878 202.572 233.214 178.057C229.916 155.743 215.624 137.463 197.485 124.87C154.488 94.9136 95.3058 105.551 47.7892 116.922C23.5424 122.73 0.822304 135.324 -8.40006 159.716C-16.2788 180.502 -7.60602 203.489 11.5105 214.432C47.606 234.973 97.7487 216.877 128.653 194.624C164.321 168.948 187.163 128.538 181.361 83.7871C178.735 63.2459 170.611 43.6828 156.442 28.2769C140.99 11.4648 119.308 2.60033 96.8327 0.460614C47.545 -4.12449 5.09767 26.1372 -23.1802 63.7961C-53.5346 104.145 -73.2009 154.214 -83.6448 203.367C-86.3932 216.327 -88.4087 229.349 -89.9356 242.493C-90.7906 249.89 -82.973 256.248 -76.1936 256.248C-68.0095 256.248 -63.3067 249.89 -62.4517 242.493V242.615Z" fill="#F78D65"/>
</svg>
